<svg width="1000" height="568" viewBox="0 0 1000 568" fill="none" xmlns="http://www.w3.org/2000/svg">
<rect width="1000" height="568" rx="33" fill="#1155CC"/>
<path d="M537.653 111.486C542.204 111.486 545.893 107.795 545.893 103.243C545.893 98.6904 542.204 95 537.653 95C533.102 95 529.413 98.6904 529.413 103.243C529.413 107.795 533.102 111.486 537.653 111.486Z" fill="white"/>
<path d="M289.272 471.999C293.823 471.999 297.512 468.309 297.512 463.756C297.512 459.204 293.823 455.514 289.272 455.514C284.721 455.514 281.032 459.204 281.032 463.756C281.032 468.309 284.721 471.999 289.272 471.999Z" fill="white"/>
<path d="M121.888 248.322H116.632V237.633C118.149 237.386 119.242 236.857 119.842 236.011C120.442 235.164 120.865 233.259 121.112 230.296C121.359 227.333 121.465 222.253 121.5 215.021H140.302V237.633H142.63V248.322H137.374L137.762 243.03H121.5L121.888 248.322ZM134.305 237.633V220.242H127.109C127.073 225.498 126.862 229.449 126.438 232.024C126.015 234.6 125.274 236.504 124.216 237.633H134.305Z" fill="white"/>
<path d="M147.991 228.885C149.367 223.911 151.025 219.29 152.894 215.021H161.96C163.865 219.29 165.523 223.946 166.899 228.92C168.275 233.894 169.262 238.621 169.792 242.995H163.724C163.442 241.02 163.089 239.115 162.666 237.28H152.118C151.766 239.009 151.413 240.914 151.06 242.995H144.993C145.628 238.586 146.615 233.894 147.991 228.885ZM161.749 232.307C160.69 227.65 159.456 223.664 158.115 220.383H156.775C155.293 224.052 154.094 228.038 153.177 232.307H161.749Z" fill="white"/>
<path d="M177.517 246.737C178.151 245.679 178.575 244.62 178.857 243.491L174.941 242.433C174.941 240.775 175.294 239.541 175.964 238.659C176.635 237.777 177.622 237.354 178.892 237.354C180.197 237.354 181.15 237.742 181.785 238.518C182.42 239.294 182.702 240.352 182.702 241.692C182.702 243.35 182.279 245.044 181.397 246.843C180.515 248.642 179.421 250.159 178.046 251.429L175.259 249.559C176.176 248.712 176.917 247.795 177.517 246.737Z" fill="white"/>
<path d="M203.938 243.177C202.562 242.859 201.398 242.401 200.41 241.836L201.151 237.85C202.209 238.097 203.267 238.309 204.432 238.45C205.56 238.591 206.548 238.661 207.359 238.661C211.134 238.661 213.321 237.145 213.921 234.111L205.596 234.358V229.772L213.85 230.089C213.533 228.749 212.862 227.761 211.804 227.091C210.746 226.421 209.405 226.068 207.783 226.068C207.042 226.068 206.019 226.139 204.714 226.28C203.409 226.421 202.386 226.597 201.574 226.809L200.798 222.787C201.998 222.152 203.303 221.694 204.714 221.412C206.125 221.129 207.536 220.988 208.876 220.988C212.333 220.988 215.05 221.976 217.025 223.951C219 225.927 219.988 228.678 219.988 232.206C219.988 235.804 218.965 238.591 216.954 240.637C214.944 242.648 212.051 243.671 208.347 243.671C206.795 243.671 205.313 243.494 203.938 243.177Z" fill="white"/>
<path d="M228.563 226.877H222.46L222.425 221.656H240.768V226.877H234.56V243.033H228.563V226.877Z" fill="white"/>
<path d="M247.116 242.291C245.458 241.374 244.188 240.033 243.306 238.34C242.424 236.647 241.966 234.636 241.966 232.343C241.966 230.015 242.424 228.004 243.306 226.311C244.188 224.618 245.493 223.312 247.116 222.395C248.739 221.478 250.679 221.02 252.901 221.02C255.088 221.02 257.029 221.478 258.687 222.395C260.344 223.312 261.614 224.618 262.496 226.311C263.378 228.004 263.837 230.015 263.837 232.343C263.837 234.636 263.378 236.611 262.496 238.34C261.614 240.033 260.344 241.374 258.687 242.291C257.029 243.208 255.124 243.667 252.901 243.667C250.714 243.667 248.774 243.208 247.116 242.291ZM249.127 237.07C250.009 238.164 251.279 238.728 252.866 238.728C254.489 238.728 255.759 238.164 256.676 237.07C257.593 235.941 258.052 234.354 258.052 232.272C258.052 230.226 257.593 228.639 256.676 227.581C255.759 226.523 254.489 225.958 252.866 225.958C251.279 225.958 250.044 226.523 249.127 227.616C248.245 228.71 247.786 230.297 247.786 232.378C247.786 234.389 248.21 235.976 249.127 237.07Z" fill="white"/>
<path d="M284.12 240.246C282.392 237.953 281.51 234.496 281.51 229.875C281.51 226.7 281.757 224.09 282.251 222.079C282.744 220.068 283.732 218.41 285.178 217.07C286.625 215.729 288.812 214.812 291.669 214.248C294.033 213.789 296.608 213.436 299.395 213.189L299.818 218.587C296.643 218.869 294.28 219.186 292.798 219.504C291.458 219.751 290.435 220.103 289.729 220.492C289.024 220.88 288.459 221.479 288.071 222.255C287.683 223.067 287.436 224.195 287.295 225.677C289.694 224.372 292.304 223.737 295.091 223.737C297.701 223.737 299.677 224.548 301.088 226.136C302.464 227.758 303.169 229.945 303.169 232.803C303.169 236.119 302.287 238.764 300.488 240.74C298.689 242.715 295.973 243.703 292.339 243.703C288.6 243.668 285.884 242.539 284.12 240.246ZM288.353 236.754C289.165 238.129 290.576 238.8 292.481 238.8C294.068 238.8 295.303 238.306 296.149 237.353C296.996 236.401 297.419 235.06 297.419 233.438C297.419 231.815 297.031 230.58 296.255 229.769C295.479 228.958 294.174 228.534 292.339 228.534C290.928 228.534 289.165 228.922 287.083 229.663V230.051C287.119 233.156 287.542 235.413 288.353 236.754Z" fill="white"/>
<path d="M310.436 242.291C308.778 241.374 307.509 240.033 306.627 238.34C305.745 236.647 305.286 234.636 305.286 232.343C305.286 230.015 305.745 228.004 306.627 226.311C307.509 224.618 308.814 223.312 310.436 222.395C312.059 221.478 314.035 221.02 316.222 221.02C318.409 221.02 320.349 221.478 322.007 222.395C323.665 223.312 324.935 224.618 325.817 226.311C326.699 228.004 327.157 230.015 327.157 232.343C327.157 234.636 326.699 236.611 325.817 238.34C324.935 240.033 323.665 241.374 322.007 242.291C320.349 243.208 318.444 243.667 316.222 243.667C314.035 243.667 312.094 243.208 310.436 242.291ZM312.447 237.07C313.329 238.164 314.599 238.728 316.186 238.728C317.809 238.728 319.079 238.164 319.996 237.07C320.913 235.941 321.372 234.354 321.372 232.272C321.372 230.226 320.913 228.639 319.996 227.581C319.079 226.523 317.809 225.958 316.186 225.958C314.599 225.958 313.364 226.523 312.447 227.616C311.565 228.71 311.107 230.297 311.107 232.378C311.107 234.389 311.53 235.976 312.447 237.07Z" fill="white"/>
<path d="M344.3 226.948H338.303C338.233 231.216 337.951 234.461 337.386 236.754C336.822 239.047 335.869 240.705 334.529 241.693C333.153 242.716 331.213 243.21 328.638 243.245L328.285 237.954C329.767 237.848 330.79 237.46 331.354 236.86C331.919 236.261 332.271 234.92 332.448 232.839C332.624 230.758 332.73 227.018 332.765 221.621H350.086V242.963H344.3V226.948Z" fill="white"/>
<path d="M354.144 221.656H359.929V227.477H365.326C368.113 227.477 370.229 228.112 371.676 229.417C373.122 230.722 373.863 232.662 373.863 235.237C373.863 237.742 373.157 239.647 371.746 240.987C370.335 242.328 368.219 242.998 365.361 242.998H354.179V221.656H354.144ZM364.726 238.342C365.785 238.342 366.631 238.059 367.231 237.53C367.831 237.001 368.113 236.225 368.113 235.202C368.113 234.179 367.831 233.438 367.231 232.909C366.631 232.415 365.785 232.133 364.691 232.133H359.929V238.306H364.726V238.342Z" fill="white"/>
<path d="M376.683 221.656H382.009V237.707H386.031V221.656H390.687V237.707H394.709V221.656H400.035V242.998H376.647V221.656H376.683Z" fill="white"/>
<path d="M407.798 242.291C406.14 241.374 404.87 240.033 403.988 238.34C403.106 236.647 402.647 234.636 402.647 232.343C402.647 230.015 403.106 228.004 403.988 226.311C404.87 224.618 406.175 223.312 407.798 222.395C409.42 221.478 411.361 221.02 413.583 221.02C415.77 221.02 417.71 221.478 419.368 222.395C421.026 223.312 422.296 224.618 423.178 226.311C424.06 228.004 424.518 230.015 424.518 232.343C424.518 234.636 424.06 236.611 423.178 238.34C422.296 240.033 421.026 241.374 419.368 242.291C417.71 243.208 415.805 243.667 413.583 243.667C411.361 243.667 409.42 243.208 407.798 242.291ZM409.773 237.07C410.655 238.164 411.925 238.728 413.512 238.728C415.135 238.728 416.405 238.164 417.322 237.07C418.239 235.941 418.698 234.354 418.698 232.272C418.698 230.226 418.239 228.639 417.322 227.581C416.405 226.523 415.135 225.958 413.512 225.958C411.925 225.958 410.69 226.523 409.773 227.616C408.891 228.71 408.433 230.297 408.433 232.378C408.433 234.389 408.891 235.976 409.773 237.07Z" fill="white"/>
<path d="M78.1809 280.885V268.009L69.0797 280.885H64V259.543H69.6088V272.419L78.71 259.543H83.7897V280.885H78.1809Z" fill="white"/>
<path d="M104.284 278.522C102.203 276.511 101.145 273.689 101.145 270.091C101.145 266.528 102.132 263.776 104.143 261.836C106.154 259.896 108.94 258.908 112.503 258.908C115.572 258.908 118.359 259.508 120.934 260.672C121.005 262.224 121.005 263.424 121.005 264.27C121.005 266.104 120.934 267.727 120.828 269.138L118.818 269.173C117.618 269.173 116.489 269.138 115.361 269.032L116.066 264.341C115.043 263.988 113.95 263.812 112.786 263.812C109.011 263.812 107.106 265.893 107.106 270.055C107.106 272.172 107.671 273.759 108.764 274.818C109.893 275.876 111.657 276.44 114.091 276.44C114.973 276.44 115.96 276.37 117.089 276.229C118.218 276.087 119.347 275.911 120.405 275.629C120.687 276.828 120.934 278.204 121.146 279.791C120.123 280.285 118.959 280.673 117.583 280.991C116.207 281.308 114.761 281.485 113.209 281.485C109.329 281.52 106.365 280.532 104.284 278.522Z" fill="white"/>
<path d="M139.913 264.834H133.916C133.846 269.103 133.564 272.348 132.999 274.641C132.435 276.934 131.482 278.592 130.142 279.58C128.766 280.603 126.826 281.097 124.251 281.132L123.898 275.84C125.38 275.735 126.403 275.347 126.967 274.747C127.531 274.147 127.884 272.807 128.06 270.725C128.237 268.644 128.343 264.905 128.378 259.508H145.698V280.85H139.913V264.834Z" fill="white"/>
<path d="M154.058 280.142C152.4 279.225 151.13 277.885 150.248 276.191C149.366 274.498 148.908 272.488 148.908 270.195C148.908 267.866 149.366 265.856 150.248 264.162C151.13 262.469 152.435 261.164 154.058 260.247C155.681 259.33 157.621 258.871 159.843 258.871C162.03 258.871 163.97 259.33 165.628 260.247C167.286 261.164 168.556 262.469 169.438 264.162C170.32 265.856 170.779 267.866 170.779 270.195C170.779 272.488 170.32 274.463 169.438 276.191C168.556 277.885 167.286 279.225 165.628 280.142C163.97 281.06 162.066 281.518 159.843 281.518C157.621 281.518 155.681 281.06 154.058 280.142ZM156.033 274.922C156.915 276.015 158.185 276.58 159.773 276.58C161.395 276.58 162.665 276.015 163.582 274.922C164.5 273.793 164.958 272.205 164.958 270.124C164.958 268.078 164.5 266.491 163.582 265.432C162.665 264.374 161.395 263.81 159.773 263.81C158.185 263.81 156.951 264.374 156.033 265.468C155.152 266.561 154.693 268.149 154.693 270.23C154.693 272.276 155.152 273.828 156.033 274.922Z" fill="white"/>
<path d="M176.355 269.628C174.52 266.277 173.321 262.89 172.721 259.504H178.542C178.789 260.845 179.106 262.22 179.53 263.631C179.953 265.078 180.447 266.348 181.011 267.512H182.634V259.469H187.925V267.512H189.583C190.641 265.325 191.488 262.679 192.053 259.469H197.838C197.238 262.855 196.003 266.206 194.204 269.593L198.402 280.846H192.194L189.689 272.521H187.961V280.846H182.669V272.521H180.941L178.436 280.846H172.228L176.355 269.628Z" fill="white"/>
<path d="M215.262 272.383H207.678V280.885H201.893V259.543H207.678V267.092H215.262V259.543H220.977V280.885H215.262V272.383Z" fill="white"/>
<path d="M225.916 259.543H231.172V265.363H233.677C236.322 265.363 238.404 265.998 239.85 267.233C241.296 268.468 242.002 270.443 242.002 273.089C242.002 278.31 239.25 280.885 233.712 280.885H225.916V259.543ZM233.324 276.369C235.652 276.369 236.781 275.276 236.781 273.089C236.781 270.937 235.582 269.879 233.218 269.879H231.137V276.405H233.324V276.369ZM244.753 259.543H250.009V280.885H244.753V259.543Z" fill="white"/>
<path d="M268.564 280.884V268.009L259.463 280.884H254.383V259.543H259.992V272.418L269.093 259.543H274.172V280.884H268.564ZM259.463 255.345C258.263 254.322 257.558 252.911 257.417 251.076L261.403 250.441C261.579 251.464 261.897 252.205 262.355 252.699C262.814 253.193 263.449 253.44 264.225 253.44C265.001 253.44 265.636 253.193 266.094 252.699C266.553 252.205 266.87 251.464 267.047 250.441L270.998 251.076C270.821 252.911 270.151 254.322 268.952 255.345C267.752 256.368 266.165 256.897 264.26 256.897C262.249 256.897 260.662 256.368 259.463 255.345Z" fill="white"/>
<path d="M306.451 264.834H298.831V280.885H293.046V259.543H312.236V280.885H306.451V264.834Z" fill="white"/>
<path d="M333.295 260.105C334.494 260.917 335.446 262.151 336.152 263.739C336.822 265.326 337.175 267.231 337.175 269.418C337.175 271.676 336.752 273.651 335.87 275.38C334.988 277.073 333.788 278.413 332.236 279.331C330.684 280.248 328.92 280.706 326.98 280.706C325.463 280.706 323.982 280.424 322.5 279.895V284.269L325.71 283.846C325.746 284.446 325.746 285.292 325.746 286.421C325.746 287.515 325.746 288.361 325.71 288.89H314.422L314.387 286.421L314.422 283.846L316.75 284.199V257.424C317.773 257.319 318.761 257.248 319.784 257.248C320.842 257.248 321.865 257.319 322.853 257.424L322.253 261.446C324.511 259.753 326.769 258.871 329.061 258.871C330.649 258.871 332.06 259.294 333.295 260.105ZM326.134 275.838C327.827 275.838 329.132 275.274 330.049 274.18C331.002 273.052 331.46 271.464 331.46 269.383C331.46 267.654 331.107 266.314 330.402 265.361C329.696 264.409 328.673 263.95 327.333 263.95C325.887 263.95 324.264 264.409 322.465 265.291V275.239C323.911 275.662 325.146 275.838 326.134 275.838Z" fill="white"/>
<path d="M344.654 280.142C342.996 279.225 341.726 277.885 340.844 276.191C339.962 274.498 339.504 272.488 339.504 270.195C339.504 267.866 339.962 265.856 340.844 264.162C341.726 262.469 343.031 261.164 344.654 260.247C346.277 259.33 348.217 258.871 350.439 258.871C352.626 258.871 354.567 259.33 356.225 260.247C357.883 261.164 359.153 262.469 360.034 264.162C360.916 265.856 361.375 267.866 361.375 270.195C361.375 272.488 360.916 274.463 360.034 276.191C359.153 277.885 357.883 279.225 356.225 280.142C354.567 281.06 352.662 281.518 350.439 281.518C348.252 281.518 346.312 281.06 344.654 280.142ZM346.665 274.922C347.547 276.015 348.817 276.58 350.404 276.58C352.027 276.58 353.297 276.015 354.214 274.922C355.131 273.793 355.59 272.205 355.59 270.124C355.59 268.078 355.131 266.491 354.214 265.432C353.297 264.374 352.027 263.81 350.404 263.81C348.817 263.81 347.582 264.374 346.665 265.468C345.783 266.561 345.324 268.149 345.324 270.23C345.324 272.276 345.783 273.828 346.665 274.922Z" fill="white"/>
<path d="M366.244 278.522C364.233 276.546 363.21 273.759 363.21 270.126C363.21 267.868 363.633 265.893 364.48 264.2C365.326 262.506 366.561 261.201 368.113 260.284C369.701 259.367 371.535 258.908 373.652 258.908C376.685 258.908 379.084 259.825 380.848 261.695C382.612 263.565 383.458 266.069 383.458 269.173C383.458 269.985 383.388 270.831 383.282 271.678C379.049 271.96 374.216 272.101 368.713 272.101C368.96 273.618 369.595 274.712 370.618 275.453C371.676 276.193 373.193 276.546 375.274 276.546C376.156 276.546 377.25 276.476 378.52 276.299C379.79 276.158 380.918 275.946 381.977 275.699C382.329 276.899 382.612 278.31 382.788 279.897C381.694 280.356 380.46 280.744 379.049 281.026C377.673 281.308 376.227 281.449 374.745 281.449C371.112 281.485 368.254 280.497 366.244 278.522ZM378.061 268.009C377.744 265.046 376.191 263.529 373.405 263.529C370.688 263.529 369.136 265.081 368.713 268.186C370.9 268.186 374.004 268.115 378.061 268.009Z" fill="white"/>
<path d="M395.239 272.56H392.17V280.885H386.385V259.543H392.17V267.339H395.556C397.356 265.011 398.449 262.4 398.802 259.543H404.658C404.587 261.201 404.199 262.929 403.458 264.764C402.717 266.598 401.659 268.397 400.319 270.161L406.421 280.92H399.79L395.239 272.56Z" fill="white"/>
<path d="M446.601 221.66H441.521L432.42 234.571V221.66H426.812V243.002H431.891L441.028 230.126V238.451L446.601 230.162V221.66Z" fill="white"/>
<path d="M431.925 217.495C433.124 218.518 434.712 219.047 436.687 219.047C438.627 219.047 440.179 218.518 441.379 217.495C442.578 216.472 443.284 215.061 443.425 213.227L439.509 212.557C439.333 213.58 439.015 214.32 438.557 214.814C438.098 215.308 437.463 215.555 436.687 215.555C435.911 215.555 435.276 215.308 434.818 214.814C434.359 214.32 434.041 213.58 433.865 212.557L429.879 213.192C430.02 215.026 430.726 216.472 431.925 217.495Z" fill="white"/>
<path d="M419.226 264.729H423.282L425.434 261.554V259.543H407.091L407.126 264.729H413.264V279.615L419.226 270.725V264.729Z" fill="white"/>
<path d="M449.704 298.099C447.835 296.935 446.424 295.242 445.401 293.055C444.413 290.868 443.919 288.257 443.919 285.224C443.919 282.155 444.413 279.509 445.401 277.322C446.388 275.135 447.835 273.441 449.704 272.277C451.574 271.113 453.796 270.549 456.371 270.549C458.911 270.549 461.133 271.113 463.003 272.277C464.873 273.441 466.284 275.135 467.307 277.322C468.295 279.544 468.788 282.155 468.788 285.188C468.788 288.187 468.295 290.797 467.307 292.984C466.319 295.171 464.873 296.865 463.003 298.029C461.133 299.193 458.946 299.792 456.371 299.792C453.796 299.863 451.574 299.263 449.704 298.099ZM451.68 291.996C452.773 293.549 454.325 294.325 456.336 294.325C458.347 294.325 459.934 293.549 461.028 291.996C462.121 290.444 462.686 288.187 462.686 285.224C462.686 282.26 462.121 279.967 461.028 278.38C459.934 276.793 458.382 276.017 456.336 276.017C454.325 276.017 452.808 276.793 451.68 278.38C450.586 279.967 450.022 282.225 450.022 285.224C450.022 288.187 450.586 290.444 451.68 291.996Z" fill="white"/>
<path d="M488.579 291.431C486.357 290.231 485.228 288.15 485.228 285.187C485.228 283 485.933 281.236 487.38 279.896C488.826 278.52 491.119 277.85 494.294 277.85H503.924V283.141L502.725 282.929L502.795 285.363V299.191H497.01V292.524H493.941L490.131 299.191H483.711L488.579 291.431ZM491.048 287.198C491.542 287.621 492.283 287.833 493.376 287.833H497.01V282.612H493.376C492.318 282.612 491.577 282.823 491.084 283.247C490.59 283.67 490.343 284.34 490.343 285.258C490.343 286.139 490.59 286.774 491.048 287.198Z" fill="white"/>
<path d="M535.566 283.141H527.946V299.191H522.161V277.85H541.351V299.191H535.566V283.141Z" fill="white"/>
<path d="M561.672 278.451C562.871 279.262 563.823 280.497 564.529 282.084C565.199 283.672 565.552 285.577 565.552 287.764C565.552 290.022 565.129 291.997 564.247 293.725C563.365 295.419 562.165 296.759 560.613 297.676C559.061 298.594 557.297 299.052 555.357 299.052C553.84 299.052 552.359 298.77 550.877 298.241V302.615L554.087 302.192C554.122 302.791 554.122 303.638 554.122 304.767C554.122 305.86 554.122 306.707 554.087 307.236H542.799L542.764 304.767L542.799 302.192L545.127 302.544V275.77C546.15 275.664 547.138 275.594 548.161 275.594C549.219 275.594 550.242 275.664 551.23 275.77L550.63 279.792C552.888 278.098 555.145 277.216 557.438 277.216C559.061 277.216 560.472 277.604 561.672 278.451ZM554.511 294.184C556.204 294.184 557.509 293.62 558.426 292.526C559.379 291.397 559.837 289.81 559.837 287.729C559.837 286 559.484 284.66 558.779 283.707C558.073 282.755 557.05 282.296 555.71 282.296C554.264 282.296 552.641 282.755 550.842 283.637V293.584C552.323 293.972 553.523 294.184 554.511 294.184Z" fill="white"/>
<path d="M582.097 299.191V286.316L572.996 299.191H567.916V277.85H573.525V290.725L582.626 277.85H587.706V299.191H582.097Z" fill="white"/>
<path d="M605.764 283.141H599.767C599.697 287.409 599.415 290.655 598.85 292.948C598.286 295.241 597.333 296.899 595.993 297.886C594.617 298.909 592.677 299.403 590.102 299.438L589.749 294.147C591.231 294.041 592.254 293.653 592.818 293.054C593.382 292.454 593.735 291.113 593.912 289.032C594.088 286.951 594.194 283.212 594.229 277.814H611.549V299.156H605.764V283.141Z" fill="white"/>
<path d="M619.523 298.453C617.865 297.536 616.595 296.195 615.714 294.502C614.832 292.809 614.373 290.798 614.373 288.505C614.373 286.177 614.832 284.166 615.714 282.473C616.595 280.78 617.901 279.475 619.523 278.557C621.146 277.64 623.086 277.182 625.309 277.182C627.496 277.182 629.436 277.64 631.094 278.557C632.752 279.475 634.022 280.78 634.904 282.473C635.785 284.166 636.244 286.177 636.244 288.505C636.244 290.798 635.785 292.774 634.904 294.502C634.022 296.195 632.752 297.536 631.094 298.453C629.436 299.37 627.531 299.829 625.309 299.829C623.086 299.864 621.181 299.37 619.523 298.453ZM621.499 293.267C622.381 294.361 623.651 294.925 625.238 294.925C626.861 294.925 628.131 294.361 629.048 293.267C629.965 292.139 630.424 290.551 630.424 288.47C630.424 286.424 629.965 284.836 629.048 283.778C628.131 282.72 626.861 282.156 625.238 282.156C623.651 282.156 622.416 282.72 621.499 283.813C620.617 284.907 620.158 286.494 620.158 288.576C620.158 290.586 620.617 292.174 621.499 293.267Z" fill="white"/>
<path d="M641.148 287.974C639.313 284.623 638.114 281.236 637.514 277.85H643.335C643.582 279.19 643.899 280.566 644.323 281.977C644.746 283.423 645.24 284.693 645.804 285.857H647.427V277.814H652.718V285.857H654.376C655.434 283.67 656.281 281.025 656.845 277.814H662.631C662.031 281.201 660.796 284.552 658.997 287.939L663.195 299.192H656.987L654.482 290.866H652.753V299.192H647.462V290.866H645.734L643.229 299.192H637.021L641.148 287.974Z" fill="white"/>
<path d="M667.426 287.586C666.298 284.164 665.486 280.919 664.957 277.85C665.592 277.814 666.58 277.814 667.85 277.814C669.155 277.814 670.107 277.814 670.742 277.85C671.801 283.353 673.141 288.15 674.834 292.242H676.457C678.221 287.903 679.561 283.106 680.478 277.85H686.334C685.805 280.919 684.994 284.129 683.865 287.515C682.736 290.902 681.36 294.288 679.702 297.71H678.044C677.48 301.167 676.704 304.483 675.716 307.587L670.425 306.317C671.518 303.672 672.471 300.814 673.282 297.675H671.589C669.931 294.359 668.555 290.972 667.426 287.586Z" fill="white"/>
<path d="M706.937 277.85H717.237C719.636 277.85 721.435 278.308 722.599 279.19C723.763 280.072 724.363 281.307 724.363 282.859C724.363 284.481 723.692 285.892 722.317 287.127C723.551 287.621 724.504 288.362 725.174 289.349C725.809 290.337 726.162 291.537 726.162 292.912C726.162 294.782 725.492 296.334 724.116 297.498C722.74 298.662 720.588 299.262 717.66 299.262H706.972V277.85H706.937ZM717.696 286.316H718.084C718.754 285.61 719.071 284.869 719.071 284.093C719.071 283.458 718.86 282.965 718.401 282.647C717.943 282.33 717.308 282.153 716.461 282.153H712.298V286.281H717.696V286.316ZM717.59 294.853C718.507 294.853 719.212 294.641 719.671 294.218C720.13 293.794 720.377 293.23 720.377 292.489C720.377 291.748 720.13 291.184 719.671 290.831C719.212 290.478 718.472 290.302 717.519 290.302H712.369V294.853H717.59Z" fill="white"/>
<path d="M730.889 296.83C728.807 294.819 727.749 291.997 727.749 288.399C727.749 284.836 728.737 282.085 730.747 280.145C732.758 278.205 735.545 277.217 739.108 277.217C742.177 277.217 744.964 277.816 747.539 278.981C747.609 280.533 747.609 281.732 747.609 282.579C747.609 284.413 747.539 286.036 747.433 287.447L745.422 287.482C744.223 287.482 743.094 287.447 741.965 287.341L742.671 282.649C741.648 282.297 740.554 282.12 739.39 282.12C735.616 282.12 733.711 284.201 733.711 288.364C733.711 290.48 734.275 292.068 735.369 293.126C736.497 294.184 738.261 294.749 740.695 294.749C741.577 294.749 742.565 294.678 743.694 294.537C744.823 294.396 745.951 294.22 747.01 293.937C747.292 295.137 747.539 296.513 747.75 298.1C746.727 298.594 745.563 298.982 744.188 299.299C742.812 299.617 741.365 299.793 739.813 299.793C735.968 299.864 732.97 298.841 730.889 296.83Z" fill="white"/>
<path d="M753.571 296.83C751.56 294.855 750.537 292.068 750.537 288.434C750.537 286.177 750.96 284.201 751.807 282.508C752.654 280.815 753.888 279.51 755.44 278.593C757.028 277.675 758.862 277.217 760.979 277.217C764.012 277.217 766.411 278.134 768.175 280.004C769.939 281.873 770.785 284.378 770.785 287.482C770.785 288.293 770.715 289.14 770.609 289.987C766.376 290.269 761.543 290.41 756.04 290.41C756.287 291.927 756.922 293.02 757.945 293.761C759.003 294.502 760.52 294.855 762.601 294.855C763.483 294.855 764.577 294.784 765.847 294.608C767.117 294.467 768.246 294.255 769.304 294.008C769.657 295.207 769.939 296.618 770.115 298.206C769.022 298.664 767.787 299.052 766.376 299.335C765 299.617 763.554 299.758 762.072 299.758C758.439 299.793 755.582 298.806 753.571 296.83ZM765.353 286.318C765.035 283.355 763.483 281.838 760.697 281.838C757.98 281.838 756.428 283.39 756.005 286.494C758.227 286.494 761.331 286.424 765.353 286.318Z" fill="white"/>
<path d="M788.951 287.586C787.822 284.164 787.011 280.919 786.481 277.85C787.116 277.814 788.104 277.814 789.374 277.814C790.679 277.814 791.632 277.814 792.267 277.85C793.325 283.353 794.665 288.15 796.359 292.242H797.981C799.745 287.903 801.086 283.106 802.003 277.85H807.858C807.329 280.919 806.518 284.129 805.389 287.515C804.26 290.902 802.885 294.288 801.227 297.71H799.569C799.004 301.167 798.228 304.483 797.241 307.587L791.949 306.317C793.043 303.672 793.995 300.814 794.806 297.675H793.113C791.455 294.359 790.08 290.972 788.951 287.586Z" fill="white"/>
<path d="M812.34 296.83C810.258 294.819 809.2 291.997 809.2 288.399C809.2 284.836 810.188 282.085 812.199 280.145C814.209 278.205 816.996 277.217 820.559 277.217C823.628 277.217 826.415 277.816 828.99 278.981C829.06 280.533 829.06 281.732 829.06 282.579C829.06 284.413 828.99 286.036 828.884 287.447L826.873 287.482C825.674 287.482 824.545 287.447 823.416 287.341L824.122 282.649C823.099 282.297 822.005 282.12 820.841 282.12C817.067 282.12 815.162 284.201 815.162 288.364C815.162 290.48 815.726 292.068 816.82 293.126C817.949 294.184 819.712 294.749 822.146 294.749C823.028 294.749 824.016 294.678 825.145 294.537C826.274 294.396 827.403 294.22 828.461 293.937C828.743 295.137 828.99 296.513 829.202 298.1C828.179 298.594 827.014 298.982 825.639 299.299C824.263 299.617 822.817 299.793 821.264 299.793C817.419 299.864 814.421 298.841 812.34 296.83Z" fill="white"/>
<path d="M847.017 299.191V286.316L837.916 299.191H832.836V277.85H838.445V290.725L847.546 277.85H852.626V299.191H847.017Z" fill="white"/>
<path d="M871.002 283.141H865.006C864.935 287.409 864.653 290.655 864.088 292.948C863.524 295.241 862.572 296.899 861.231 297.886C859.855 298.909 857.915 299.403 855.34 299.438L854.987 294.147C856.469 294.041 857.492 293.653 858.056 293.054C858.621 292.454 858.973 291.113 859.15 289.032C859.326 286.951 859.432 283.212 859.467 277.814H876.788V299.156H871.002V283.141Z" fill="white"/>
<path d="M895.237 299.191V286.316L886.136 299.191H881.057V277.85H886.666V290.725L895.767 277.85H900.846V299.191H895.237Z" fill="white"/>
<path d="M908.537 291.431C906.315 290.231 905.186 288.15 905.186 285.187C905.186 283 905.891 281.236 907.338 279.896C908.784 278.52 911.077 277.85 914.252 277.85H923.882V283.141L922.683 282.929L922.753 285.363V299.191H916.968V292.524H913.899L910.089 299.191H903.669L908.537 291.431ZM911.006 287.198C911.5 287.621 912.241 287.833 913.334 287.833H916.968V282.612H913.334C912.276 282.612 911.535 282.823 911.042 283.247C910.548 283.67 910.301 284.34 910.301 285.258C910.301 286.139 910.548 286.774 911.006 287.198Z" fill="white"/>
<path d="M929.88 302.932C930.515 301.874 930.938 300.816 931.22 299.687L927.305 298.629C927.305 296.971 927.657 295.736 928.328 294.854C928.998 293.972 929.986 293.549 931.256 293.549C932.561 293.549 933.513 293.937 934.148 294.713C934.783 295.489 935.065 296.547 935.065 297.888C935.065 299.546 934.642 301.239 933.76 303.038C932.878 304.837 931.785 306.354 930.409 307.624L927.622 305.754C928.504 304.908 929.245 303.955 929.88 302.932Z" fill="white"/>
<path d="M434.36 282.544H423.53V278.629L417.568 287.448V299.194H423.53V287.836H434.36V299.194H440.321V271.221H434.36V282.544Z" fill="white"/>
<path d="M389.983 329.987C390.865 331.01 392.276 331.539 394.216 331.539C396.121 331.539 398.343 330.798 400.848 329.281V338.488H406.562V317.146H400.848V325.507C399.542 325.754 398.343 325.86 397.214 325.86C396.156 325.86 395.415 325.577 394.992 324.978C394.604 324.378 394.392 323.426 394.392 322.05V321.344L389.312 328.893C389.489 329.317 389.701 329.669 389.983 329.987Z" fill="white"/>
<path d="M414.993 322.332H408.891L408.855 317.111H427.199V322.332H420.99V338.488H414.993V322.332Z" fill="white"/>
<path d="M433.197 337.748C431.539 336.831 430.269 335.49 429.387 333.797C428.505 332.104 428.047 330.093 428.047 327.8C428.047 325.472 428.505 323.461 429.387 321.768C430.269 320.075 431.574 318.769 433.197 317.852C434.82 316.935 436.76 316.477 438.982 316.477C441.169 316.477 443.11 316.935 444.768 317.852C446.426 318.769 447.695 320.075 448.577 321.768C449.459 323.461 449.918 325.472 449.918 327.8C449.918 330.093 449.459 332.068 448.577 333.797C447.695 335.49 446.426 336.831 444.768 337.748C443.11 338.665 441.205 339.124 438.982 339.124C436.76 339.124 434.855 338.665 433.197 337.748ZM435.208 332.527C436.09 333.621 437.36 334.185 438.947 334.185C440.57 334.185 441.84 333.621 442.757 332.527C443.674 331.398 444.133 329.811 444.133 327.73C444.133 325.684 443.674 324.096 442.757 323.038C441.84 321.98 440.57 321.415 438.947 321.415C437.36 321.415 436.125 321.98 435.208 323.073C434.326 324.167 433.867 325.754 433.867 327.835C433.867 329.846 434.291 331.433 435.208 332.527Z" fill="white"/>
<path d="M454.432 335.703C452.703 333.41 451.821 329.953 451.821 325.332C451.821 322.157 452.068 319.547 452.562 317.536C453.056 315.525 454.044 313.867 455.49 312.527C456.936 311.186 459.123 310.269 461.981 309.705C464.344 309.246 466.919 308.893 469.706 308.646L470.129 314.044C466.955 314.326 464.591 314.643 463.11 314.961C461.769 315.208 460.746 315.561 460.041 315.949C459.335 316.337 458.771 316.936 458.383 317.712C457.995 318.524 457.748 319.653 457.607 321.134C460.005 319.829 462.616 319.194 465.402 319.194C468.013 319.194 469.988 320.005 471.399 321.593C472.775 323.215 473.481 325.402 473.481 328.26C473.481 331.576 472.599 334.221 470.8 336.197C469.001 338.172 466.284 339.16 462.651 339.16C458.912 339.125 456.16 337.996 454.432 335.703ZM458.665 332.246C459.476 333.622 460.887 334.292 462.792 334.292C464.379 334.292 465.614 333.798 466.461 332.846C467.307 331.893 467.731 330.553 467.731 328.93C467.731 327.307 467.343 326.073 466.567 325.261C465.79 324.45 464.485 324.027 462.651 324.027C461.24 324.027 459.476 324.415 457.395 325.156V325.544C457.43 328.648 457.853 330.87 458.665 332.246Z" fill="white"/>
<path d="M476.444 317.146H481.7V322.967H484.205C486.851 322.967 488.932 323.602 490.378 324.837C491.825 326.071 492.53 328.047 492.53 330.692C492.53 335.913 489.779 338.488 484.24 338.488H476.444V317.146ZM483.852 333.973C486.18 333.973 487.309 332.879 487.309 330.692C487.309 328.541 486.11 327.482 483.746 327.482H481.665V334.008H483.852V333.973ZM495.246 317.146H500.502V338.488H495.246V317.146Z" fill="white"/>
<path d="M522.302 332.315C522.796 331.751 523.184 330.375 523.396 328.188C523.607 326.001 523.748 322.332 523.748 317.146H540.293V333.197H542.409V343.78H537.118L537.506 338.488H524.524L524.912 343.78H519.621V333.197H519.656C520.891 333.162 521.773 332.879 522.302 332.315ZM534.507 333.197V322.438H529.181C529.146 325.084 529.04 327.235 528.863 328.964C528.687 330.692 528.37 332.103 527.981 333.197H534.507Z" fill="white"/>
<path d="M549.395 337.748C547.737 336.831 546.467 335.49 545.586 333.797C544.704 332.104 544.245 330.093 544.245 327.8C544.245 325.472 544.704 323.461 545.586 321.768C546.467 320.075 547.773 318.769 549.395 317.852C551.018 316.935 552.958 316.477 555.181 316.477C557.368 316.477 559.308 316.935 560.966 317.852C562.624 318.769 563.894 320.075 564.776 321.768C565.657 323.461 566.116 325.472 566.116 327.8C566.116 330.093 565.657 332.068 564.776 333.797C563.894 335.49 562.624 336.831 560.966 337.748C559.308 338.665 557.403 339.124 555.181 339.124C552.958 339.124 551.053 338.665 549.395 337.748ZM551.406 332.527C552.288 333.621 553.558 334.185 555.145 334.185C556.768 334.185 558.038 333.621 558.955 332.527C559.872 331.398 560.331 329.811 560.331 327.73C560.331 325.684 559.872 324.096 558.955 323.038C558.038 321.98 556.768 321.415 555.145 321.415C553.558 321.415 552.323 321.98 551.406 323.073C550.524 324.167 550.066 325.754 550.066 327.835C550.066 329.846 550.489 331.433 551.406 332.527Z" fill="white"/>
<path d="M571.336 335.703C569.607 333.41 568.726 329.953 568.726 325.332C568.726 322.157 568.973 319.547 569.466 317.536C569.96 315.525 570.948 313.867 572.394 312.527C573.841 311.186 576.028 310.269 578.885 309.705C581.248 309.246 583.824 308.893 586.61 308.646L587.034 314.044C583.859 314.326 581.495 314.643 580.014 314.961C578.673 315.208 577.65 315.561 576.945 315.949C576.239 316.337 575.675 316.936 575.287 317.712C574.899 318.524 574.652 319.653 574.511 321.134C576.91 319.829 579.52 319.194 582.307 319.194C584.917 319.194 586.893 320.005 588.304 321.593C589.679 323.215 590.385 325.402 590.385 328.26C590.385 331.576 589.503 334.221 587.704 336.197C585.905 338.172 583.189 339.16 579.555 339.16C575.816 339.125 573.064 337.996 571.336 335.703ZM575.569 332.246C576.38 333.622 577.791 334.292 579.696 334.292C581.284 334.292 582.518 333.798 583.365 332.846C584.212 331.893 584.635 330.553 584.635 328.93C584.635 327.307 584.247 326.073 583.471 325.261C582.695 324.45 581.39 324.027 579.555 324.027C578.144 324.027 576.38 324.415 574.299 325.156V325.544C574.334 328.648 574.722 330.87 575.569 332.246Z" fill="white"/>
<path d="M607.74 338.488V325.613L598.639 338.488H593.56V317.146H599.168V330.022L608.27 317.146H613.349V338.488H607.74Z" fill="white"/>
<path d="M622.908 322.332H616.77L616.734 317.111H635.078V322.332H628.869V338.488H622.872V322.332H622.908Z" fill="white"/>
<path d="M661.783 336.125C659.702 334.114 658.644 331.292 658.644 327.694C658.644 324.131 659.631 321.38 661.642 319.44C663.653 317.499 666.44 316.512 670.002 316.512C673.071 316.512 675.858 317.111 678.433 318.276C678.504 319.828 678.504 321.027 678.504 321.874C678.504 323.708 678.433 325.331 678.327 326.742L676.317 326.777C675.117 326.777 673.989 326.742 672.86 326.636L673.565 321.944C672.542 321.591 671.449 321.415 670.285 321.415C666.51 321.415 664.605 323.496 664.605 327.659C664.605 329.775 665.17 331.363 666.263 332.421C667.392 333.479 669.156 334.044 671.59 334.044C672.472 334.044 673.459 333.973 674.588 333.832C675.717 333.691 676.846 333.515 677.904 333.232C678.186 334.432 678.433 335.808 678.645 337.395C677.622 337.889 676.458 338.277 675.082 338.594C673.706 338.912 672.26 339.088 670.708 339.088C666.828 339.123 663.864 338.136 661.783 336.125Z" fill="white"/>
<path d="M685.735 330.728C683.513 329.528 682.384 327.447 682.384 324.484C682.384 322.297 683.09 320.533 684.536 319.192C685.982 317.817 688.275 317.146 691.45 317.146H701.08V322.438L699.881 322.226L699.951 324.66V338.488H694.166V331.786H691.097L687.287 338.453H680.867L685.735 330.728ZM688.24 326.495C688.734 326.918 689.474 327.13 690.568 327.13H694.201V321.909H690.568C689.51 321.909 688.769 322.12 688.275 322.544C687.781 322.967 687.534 323.637 687.534 324.554C687.499 325.436 687.746 326.071 688.24 326.495Z" fill="white"/>
<path d="M723.091 327.236C721.257 323.884 720.057 320.498 719.458 317.111H725.278C725.525 318.452 725.843 319.828 726.266 321.239C726.689 322.685 727.183 323.955 727.748 325.119H729.37V317.076H734.662V325.119H736.32C737.378 322.932 738.224 320.286 738.789 317.076H744.574C743.974 320.463 742.74 323.814 740.941 327.2L745.138 338.453H738.93L736.425 330.128H734.697V338.489H729.406V330.163H727.677L725.172 338.489H718.964L723.091 327.236Z" fill="white"/>
<path d="M749.126 336.125C747.115 334.15 746.092 331.363 746.092 327.729C746.092 325.472 746.515 323.496 747.362 321.803C748.208 320.11 749.443 318.805 750.995 317.887C752.583 316.97 754.417 316.512 756.533 316.512C759.567 316.512 761.966 317.429 763.73 319.299C765.493 321.168 766.34 323.673 766.34 326.777C766.34 327.588 766.27 328.435 766.164 329.282C761.931 329.564 757.098 329.705 751.595 329.705C751.842 331.222 752.477 332.315 753.5 333.056C754.558 333.797 756.075 334.15 758.156 334.15C759.038 334.15 760.132 334.079 761.401 333.903C762.671 333.762 763.8 333.55 764.859 333.303C765.211 334.502 765.493 335.913 765.67 337.501C764.576 337.959 763.342 338.347 761.931 338.63C760.555 338.912 759.109 339.053 757.627 339.053C753.994 339.088 751.171 338.1 749.126 336.125ZM760.943 325.578C760.625 322.614 759.073 321.098 756.286 321.098C753.57 321.098 752.018 322.65 751.595 325.754C753.782 325.754 756.886 325.719 760.943 325.578Z" fill="white"/>
<path d="M783.59 322.438H777.594C777.523 326.706 777.241 329.952 776.676 332.245C776.112 334.538 775.159 336.196 773.819 337.183C772.443 338.206 770.503 338.7 767.928 338.735L767.575 333.444C769.057 333.338 770.08 332.95 770.644 332.35C771.209 331.751 771.561 330.41 771.738 328.329C771.914 326.248 772.02 322.509 772.055 317.111H789.376V338.488H783.59V322.438Z" fill="white"/>
<path d="M802.216 338.171C800.84 338.806 799.571 339.088 798.301 339.088C796.466 339.088 795.02 338.523 793.926 337.43C792.833 336.301 792.304 334.714 792.304 332.597C792.304 330.304 792.903 328.329 794.138 326.635C795.796 326.389 797.912 326.283 800.523 326.283C802.216 326.283 803.874 326.318 805.426 326.424V325.648C805.426 324.272 805.179 323.249 804.721 322.649C804.262 322.05 803.38 321.732 802.11 321.732C801.158 321.732 799.959 321.838 798.547 322.085C797.136 322.332 795.761 322.685 794.455 323.178L793.397 318.628C796.89 317.287 800.064 316.617 802.851 316.617C804.685 316.617 806.167 316.829 807.331 317.252C808.495 317.675 809.412 318.487 810.047 319.651C810.682 320.815 811.035 322.438 811.035 324.519V333.444L813.328 333.197C813.399 334.29 813.399 335.172 813.399 335.807C813.399 336.407 813.363 337.254 813.328 338.382C812.164 338.559 810.894 338.629 809.483 338.629C808.284 338.629 807.225 338.559 806.308 338.453L805.673 335.842C804.756 336.76 803.592 337.536 802.216 338.171ZM800.276 334.537C801.052 334.537 801.934 334.396 802.851 334.114C803.804 333.832 804.65 333.444 805.426 332.95V329.881C803.909 329.81 802.534 329.74 801.299 329.74C800.241 329.74 799.218 329.775 798.265 329.881C797.913 330.445 797.736 331.151 797.736 332.103C797.736 333.726 798.583 334.537 800.276 334.537Z" fill="white"/>
<path d="M818.335 336.125C816.325 334.15 815.302 331.363 815.302 327.729C815.302 325.472 815.725 323.496 816.572 321.803C817.418 320.11 818.653 318.805 820.205 317.887C821.792 316.97 823.627 316.512 825.743 316.512C828.777 316.512 831.176 317.429 832.94 319.299C834.703 321.168 835.55 323.673 835.55 326.777C835.55 327.588 835.479 328.435 835.374 329.282C831.141 329.564 826.308 329.705 820.805 329.705C821.052 331.222 821.687 332.315 822.71 333.056C823.768 333.797 825.285 334.15 827.366 334.15C828.248 334.15 829.341 334.079 830.611 333.903C831.881 333.762 833.01 333.55 834.068 333.303C834.421 334.502 834.703 335.913 834.88 337.501C833.786 337.959 832.552 338.347 831.141 338.63C829.765 338.912 828.318 339.053 826.837 339.053C823.204 339.088 820.346 338.1 818.335 336.125ZM830.118 325.578C829.8 322.614 828.248 321.098 825.461 321.098C822.745 321.098 821.193 322.65 820.769 325.754C822.992 325.754 826.096 325.719 830.118 325.578Z" fill="white"/>
<path d="M848.498 333.55L844.018 326.212V338.488H838.762V317.146H843.63L849.591 326.636L855.553 317.146H860.456V338.488H855.165V326.212L850.685 333.55H848.498Z" fill="white"/>
<path d="M868.427 337.748C866.769 336.831 865.499 335.49 864.617 333.797C863.735 332.104 863.276 330.093 863.276 327.8C863.276 325.472 863.735 323.461 864.617 321.768C865.499 320.075 866.804 318.769 868.427 317.852C870.049 316.935 871.989 316.477 874.212 316.477C876.399 316.477 878.339 316.935 879.997 317.852C881.655 318.769 882.925 320.075 883.807 321.768C884.689 323.461 885.147 325.472 885.147 327.8C885.147 330.093 884.689 332.068 883.807 333.797C882.925 335.49 881.655 336.831 879.997 337.748C878.339 338.665 876.434 339.124 874.212 339.124C871.989 339.124 870.085 338.665 868.427 337.748ZM870.402 332.527C871.284 333.621 872.554 334.185 874.141 334.185C875.764 334.185 877.034 333.621 877.951 332.527C878.868 331.398 879.327 329.811 879.327 327.73C879.327 325.684 878.868 324.096 877.951 323.038C877.034 321.98 875.764 321.415 874.141 321.415C872.554 321.415 871.319 321.98 870.402 323.073C869.52 324.167 869.062 325.754 869.062 327.835C869.062 329.846 869.52 331.433 870.402 332.527Z" fill="white"/>
<path d="M888.43 317.146H904.127V322.791L894.144 322.261V338.488H888.43V317.146Z" fill="white"/>
<path d="M910.017 337.748C908.36 336.831 907.09 335.49 906.208 333.797C905.326 332.104 904.867 330.093 904.867 327.8C904.867 325.472 905.326 323.461 906.208 321.768C907.09 320.075 908.395 318.769 910.017 317.852C911.64 316.935 913.58 316.477 915.803 316.477C917.99 316.477 919.93 316.935 921.588 317.852C923.246 318.769 924.516 320.075 925.398 321.768C926.28 323.461 926.738 325.472 926.738 327.8C926.738 330.093 926.28 332.068 925.398 333.797C924.516 335.49 923.246 336.831 921.588 337.748C919.93 338.665 918.025 339.124 915.803 339.124C913.58 339.124 911.675 338.665 910.017 337.748ZM912.028 332.527C912.91 333.621 914.18 334.185 915.767 334.185C917.39 334.185 918.66 333.621 919.577 332.527C920.494 331.398 920.953 329.811 920.953 327.73C920.953 325.684 920.494 324.096 919.577 323.038C918.66 321.98 917.39 321.415 915.767 321.415C914.18 321.415 912.945 321.98 912.028 323.073C911.146 324.167 910.688 325.754 910.688 327.835C910.688 329.846 911.111 331.433 912.028 332.527Z" fill="white"/>
<path d="M637.725 317.111H643.51V323.108H648.237C651.024 323.108 653.175 323.743 654.657 325.048C656.174 326.354 656.915 328.258 656.915 330.798C656.915 333.162 656.209 335.067 654.833 336.442C653.458 337.818 651.271 338.524 648.307 338.524H637.689V317.111H637.725ZM647.884 333.797C648.942 333.797 649.754 333.55 650.318 333.021C650.883 332.527 651.2 331.751 651.2 330.798C651.2 329.74 650.918 328.999 650.318 328.541C649.754 328.082 648.907 327.835 647.814 327.835H643.51V333.797H647.884Z" fill="white"/>
</svg>
