<svg width="1000" height="568" viewBox="0 0 1000 568" fill="none" xmlns="http://www.w3.org/2000/svg">
<rect width="1000" height="568" rx="33" fill="#351C75"/>
<path d="M621.523 206.888C628.396 206.888 633.967 201.317 633.967 194.444C633.967 187.571 628.396 182 621.523 182C614.651 182 609.08 187.571 609.08 194.444C609.08 201.317 614.651 206.888 621.523 206.888Z" fill="white"/>
<path d="M488.46 404.472C495.332 404.472 500.903 398.901 500.903 392.028C500.903 385.155 495.332 379.584 488.46 379.584C481.588 379.584 476.017 385.155 476.017 392.028C476.017 398.901 481.588 404.472 488.46 404.472Z" fill="white"/>
<path d="M487 267.329H461.986V296.154H442.433V223.838H461.986V249.425H487V223.838H506.554V296.154H487V267.329Z" fill="white"/>
<path d="M158.142 276.661C159.92 274.756 161.126 270.121 161.888 262.756C162.65 255.392 163.03 242.884 163.157 225.297H219.279V279.645H226.771V315.517H208.868L210.201 297.613H165.633L166.967 315.517H149V279.645H149.127C153.381 279.582 156.364 278.566 158.142 276.661ZM199.852 279.645V243.201H180.87C180.743 252.407 180.426 259.836 179.918 265.55C179.41 271.264 178.394 275.963 177.061 279.645H199.852Z" fill="white"/>
<path d="M370.693 243.201H349.679C349.489 257.487 348.409 268.534 346.505 276.344C344.6 284.153 341.362 289.74 336.728 293.169C332.093 296.597 325.427 298.375 316.603 298.438L315.396 280.534C320.475 280.153 323.967 278.947 325.935 276.851C327.84 274.82 329.11 270.248 329.744 263.264C330.379 256.28 330.76 243.582 330.824 225.297H390.183V297.613H370.629V243.201H370.693Z" fill="white"/>
<path d="M370.442 225.488H389.996V245.742H405.995C415.391 245.742 422.628 247.901 427.77 252.281C432.849 256.662 435.389 263.138 435.389 271.773C435.389 279.836 433.04 286.122 428.342 290.82C423.644 295.455 416.279 297.804 406.312 297.804H370.442V225.488ZM404.852 281.932C408.407 281.932 411.137 281.106 413.105 279.328C415.073 277.614 416.025 275.075 416.025 271.773C416.025 268.218 415.073 265.678 413.105 264.154C411.137 262.567 408.28 261.805 404.598 261.805H390.06V281.932H404.852Z" fill="white"/>
<path d="M269.816 296.281C265.245 298.376 260.928 299.392 256.737 299.392C250.643 299.392 245.754 297.551 242.136 293.805C238.517 290.059 236.676 284.662 236.676 277.615C236.676 269.932 238.707 263.329 242.77 257.742C248.294 256.98 255.404 256.599 264.102 256.599C269.816 256.599 275.275 256.726 280.545 257.043V254.44C280.545 249.806 279.783 246.441 278.196 244.409C276.672 242.377 273.752 241.361 269.498 241.361C266.324 241.361 262.324 241.806 257.563 242.568C252.801 243.393 248.294 244.599 243.913 246.25L240.421 231.012C252.166 226.568 262.705 224.346 272.101 224.346C278.196 224.346 283.211 225.044 287.147 226.504C291.083 227.965 294.131 230.631 296.289 234.504C298.448 238.377 299.527 243.774 299.527 250.758V280.662L307.209 279.773C307.399 283.456 307.526 286.376 307.526 288.471C307.526 290.503 307.399 293.36 307.209 297.043C303.336 297.614 299.019 297.932 294.258 297.932C290.195 297.932 286.639 297.741 283.656 297.36L281.497 288.662C278.259 291.646 274.323 294.186 269.816 296.281ZM263.277 284.154C265.879 284.154 268.8 283.71 271.911 282.757C275.085 281.868 277.942 280.535 280.545 278.884V268.599C275.529 268.281 270.895 268.154 266.768 268.154C263.213 268.154 259.785 268.281 256.61 268.599C255.468 270.44 254.896 272.916 254.896 276.027C254.833 281.424 257.626 284.154 263.277 284.154Z" fill="white"/>
<path d="M534.043 260.408C534.043 250.059 542.423 241.742 552.708 241.742C560.58 241.742 567.31 246.63 570.04 253.487L581.467 236.599C574.611 228.345 564.262 223.012 552.644 223.012C532.011 223.012 515.251 239.773 515.251 260.408C515.251 277.042 526.107 291.137 541.153 295.963L552.581 279.074C542.36 279.074 534.043 270.757 534.043 260.408Z" fill="white"/>
<path d="M653.521 361.675V318.184L623.238 361.675H606.033V289.359H625.016V333.041L655.299 289.359H672.503V361.675H653.521Z" fill="white"/>
<path d="M689.392 340.723C691.17 338.819 692.376 334.184 693.138 326.819C693.9 319.454 694.28 306.946 694.407 289.359H750.529V343.708H758.021V379.58H740.118L741.451 361.675H696.947L698.28 379.58H680.25V343.708H680.377C684.631 343.644 687.614 342.628 689.392 340.723ZM731.102 343.708V307.264H712.12C711.993 316.47 711.676 323.898 711.168 329.613C710.66 335.327 709.644 340.025 708.311 343.708H731.102Z" fill="white"/>
<path d="M784.051 332.851H750.594V361.675H731.04V289.359H750.594V314.946H784.051V289.359H803.605V361.675H784.051V332.851Z" fill="white"/>
<path d="M887.47 325.74C887.47 346.374 870.71 363.136 850.077 363.136C829.444 363.136 812.684 346.374 812.684 325.74C812.684 305.105 829.444 288.344 850.077 288.344C870.71 288.344 887.47 305.105 887.47 325.74ZM868.805 325.74C868.805 315.391 860.425 307.074 850.14 307.074C839.792 307.074 831.475 315.454 831.475 325.74C831.475 336.089 839.856 344.406 850.14 344.406C860.425 344.406 868.805 336.089 868.805 325.74Z" fill="white"/>
<path d="M585.083 320.66C589.718 316.47 592.003 311.645 592.003 306.248C592.003 300.978 589.972 296.788 585.972 293.804C582.099 290.947 576.259 289.423 568.45 289.359L558.482 304.026H564.767C567.815 304.026 570.1 304.597 571.751 305.74C573.338 306.883 574.163 308.534 574.163 310.819C574.163 313.168 573.021 315.581 570.799 317.994H569.338H551.562V314.248L533.342 341.104V361.612H568.767C578.861 361.612 586.226 359.58 590.987 355.58C595.685 351.58 598.034 346.247 598.034 339.708C598.034 335.073 596.955 331.2 594.733 327.962C592.511 324.787 589.273 322.311 585.083 320.66ZM576.068 344.85C574.481 346.247 572.005 347.009 568.64 347.009H551.562V331.581H568.323C575.052 331.581 578.481 334.057 578.481 339.073C578.481 341.485 577.655 343.39 576.068 344.85Z" fill="white"/>
</svg>
