<svg width="1000" height="568" viewBox="0 0 1000 568" fill="none" xmlns="http://www.w3.org/2000/svg">
<rect width="1000" height="568" rx="33" fill="white"/>
<path d="M418.479 225.459C419.824 223.891 420.832 220.305 421.505 214.479C422.065 208.652 422.401 198.791 422.513 184.785H466.997V227.925H472.936V256.385H458.705L459.714 242.155H424.53L425.539 256.385H411.308V227.925H411.42C414.782 227.813 417.135 227.028 418.479 225.459ZM451.646 227.925V199.016H436.632C436.519 206.299 436.295 212.238 435.847 216.72C435.399 221.202 434.615 224.899 433.606 227.925H451.646Z" fill="black"/>
<path d="M616.696 267.14C616.696 283.499 603.474 296.721 587.115 296.721C570.756 296.721 557.534 283.499 557.534 267.14C557.534 250.781 570.756 237.559 587.115 237.559C603.474 237.559 616.696 250.781 616.696 267.14ZM601.906 267.14C601.906 258.96 595.295 252.349 587.115 252.349C578.935 252.349 572.324 258.96 572.324 267.14C572.324 275.32 578.935 281.931 587.115 281.931C595.295 281.931 601.906 275.32 601.906 267.14Z" fill="black"/>
<path d="M506.551 230.389C504.086 231.173 501.733 231.509 499.716 231.509C495.234 231.509 492.993 229.38 492.993 225.01C492.993 222.545 493.441 220.641 494.338 219.184C496.915 218.96 499.604 218.848 502.405 218.848C505.655 218.848 509.352 218.96 513.386 219.184V224.898L528.513 206.746V204.953C528.513 199.463 527.617 195.093 525.936 192.068C524.255 189.042 521.79 186.913 518.653 185.681C515.515 184.56 511.593 184 506.775 184C499.38 184 490.976 185.793 481.676 189.266L484.477 201.368C487.951 200.023 491.536 199.127 495.346 198.455C499.156 197.782 502.293 197.446 504.758 197.446C508.12 197.446 510.473 198.23 511.706 199.911C512.938 201.48 513.498 204.169 513.498 207.867V209.996C509.352 209.772 504.983 209.66 500.5 209.66C493.553 209.66 487.951 209.996 483.581 210.556C480.331 215.038 478.763 220.304 478.763 226.355C478.763 231.958 480.219 236.216 483.133 239.241C486.046 242.154 489.856 243.723 494.674 243.723C495.906 243.723 497.027 243.611 498.259 243.387L509.913 229.38C508.68 229.605 507.672 230.053 506.551 230.389Z" fill="black"/>
<path d="M535.571 258.736H515.738V246.299L500.275 265.011V295.825H515.738V272.967H535.571V295.825H551.034V238.455H535.571V258.736Z" fill="black"/>
<path d="M493.406 327.815H486.45V342.455H481.168V322.988H498.687V342.455H493.406V327.815Z" fill="black"/>
<path d="M517.238 323.534C518.333 324.274 519.203 325.4 519.847 326.848C520.459 328.296 520.781 330.034 520.781 332.028C520.781 334.088 520.394 335.89 519.589 337.466C518.784 339.011 517.689 340.233 516.272 341.07C514.855 341.907 513.245 342.325 511.474 342.325C510.089 342.325 508.736 342.067 507.384 341.585V345.575L510.314 345.188C510.346 345.735 510.346 346.508 510.346 347.537C510.346 348.535 510.346 349.307 510.314 349.79H500.009L499.977 347.537L500.009 345.188L502.134 345.51V321.089C503.068 320.992 503.97 320.928 504.904 320.928C505.87 320.928 506.804 320.992 507.706 321.089L507.158 324.757C509.219 323.212 511.28 322.408 513.374 322.408C514.855 322.408 516.143 322.762 517.238 323.534ZM510.701 337.885C512.247 337.885 513.438 337.37 514.275 336.372C515.145 335.343 515.564 333.895 515.564 331.996C515.564 330.42 515.242 329.197 514.597 328.328C513.953 327.459 513.019 327.041 511.796 327.041C510.475 327.041 508.994 327.459 507.351 328.264V337.338C508.704 337.691 509.799 337.885 510.701 337.885Z" fill="black"/>
<path d="M535.885 342.455V330.711L527.576 342.455H522.938V322.988H528.059V334.733L536.368 322.988H541.005V342.455H535.885Z" fill="black"/>
<path d="M557.494 327.814H552.019C551.955 331.707 551.697 334.667 551.182 336.759C550.667 338.85 549.797 340.362 548.573 341.263C547.317 342.196 545.546 342.647 543.195 342.679L542.873 337.853C544.226 337.756 545.16 337.402 545.675 336.855C546.19 336.308 546.512 335.085 546.673 333.187C546.834 331.289 546.931 327.878 546.963 322.955H562.776V342.422H557.494V327.814Z" fill="black"/>
<path d="M570.053 341.779C568.54 340.943 567.38 339.72 566.575 338.175C565.77 336.631 565.352 334.797 565.352 332.705C565.352 330.582 565.77 328.748 566.575 327.203C567.38 325.659 568.572 324.468 570.053 323.632C571.535 322.795 573.306 322.377 575.335 322.377C577.332 322.377 579.103 322.795 580.617 323.632C582.13 324.468 583.29 325.659 584.095 327.203C584.9 328.748 585.318 330.582 585.318 332.705C585.318 334.797 584.9 336.599 584.095 338.175C583.29 339.72 582.13 340.943 580.617 341.779C579.103 342.616 577.364 343.034 575.335 343.034C573.306 343.066 571.567 342.616 570.053 341.779ZM571.857 337.049C572.662 338.047 573.821 338.562 575.271 338.562C576.752 338.562 577.911 338.047 578.749 337.049C579.586 336.02 580.005 334.572 580.005 332.673C580.005 330.807 579.586 329.359 578.749 328.394C577.911 327.429 576.752 326.914 575.271 326.914C573.821 326.914 572.694 327.429 571.857 328.426C571.052 329.424 570.633 330.871 570.633 332.77C570.633 334.604 571.052 336.052 571.857 337.049Z" fill="black"/>
<path d="M589.795 332.222C588.121 329.165 587.026 326.076 586.478 322.987H591.792C592.017 324.21 592.307 325.465 592.694 326.752C593.08 328.071 593.531 329.229 594.046 330.291H595.528V322.955H600.358V330.291H601.872C602.838 328.296 603.611 325.883 604.126 322.955H609.408C608.86 326.044 607.733 329.101 606.091 332.19L609.923 342.454H604.255L601.969 334.86H600.391V342.454H595.56V334.86H593.982L591.695 342.454H586.027L589.795 332.222Z" fill="black"/>
<path d="M613.787 331.868C612.756 328.747 612.016 325.787 611.533 322.987C612.112 322.955 613.014 322.955 614.174 322.955C615.365 322.955 616.235 322.955 616.814 322.987C617.78 328.007 619.004 332.383 620.55 336.115H622.031C623.642 332.157 624.865 327.781 625.703 322.987H631.049C630.566 325.787 629.825 328.715 628.794 331.803C627.764 334.892 626.508 337.981 624.994 341.102H623.481C622.965 344.256 622.257 347.28 621.355 350.112L616.524 348.953C617.523 346.54 618.392 343.934 619.133 341.07H617.587C616.074 338.046 614.818 334.957 613.787 331.868Z" fill="black"/>
<path d="M650.5 322.988H659.904C662.094 322.988 663.737 323.407 664.799 324.211C665.862 325.015 666.41 326.142 666.41 327.557C666.41 329.037 665.798 330.324 664.542 331.451C665.669 331.901 666.538 332.577 667.15 333.478C667.73 334.379 668.052 335.473 668.052 336.727C668.052 338.433 667.44 339.849 666.184 340.91C664.928 341.972 662.964 342.519 660.291 342.519H650.533V322.988H650.5ZM660.323 330.711H660.677C661.289 330.067 661.579 329.391 661.579 328.683C661.579 328.104 661.386 327.654 660.967 327.364C660.548 327.075 659.969 326.914 659.196 326.914H655.396V330.678H660.323V330.711ZM660.226 338.497C661.064 338.497 661.708 338.304 662.126 337.918C662.545 337.532 662.77 337.017 662.77 336.341C662.77 335.666 662.545 335.151 662.126 334.829C661.708 334.507 661.031 334.346 660.162 334.346H655.46V338.497H660.226Z" fill="black"/>
<path d="M672.368 340.3C670.468 338.466 669.501 335.892 669.501 332.61C669.501 329.36 670.403 326.85 672.239 325.081C674.075 323.311 676.619 322.41 679.871 322.41C682.673 322.41 685.217 322.957 687.568 324.019C687.633 325.435 687.633 326.529 687.633 327.301C687.633 328.974 687.568 330.454 687.472 331.741L685.636 331.773C684.541 331.773 683.511 331.741 682.48 331.645L683.124 327.365C682.19 327.044 681.192 326.883 680.129 326.883C676.683 326.883 674.944 328.781 674.944 332.578C674.944 334.508 675.459 335.956 676.458 336.922C677.488 337.887 679.098 338.402 681.321 338.402C682.126 338.402 683.027 338.337 684.058 338.209C685.089 338.08 686.119 337.919 687.085 337.662C687.343 338.756 687.568 340.01 687.762 341.458C686.828 341.909 685.765 342.263 684.509 342.552C683.253 342.842 681.932 343.003 680.515 343.003C677.005 343.067 674.268 342.134 672.368 340.3Z" fill="black"/>
<path d="M693.719 340.3C691.884 338.498 690.95 335.956 690.95 332.642C690.95 330.583 691.336 328.781 692.109 327.237C692.882 325.692 694.009 324.502 695.426 323.665C696.875 322.828 698.55 322.41 700.482 322.41C703.252 322.41 705.442 323.247 707.052 324.952C708.662 326.657 709.435 328.942 709.435 331.773C709.435 332.513 709.371 333.286 709.274 334.058C705.41 334.315 700.998 334.444 695.974 334.444C696.199 335.828 696.779 336.825 697.713 337.501C698.679 338.176 700.064 338.498 701.964 338.498C702.769 338.498 703.767 338.434 704.927 338.273C706.086 338.144 707.116 337.951 708.083 337.726C708.405 338.82 708.662 340.107 708.823 341.555C707.825 341.973 706.698 342.327 705.41 342.585C704.154 342.842 702.833 342.971 701.481 342.971C698.164 343.003 695.555 342.102 693.719 340.3ZM704.476 330.712C704.186 328.009 702.769 326.625 700.225 326.625C697.745 326.625 696.328 328.041 695.941 330.872C697.97 330.872 700.804 330.808 704.476 330.712Z" fill="black"/>
<path d="M725.699 331.868C724.669 328.747 723.928 325.787 723.445 322.987C724.025 322.955 724.926 322.955 726.086 322.955C727.277 322.955 728.147 322.955 728.726 322.987C729.693 328.007 730.916 332.383 732.462 336.115H733.944C735.554 332.157 736.778 327.781 737.615 322.987H742.961C742.478 325.787 741.737 328.715 740.707 331.803C739.676 334.892 738.42 337.981 736.906 341.102H735.393C734.877 344.256 734.169 347.28 733.267 350.112L728.437 348.953C729.435 346.54 730.304 343.934 731.045 341.07H729.499C727.986 338.046 726.73 334.957 725.699 331.868Z" fill="black"/>
<path d="M747.05 340.3C745.15 338.466 744.184 335.892 744.184 332.61C744.184 329.36 745.086 326.85 746.921 325.081C748.757 323.311 751.301 322.41 754.554 322.41C757.356 322.41 759.9 322.957 762.251 324.019C762.315 325.435 762.315 326.529 762.315 327.301C762.315 328.974 762.251 330.454 762.154 331.741L760.319 331.773C759.224 331.773 758.193 331.741 757.163 331.645L757.807 327.365C756.873 327.044 755.874 326.883 754.812 326.883C751.366 326.883 749.627 328.781 749.627 332.578C749.627 334.508 750.142 335.956 751.14 336.922C752.171 337.887 753.781 338.402 756.003 338.402C756.808 338.402 757.71 338.337 758.741 338.209C759.771 338.08 760.802 337.919 761.768 337.662C762.025 338.756 762.251 340.01 762.444 341.458C761.51 341.909 760.447 342.263 759.191 342.552C757.935 342.842 756.615 343.003 755.198 343.003C751.688 343.067 748.95 342.134 747.05 340.3Z" fill="black"/>
<path d="M778.708 342.455V330.711L770.399 342.455H765.762V322.988H770.882V334.733L779.191 322.988H783.829V342.455H778.708Z" fill="black"/>
<path d="M800.607 327.814H795.132C795.068 331.707 794.81 334.667 794.295 336.759C793.78 338.85 792.91 340.362 791.687 341.263C790.431 342.196 788.659 342.647 786.308 342.679L785.986 337.853C787.339 337.756 788.273 337.402 788.788 336.855C789.303 336.308 789.625 335.085 789.786 333.187C789.948 331.289 790.044 327.878 790.076 322.955H805.889V342.422H800.607V327.814Z" fill="black"/>
<path d="M822.731 342.455V330.711L814.423 342.455H809.785V322.988H814.906V334.733L823.214 322.988H827.852V342.455H822.731Z" fill="black"/>
<path d="M835.195 335.376C833.166 334.282 832.136 332.384 832.136 329.681C832.136 327.686 832.78 326.077 834.1 324.854C835.421 323.6 837.514 322.988 840.412 322.988H849.204V327.815L848.109 327.622L848.174 329.842V342.455H842.892V336.374H840.09L836.612 342.455H830.751L835.195 335.376ZM837.45 331.515C837.9 331.901 838.577 332.094 839.575 332.094H842.892V327.332H839.575C838.609 327.332 837.933 327.525 837.482 327.911C837.031 328.297 836.805 328.909 836.805 329.745C836.805 330.55 837.031 331.129 837.45 331.515Z" fill="black"/>
<path d="M853.391 345.867C853.97 344.902 854.357 343.937 854.614 342.907L851.04 341.942C851.04 340.43 851.362 339.304 851.973 338.499C852.585 337.695 853.487 337.309 854.646 337.309C855.838 337.309 856.708 337.663 857.287 338.37C857.867 339.078 858.125 340.044 858.125 341.266C858.125 342.779 857.738 344.323 856.933 345.964C856.128 347.605 855.13 348.989 853.874 350.147L851.329 348.442C852.134 347.669 852.811 346.801 853.391 345.867Z" fill="black"/>
<path d="M456.564 327.331H458.207V332.093H454.889C454.02 332.093 453.376 331.932 452.957 331.643L450.059 335.085C450.22 335.182 450.349 335.279 450.51 335.343L446.065 342.422H451.927L455.405 336.34H458.207V342.422H463.488V329.809L463.424 327.588L464.519 327.781V322.955H460.236L456.564 327.331Z" fill="black"/>
<path d="M421.042 370.864C421.847 371.798 423.135 372.28 424.907 372.28C426.646 372.28 428.675 371.604 430.961 370.221V378.619H436.178V359.152H430.961V366.778C429.77 367.003 428.675 367.1 427.644 367.1C426.678 367.1 426.002 366.842 425.615 366.295C425.358 365.941 425.197 365.427 425.132 364.751L420.559 370.189C420.688 370.414 420.849 370.671 421.042 370.864Z" fill="black"/>
<path d="M443.876 363.881H438.305L438.272 359.119H455.019V363.881H449.351V378.618H443.876V363.881Z" fill="black"/>
<path d="M460.493 377.943C458.979 377.107 457.82 375.884 457.015 374.339C456.21 372.795 455.791 370.961 455.791 368.87C455.791 366.746 456.21 364.912 457.015 363.367C457.82 361.823 459.011 360.632 460.493 359.796C461.974 358.959 463.746 358.541 465.774 358.541C467.771 358.541 469.542 358.959 471.056 359.796C472.57 360.632 473.729 361.823 474.534 363.367C475.339 364.912 475.758 366.746 475.758 368.87C475.758 370.961 475.339 372.763 474.534 374.339C473.729 375.884 472.57 377.107 471.056 377.943C469.542 378.78 467.803 379.198 465.774 379.198C463.746 379.198 462.007 378.78 460.493 377.943ZM462.329 373.181C463.134 374.179 464.293 374.693 465.742 374.693C467.224 374.693 468.383 374.179 469.22 373.181C470.058 372.151 470.476 370.704 470.476 368.805C470.476 366.939 470.058 365.491 469.22 364.526C468.383 363.56 467.224 363.046 465.742 363.046C464.293 363.046 463.166 363.56 462.329 364.558C461.523 365.555 461.105 367.003 461.105 368.902C461.105 370.736 461.491 372.184 462.329 373.181Z" fill="black"/>
<path d="M479.88 376.076C478.302 373.984 477.497 370.831 477.497 366.616C477.497 363.72 477.722 361.339 478.173 359.505C478.624 357.671 479.526 356.159 480.846 354.936C482.167 353.713 484.163 352.877 486.772 352.362C488.93 351.943 491.281 351.622 493.825 351.396L494.211 356.319C491.313 356.577 489.155 356.866 487.803 357.156C486.579 357.381 485.645 357.703 485.001 358.057C484.357 358.411 483.841 358.958 483.487 359.666C483.133 360.406 482.907 361.435 482.779 362.787C484.969 361.596 487.352 361.017 489.896 361.017C492.279 361.017 494.082 361.757 495.371 363.205C496.627 364.685 497.271 366.68 497.271 369.286C497.271 372.311 496.466 374.724 494.823 376.526C493.181 378.328 490.701 379.229 487.384 379.229C483.97 379.197 481.458 378.167 479.88 376.076ZM483.745 372.922C484.485 374.177 485.774 374.788 487.513 374.788C488.962 374.788 490.089 374.338 490.862 373.469C491.635 372.601 492.021 371.378 492.021 369.898C492.021 368.418 491.667 367.291 490.959 366.551C490.25 365.811 489.059 365.425 487.384 365.425C486.096 365.425 484.485 365.779 482.585 366.455V366.809C482.618 369.64 483.004 371.667 483.745 372.922Z" fill="black"/>
<path d="M499.654 359.152H504.452V364.461H506.739C509.154 364.461 511.054 365.041 512.375 366.167C513.695 367.293 514.339 369.095 514.339 371.508C514.339 376.27 511.827 378.619 506.771 378.619H499.654V359.152ZM506.417 374.5C508.542 374.5 509.573 373.503 509.573 371.508C509.573 369.545 508.478 368.58 506.32 368.58H504.42V374.532H506.417V374.5ZM516.819 359.152H521.617V378.619H516.819V359.152Z" fill="black"/>
<path d="M541.843 372.988C542.293 372.473 542.648 371.218 542.841 369.223C543.034 367.229 543.163 363.882 543.163 359.152H558.267V373.792H560.199V383.445H555.369L555.723 378.619H543.871L544.226 383.445H539.395V373.792H539.427C540.554 373.76 541.359 373.503 541.843 372.988ZM552.985 373.792V363.979H548.122C548.09 366.392 547.994 368.355 547.833 369.931C547.672 371.508 547.382 372.795 547.028 373.792H552.985Z" fill="black"/>
<path d="M566.575 377.943C565.062 377.107 563.902 375.884 563.097 374.339C562.292 372.795 561.874 370.961 561.874 368.87C561.874 366.746 562.292 364.912 563.097 363.367C563.902 361.823 565.094 360.632 566.575 359.796C568.057 358.959 569.828 358.541 571.857 358.541C573.854 358.541 575.625 358.959 577.139 359.796C578.652 360.632 579.812 361.823 580.617 363.367C581.422 364.912 581.84 366.746 581.84 368.87C581.84 370.961 581.422 372.763 580.617 374.339C579.812 375.884 578.652 377.107 577.139 377.943C575.625 378.78 573.886 379.198 571.857 379.198C569.828 379.198 568.089 378.78 566.575 377.943ZM568.411 373.181C569.216 374.179 570.376 374.693 571.825 374.693C573.306 374.693 574.466 374.179 575.303 373.181C576.14 372.151 576.559 370.704 576.559 368.805C576.559 366.939 576.14 365.491 575.303 364.526C574.466 363.56 573.306 363.046 571.825 363.046C570.376 363.046 569.248 363.56 568.411 364.558C567.606 365.555 567.187 367.003 567.187 368.902C567.187 370.736 567.574 372.184 568.411 373.181Z" fill="black"/>
<path d="M586.607 376.076C585.029 373.984 584.224 370.831 584.224 366.616C584.224 363.72 584.449 361.339 584.9 359.505C585.351 357.671 586.252 356.159 587.573 354.936C588.893 353.713 590.89 352.877 593.499 352.362C595.656 351.943 598.007 351.622 600.551 351.396L600.938 356.319C598.039 356.577 595.882 356.866 594.529 357.156C593.305 357.381 592.371 357.703 591.727 358.057C591.083 358.411 590.568 358.958 590.214 359.666C589.859 360.406 589.634 361.435 589.505 362.787C591.695 361.596 594.078 361.017 596.622 361.017C599.006 361.017 600.809 361.757 602.097 363.205C603.353 364.685 603.997 366.68 603.997 369.286C603.997 372.311 603.192 374.724 601.55 376.526C599.907 378.328 597.428 379.229 594.11 379.229C590.697 379.197 588.185 378.167 586.607 376.076ZM590.471 372.922C591.212 374.177 592.5 374.788 594.239 374.788C595.688 374.788 596.816 374.338 597.589 373.469C598.361 372.601 598.748 371.378 598.748 369.898C598.748 368.418 598.394 367.291 597.685 366.551C596.977 365.811 595.785 365.425 594.11 365.425C592.822 365.425 591.212 365.779 589.312 366.455V366.809C589.344 369.64 589.698 371.667 590.471 372.922Z" fill="black"/>
<path d="M619.841 378.619V366.875L611.533 378.619H606.895V359.152H612.016V370.897L620.324 359.152H624.962V378.619H619.841Z" fill="black"/>
<path d="M634.334 363.881H628.73L628.698 359.119H645.445V363.881H639.777V378.618H634.302V363.881H634.334Z" fill="black"/>
<path d="M649.856 376.464C647.956 374.63 646.99 372.056 646.99 368.774C646.99 365.524 647.892 363.015 649.728 361.245C651.563 359.475 654.107 358.574 657.36 358.574C660.162 358.574 662.706 359.121 665.057 360.183C665.121 361.599 665.121 362.693 665.121 363.465C665.121 365.138 665.057 366.618 664.96 367.905L663.125 367.937C662.03 367.937 660.999 367.905 659.969 367.809L660.613 363.529C659.679 363.208 658.681 363.047 657.618 363.047C654.172 363.047 652.433 364.945 652.433 368.742C652.433 370.672 652.948 372.12 653.946 373.086C654.977 374.051 656.587 374.566 658.809 374.566C659.614 374.566 660.516 374.501 661.547 374.373C662.577 374.244 663.608 374.083 664.574 373.826C664.832 374.92 665.057 376.175 665.25 377.622C664.316 378.073 663.254 378.427 661.998 378.716C660.742 379.006 659.421 379.167 658.004 379.167C654.462 379.199 651.757 378.298 649.856 376.464Z" fill="black"/>
<path d="M671.724 371.54C669.695 370.446 668.664 368.548 668.664 365.845C668.664 363.85 669.308 362.241 670.629 361.019C671.949 359.764 674.042 359.152 676.941 359.152H685.733V363.979L684.638 363.786L684.702 366.006V378.619H679.42V372.505H676.619L673.141 378.587H667.279L671.724 371.54ZM674.01 367.679C674.461 368.065 675.137 368.258 676.136 368.258H679.453V363.496H676.136C675.169 363.496 674.493 363.689 674.042 364.075C673.591 364.461 673.366 365.073 673.366 365.909C673.334 366.714 673.559 367.293 674.01 367.679Z" fill="black"/>
<path d="M708.083 368.355C706.408 365.298 705.313 362.209 704.766 359.12H710.08C710.305 360.343 710.595 361.598 710.981 362.885C711.368 364.204 711.819 365.362 712.334 366.424H713.815V359.088H718.646V366.424H720.16C721.126 364.429 721.899 362.016 722.414 359.088H727.696C727.148 362.177 726.021 365.234 724.378 368.322L728.211 378.587H722.543L720.256 370.993H718.678V378.619H713.848V371.025H712.27L709.983 378.619H704.315L708.083 368.355Z" fill="black"/>
<path d="M731.528 376.464C729.692 374.662 728.758 372.12 728.758 368.806C728.758 366.747 729.145 364.945 729.918 363.401C730.691 361.856 731.818 360.666 733.235 359.829C734.684 358.993 736.359 358.574 738.291 358.574C741.06 358.574 743.25 359.411 744.861 361.116C746.471 362.821 747.244 365.106 747.244 367.937C747.244 368.677 747.179 369.45 747.083 370.222C743.218 370.479 738.806 370.608 733.782 370.608C734.008 371.992 734.587 372.989 735.521 373.665C736.487 374.34 737.872 374.662 739.772 374.662C740.577 374.662 741.576 374.598 742.735 374.437C743.895 374.308 744.925 374.115 745.891 373.89C746.213 374.984 746.471 376.271 746.632 377.719C745.634 378.137 744.506 378.491 743.218 378.749C741.962 379.006 740.642 379.135 739.289 379.135C735.972 379.167 733.396 378.266 731.528 376.464ZM742.316 366.843C742.027 364.141 740.61 362.757 738.065 362.757C735.586 362.757 734.169 364.173 733.782 367.004C735.779 367.004 738.613 366.972 742.316 366.843Z" fill="black"/>
<path d="M762.992 363.978H757.517C757.453 367.871 757.195 370.831 756.68 372.923C756.165 375.014 755.295 376.526 754.071 377.427C752.815 378.36 751.044 378.811 748.693 378.843L748.371 374.017C749.724 373.92 750.658 373.566 751.173 373.019C751.688 372.472 752.01 371.25 752.171 369.351C752.332 367.453 752.429 364.042 752.461 359.119H768.274V378.618H762.992V363.978Z" fill="black"/>
<path d="M779.996 378.331C778.74 378.911 777.581 379.168 776.422 379.168C774.747 379.168 773.427 378.653 772.428 377.656C771.43 376.626 770.947 375.178 770.947 373.248C770.947 371.156 771.494 369.354 772.621 367.81C774.135 367.585 776.067 367.488 778.45 367.488C779.996 367.488 781.51 367.52 782.927 367.617V366.909C782.927 365.654 782.702 364.721 782.283 364.174C781.864 363.627 781.059 363.337 779.9 363.337C779.03 363.337 777.935 363.434 776.647 363.659C775.359 363.884 774.103 364.206 772.911 364.657L771.945 360.506C775.133 359.283 778.032 358.672 780.576 358.672C782.251 358.672 783.603 358.865 784.666 359.251C785.729 359.637 786.566 360.377 787.146 361.439C787.725 362.501 788.047 363.981 788.047 365.879V374.02L790.141 373.795C790.205 374.792 790.205 375.596 790.205 376.176C790.205 376.723 790.173 377.495 790.141 378.525C789.078 378.685 787.919 378.75 786.63 378.75C785.536 378.75 784.569 378.685 783.732 378.589L783.152 376.208C782.315 377.044 781.252 377.752 779.996 378.331ZM778.225 375.017C778.934 375.017 779.739 374.889 780.576 374.631C781.446 374.374 782.218 374.02 782.927 373.569V370.77C781.542 370.706 780.286 370.641 779.159 370.641C778.193 370.641 777.259 370.674 776.389 370.77C776.067 371.285 775.906 371.928 775.906 372.797C775.906 374.277 776.679 375.017 778.225 375.017Z" fill="black"/>
<path d="M795.035 376.464C793.199 374.662 792.265 372.12 792.265 368.806C792.265 366.747 792.652 364.945 793.424 363.401C794.197 361.856 795.325 360.666 796.742 359.829C798.191 358.993 799.865 358.574 801.798 358.574C804.567 358.574 806.757 359.411 808.367 361.116C809.978 362.821 810.751 365.106 810.751 367.937C810.751 368.677 810.686 369.45 810.59 370.222C806.725 370.479 802.313 370.608 797.289 370.608C797.514 371.992 798.094 372.989 799.028 373.665C799.994 374.34 801.379 374.662 803.279 374.662C804.084 374.662 805.083 374.598 806.242 374.437C807.401 374.308 808.432 374.115 809.398 373.89C809.72 374.984 809.978 376.271 810.139 377.719C809.14 378.137 808.013 378.491 806.725 378.749C805.469 379.006 804.149 379.135 802.796 379.135C799.479 379.167 796.87 378.266 795.035 376.464ZM805.791 366.843C805.501 364.141 804.084 362.757 801.54 362.757C799.06 362.757 797.643 364.173 797.257 367.004C799.286 367.004 802.12 366.972 805.791 366.843Z" fill="black"/>
<path d="M821.926 374.114L817.836 367.422V378.619H813.038V359.152H817.482L822.924 367.808L828.367 359.152H832.843V378.619H828.013V367.422L823.923 374.114H821.926Z" fill="black"/>
<path d="M840.766 377.943C839.252 377.107 838.093 375.884 837.288 374.339C836.483 372.795 836.064 370.961 836.064 368.87C836.064 366.746 836.483 364.912 837.288 363.367C838.093 361.823 839.284 360.632 840.766 359.796C842.247 358.959 844.019 358.541 846.047 358.541C848.044 358.541 849.815 358.959 851.329 359.796C852.843 360.632 854.002 361.823 854.807 363.367C855.612 364.912 856.031 366.746 856.031 368.87C856.031 370.961 855.612 372.763 854.807 374.339C854.002 375.884 852.843 377.107 851.329 377.943C849.815 378.78 848.076 379.198 846.047 379.198C844.019 379.198 842.279 378.78 840.766 377.943ZM842.569 373.181C843.374 374.179 844.534 374.693 845.983 374.693C847.464 374.693 848.624 374.179 849.461 373.181C850.298 372.151 850.717 370.704 850.717 368.805C850.717 366.939 850.298 365.491 849.461 364.526C848.624 363.56 847.464 363.046 845.983 363.046C844.534 363.046 843.407 363.56 842.569 364.558C841.764 365.555 841.345 367.003 841.345 368.902C841.345 370.736 841.764 372.184 842.569 373.181Z" fill="black"/>
<path d="M858.382 359.152H872.713V364.301L863.599 363.818V378.619H858.382V359.152Z" fill="black"/>
<path d="M878.735 377.943C877.221 377.107 876.062 375.884 875.257 374.339C874.452 372.795 874.033 370.961 874.033 368.87C874.033 366.746 874.452 364.912 875.257 363.367C876.062 361.823 877.254 360.632 878.735 359.796C880.217 358.959 881.988 358.541 884.017 358.541C886.013 358.541 887.785 358.959 889.298 359.796C890.812 360.632 891.971 361.823 892.776 363.367C893.581 364.912 894 366.746 894 368.87C894 370.961 893.581 372.763 892.776 374.339C891.971 375.884 890.812 377.107 889.298 377.943C887.785 378.78 886.046 379.198 884.017 379.198C881.988 379.198 880.249 378.78 878.735 377.943ZM880.571 373.181C881.376 374.179 882.535 374.693 883.984 374.693C885.466 374.693 886.625 374.179 887.463 373.181C888.3 372.151 888.719 370.704 888.719 368.805C888.719 366.939 888.3 365.491 887.463 364.526C886.625 363.56 885.466 363.046 883.984 363.046C882.535 363.046 881.408 363.56 880.571 364.558C879.766 365.555 879.347 367.003 879.347 368.902C879.347 370.736 879.733 372.184 880.571 373.181Z" fill="black"/>
<path d="M237.299 300.749C236.043 300.459 234.98 300.041 234.078 299.526L234.754 295.89C235.721 296.115 236.687 296.308 237.749 296.437C238.78 296.566 239.682 296.63 240.422 296.63C243.868 296.63 245.865 295.246 246.413 292.479L238.812 292.704V288.522L246.348 288.811C246.058 287.588 245.446 286.688 244.48 286.076C243.514 285.465 242.29 285.143 240.809 285.143C240.133 285.143 239.199 285.207 238.007 285.336C236.816 285.465 235.882 285.626 235.141 285.819L234.432 282.151C235.527 281.572 236.719 281.153 238.007 280.896C239.295 280.638 240.583 280.51 241.807 280.51C244.963 280.51 247.443 281.411 249.247 283.213C251.05 285.014 251.952 287.524 251.952 290.742C251.952 294.024 251.018 296.566 249.182 298.432C247.346 300.266 244.706 301.199 241.324 301.199C239.907 301.199 238.555 301.038 237.299 300.749Z" fill="black"/>
<path d="M259.455 285.883H253.884L253.852 281.121H270.598V285.883H264.93V300.62H259.455V285.883Z" fill="black"/>
<path d="M278.005 299.945C276.491 299.109 275.332 297.886 274.527 296.341C273.721 294.797 273.303 292.963 273.303 290.871C273.303 288.748 273.721 286.914 274.527 285.369C275.332 283.825 276.523 282.634 278.005 281.798C279.486 280.961 281.257 280.543 283.286 280.543C285.283 280.543 287.054 280.961 288.568 281.798C290.081 282.634 291.241 283.825 292.046 285.369C292.851 286.914 293.27 288.748 293.27 290.871C293.27 292.963 292.851 294.765 292.046 296.341C291.241 297.886 290.081 299.109 288.568 299.945C287.054 300.782 285.315 301.2 283.286 301.2C281.289 301.2 279.518 300.782 278.005 299.945ZM279.84 295.183C280.645 296.181 281.805 296.695 283.254 296.695C284.735 296.695 285.895 296.181 286.732 295.183C287.569 294.153 287.988 292.706 287.988 290.807C287.988 288.941 287.569 287.493 286.732 286.528C285.895 285.562 284.735 285.048 283.254 285.048C281.805 285.048 280.678 285.562 279.84 286.56C279.035 287.557 278.617 289.005 278.617 290.904C278.617 292.738 279.003 294.186 279.84 295.183Z" fill="black"/>
<path d="M313.076 298.076C311.498 295.984 310.693 292.831 310.693 288.616C310.693 285.72 310.918 283.339 311.369 281.505C311.82 279.671 312.722 278.159 314.042 276.936C315.363 275.713 317.359 274.877 319.968 274.362C322.126 273.943 324.476 273.622 327.021 273.396L327.407 278.319C324.509 278.577 322.351 278.866 320.998 279.156C319.775 279.381 318.841 279.703 318.197 280.057C317.552 280.411 317.037 280.958 316.683 281.666C316.329 282.406 316.103 283.435 315.974 284.787C318.164 283.596 320.548 283.017 323.092 283.017C325.475 283.017 327.278 283.757 328.566 285.205C329.822 286.685 330.467 288.68 330.467 291.286C330.467 294.311 329.661 296.724 328.019 298.526C326.377 300.328 323.897 301.229 320.58 301.229C317.166 301.197 314.686 300.167 313.076 298.076ZM316.941 294.89C317.681 296.145 318.969 296.756 320.709 296.756C322.158 296.756 323.285 296.306 324.058 295.437C324.831 294.568 325.217 293.346 325.217 291.866C325.217 290.385 324.863 289.259 324.154 288.519C323.446 287.779 322.254 287.393 320.58 287.393C319.292 287.393 317.681 287.747 315.781 288.423V288.777C315.813 291.608 316.2 293.667 316.941 294.89Z" fill="black"/>
<path d="M337.1 299.945C335.587 299.109 334.427 297.886 333.622 296.341C332.817 294.797 332.398 292.963 332.398 290.871C332.398 288.748 332.817 286.914 333.622 285.369C334.427 283.825 335.619 282.634 337.1 281.798C338.582 280.961 340.385 280.543 342.382 280.543C344.379 280.543 346.15 280.961 347.663 281.798C349.177 282.634 350.336 283.825 351.142 285.369C351.947 286.914 352.365 288.748 352.365 290.871C352.365 292.963 351.947 294.765 351.142 296.341C350.336 297.886 349.177 299.109 347.663 299.945C346.15 300.782 344.411 301.2 342.382 301.2C340.385 301.2 338.614 300.782 337.1 299.945ZM338.936 295.183C339.741 296.181 340.9 296.695 342.35 296.695C343.831 296.695 344.99 296.181 345.828 295.183C346.665 294.153 347.084 292.706 347.084 290.807C347.084 288.941 346.665 287.493 345.828 286.528C344.99 285.562 343.831 285.048 342.35 285.048C340.9 285.048 339.773 285.562 338.936 286.56C338.131 287.557 337.712 289.005 337.712 290.904C337.712 292.738 338.099 294.186 338.936 295.183Z" fill="black"/>
<path d="M368.017 285.948H362.543C362.478 289.842 362.221 292.802 361.705 294.893C361.19 296.985 360.32 298.497 359.097 299.398C357.841 300.331 356.069 300.782 353.719 300.814L353.396 295.987C354.749 295.891 355.683 295.537 356.198 294.99C356.714 294.443 357.036 293.22 357.197 291.322C357.358 289.423 357.454 286.013 357.486 281.09H373.299V300.556H368.017V285.948Z" fill="black"/>
<path d="M377.002 281.121H382.284V286.43H387.211C389.755 286.43 391.688 287.009 393.008 288.2C394.329 289.39 395.005 291.16 395.005 293.509C395.005 295.793 394.361 297.531 393.073 298.754C391.784 299.976 389.852 300.588 387.244 300.588H377.035V281.121H377.002ZM386.664 296.34C387.63 296.34 388.403 296.083 388.95 295.6C389.498 295.118 389.755 294.41 389.755 293.477C389.755 292.544 389.498 291.868 388.95 291.385C388.403 290.935 387.63 290.677 386.632 290.677H382.284V296.308H386.664V296.34Z" fill="black"/>
<path d="M397.582 281.121H402.444V295.761H406.116V281.121H410.367V295.761H414.038V281.121H418.901V300.588H397.549V281.121H397.582Z" fill="black"/>
<path d="M425.986 299.945C424.472 299.109 423.313 297.886 422.508 296.341C421.703 294.797 421.284 292.963 421.284 290.871C421.284 288.748 421.703 286.914 422.508 285.369C423.313 283.825 424.505 282.634 425.986 281.798C427.467 280.961 429.239 280.543 431.268 280.543C433.264 280.543 435.036 280.961 436.549 281.798C438.063 282.634 439.222 283.825 440.027 285.369C440.832 286.914 441.251 288.748 441.251 290.871C441.251 292.963 440.832 294.765 440.027 296.341C439.222 297.886 438.063 299.109 436.549 299.945C435.036 300.782 433.297 301.2 431.268 301.2C429.239 301.2 427.467 300.782 425.986 299.945ZM427.79 295.183C428.595 296.181 429.754 296.695 431.203 296.695C432.685 296.695 433.844 296.181 434.681 295.183C435.519 294.153 435.937 292.706 435.937 290.807C435.937 288.941 435.519 287.493 434.681 286.528C433.844 285.562 432.685 285.048 431.203 285.048C429.754 285.048 428.627 285.562 427.79 286.56C426.984 287.557 426.566 289.005 426.566 290.904C426.566 292.738 426.984 294.186 427.79 295.183Z" fill="black"/>
<path d="M118.946 335.146V323.402L110.637 335.146H106V315.68H111.121V327.424L119.429 315.68H124.067V335.146H118.946Z" fill="black"/>
<path d="M142.778 332.991C140.878 331.157 139.912 328.583 139.912 325.301C139.912 322.052 140.813 319.542 142.649 317.772C144.485 316.002 147.029 315.102 150.282 315.102C153.083 315.102 155.627 315.649 157.978 316.71C158.043 318.126 158.043 319.22 158.043 319.992C158.043 321.665 157.978 323.146 157.882 324.433L156.046 324.465C154.951 324.465 153.921 324.433 152.89 324.336L153.534 320.057C152.6 319.735 151.602 319.574 150.539 319.574C147.093 319.574 145.354 321.472 145.354 325.269C145.354 327.2 145.869 328.648 146.868 329.613C147.898 330.578 149.509 331.093 151.731 331.093C152.536 331.093 153.438 331.029 154.468 330.9C155.499 330.771 156.529 330.61 157.495 330.353C157.753 331.447 157.978 332.702 158.172 334.15C157.238 334.6 156.175 334.954 154.919 335.244C153.663 335.533 152.343 335.694 150.926 335.694C147.383 335.726 144.678 334.825 142.778 332.991Z" fill="black"/>
<path d="M175.304 320.503H169.829C169.765 324.396 169.507 327.357 168.992 329.448C168.477 331.54 167.607 333.052 166.383 333.953C165.127 334.886 163.356 335.336 161.005 335.368L160.683 330.542C162.036 330.446 162.97 330.092 163.485 329.545C164 328.998 164.322 327.775 164.483 325.877C164.644 323.978 164.741 320.567 164.773 315.645H180.586V335.111H175.304V320.503Z" fill="black"/>
<path d="M188.219 334.471C186.705 333.634 185.546 332.411 184.741 330.867C183.936 329.322 183.517 327.488 183.517 325.397C183.517 323.273 183.936 321.439 184.741 319.895C185.546 318.35 186.738 317.16 188.219 316.323C189.7 315.487 191.472 315.068 193.501 315.068C195.497 315.068 197.268 315.487 198.782 316.323C200.296 317.16 201.455 318.35 202.26 319.895C203.065 321.439 203.484 323.273 203.484 325.397C203.484 327.488 203.065 329.29 202.26 330.867C201.455 332.411 200.296 333.634 198.782 334.471C197.268 335.307 195.529 335.725 193.501 335.725C191.472 335.725 189.7 335.307 188.219 334.471ZM190.022 329.708C190.828 330.706 191.987 331.221 193.436 331.221C194.918 331.221 196.077 330.706 196.914 329.708C197.752 328.679 198.17 327.231 198.17 325.333C198.17 323.466 197.752 322.018 196.914 321.053C196.077 320.088 194.918 319.573 193.436 319.573C191.987 319.573 190.86 320.088 190.022 321.085C189.217 322.083 188.799 323.531 188.799 325.429C188.799 327.295 189.217 328.711 190.022 329.708Z" fill="black"/>
<path d="M208.572 324.88C206.898 321.823 205.803 318.734 205.255 315.645H210.569C210.794 316.868 211.084 318.123 211.471 319.41C211.857 320.729 212.308 321.888 212.823 322.949H214.305V315.613H219.135V322.949H220.649C221.615 320.955 222.388 318.541 222.903 315.613H228.185C227.637 318.702 226.51 321.759 224.868 324.848L228.7 335.112H223.032L220.746 327.518H219.167V335.112H214.337V327.518H212.759L210.472 335.112H204.804L208.572 324.88Z" fill="black"/>
<path d="M244.093 327.392H237.169V335.146H231.888V315.68H237.169V322.565H244.093V315.68H249.31V335.146H244.093V327.392Z" fill="black"/>
<path d="M253.819 315.68H258.618V320.989H260.904C263.32 320.989 265.22 321.568 266.54 322.694C267.861 323.82 268.505 325.622 268.505 328.035C268.505 332.797 265.993 335.146 260.937 335.146H253.819V315.68ZM260.582 331.028C262.708 331.028 263.738 330.03 263.738 328.035C263.738 326.073 262.643 325.107 260.486 325.107H258.586V331.06H260.582V331.028ZM271.017 315.68H275.815V335.146H271.017V315.68Z" fill="black"/>
<path d="M292.755 335.145V323.401L284.446 335.145H279.809V315.678H284.929V327.423L293.238 315.678H297.875V335.145H292.755ZM284.446 311.849C283.351 310.916 282.707 309.629 282.578 307.956L286.217 307.377C286.378 308.31 286.668 308.986 287.087 309.436C287.506 309.887 288.085 310.112 288.794 310.112C289.502 310.112 290.082 309.887 290.501 309.436C290.919 308.986 291.209 308.31 291.37 307.377L294.977 307.956C294.816 309.629 294.204 310.916 293.109 311.849C292.014 312.783 290.565 313.265 288.826 313.265C286.99 313.265 285.541 312.783 284.446 311.849Z" fill="black"/>
<path d="M327.343 320.506H320.387V335.146H315.105V315.68H332.624V335.146H327.343V320.506Z" fill="black"/>
<path d="M351.851 316.19C352.946 316.93 353.815 318.056 354.459 319.504C355.071 320.952 355.393 322.69 355.393 324.685C355.393 326.744 355.007 328.546 354.202 330.122C353.396 331.667 352.301 332.89 350.884 333.726C349.467 334.563 347.857 334.981 346.086 334.981C344.701 334.981 343.349 334.724 341.996 334.241V338.231L344.927 337.845C344.959 338.392 344.959 339.164 344.959 340.194C344.959 341.191 344.959 341.963 344.927 342.446H334.621L334.589 340.194L334.621 337.845L336.747 338.166V313.745C337.681 313.648 338.582 313.584 339.516 313.584C340.482 313.584 341.416 313.648 342.318 313.745L341.771 317.413C343.832 315.868 345.893 315.064 347.986 315.064C349.435 315.064 350.723 315.45 351.851 316.19ZM345.313 330.541C346.859 330.541 348.05 330.026 348.888 329.028C349.757 327.999 350.176 326.551 350.176 324.653C350.176 323.076 349.854 321.853 349.21 320.984C348.566 320.116 347.632 319.697 346.408 319.697C345.088 319.697 343.606 320.116 341.964 320.92V329.994C343.284 330.38 344.411 330.541 345.313 330.541Z" fill="black"/>
<path d="M362.22 334.471C360.706 333.634 359.547 332.411 358.742 330.867C357.937 329.322 357.518 327.488 357.518 325.397C357.518 323.273 357.937 321.439 358.742 319.895C359.547 318.35 360.739 317.16 362.22 316.323C363.701 315.487 365.473 315.068 367.502 315.068C369.498 315.068 371.269 315.487 372.783 316.323C374.297 317.16 375.456 318.35 376.261 319.895C377.066 321.439 377.485 323.273 377.485 325.397C377.485 327.488 377.066 329.29 376.261 330.867C375.456 332.411 374.297 333.634 372.783 334.471C371.269 335.307 369.53 335.725 367.502 335.725C365.505 335.725 363.734 335.307 362.22 334.471ZM364.056 329.708C364.861 330.706 366.02 331.221 367.469 331.221C368.951 331.221 370.11 330.706 370.947 329.708C371.785 328.679 372.203 327.231 372.203 325.333C372.203 323.466 371.785 322.018 370.947 321.053C370.11 320.088 368.951 319.573 367.469 319.573C366.02 319.573 364.893 320.088 364.056 321.085C363.25 322.083 362.832 323.531 362.832 325.429C362.832 327.295 363.25 328.711 364.056 329.708Z" fill="black"/>
<path d="M381.93 332.991C380.094 331.19 379.16 328.648 379.16 325.334C379.16 323.274 379.547 321.472 380.32 319.928C381.092 318.384 382.22 317.193 383.637 316.356C385.086 315.52 386.76 315.102 388.693 315.102C391.462 315.102 393.652 315.938 395.262 317.643C396.873 319.349 397.646 321.633 397.646 324.465C397.646 325.205 397.581 325.977 397.485 326.749C393.62 327.007 389.208 327.135 384.184 327.135C384.41 328.519 384.989 329.516 385.923 330.192C386.889 330.868 388.274 331.19 390.174 331.19C390.979 331.19 391.978 331.125 393.137 330.964C394.296 330.836 395.327 330.643 396.293 330.417C396.615 331.511 396.873 332.798 397.034 334.246C396.035 334.665 394.908 335.019 393.62 335.276C392.364 335.533 391.044 335.662 389.691 335.662C386.374 335.694 383.765 334.793 381.93 332.991ZM392.718 323.403C392.428 320.7 391.011 319.317 388.467 319.317C385.988 319.317 384.571 320.732 384.184 323.564C386.181 323.564 389.015 323.5 392.718 323.403Z" fill="black"/>
<path d="M408.402 327.553H405.6V335.146H400.318V315.68H405.6V322.791H408.692C410.334 320.667 411.332 318.286 411.654 315.68H417C416.936 317.192 416.582 318.769 415.905 320.442C415.229 322.115 414.263 323.756 413.039 325.365L418.611 335.178H412.556L408.402 327.553Z" fill="black"/>
<path d="M448.014 277.325C449.109 278.258 450.559 278.741 452.362 278.741C454.133 278.741 455.55 278.258 456.645 277.325C457.74 276.392 458.384 275.105 458.513 273.432L454.938 272.82C454.777 273.753 454.488 274.429 454.069 274.88C453.65 275.33 453.071 275.555 452.362 275.555C451.653 275.555 451.074 275.33 450.655 274.88C450.236 274.429 449.947 273.753 449.786 272.82L446.146 273.399C446.275 275.073 446.919 276.392 448.014 277.325Z" fill="black"/>
<path d="M461.411 281.121H456.773L448.464 292.898V281.121H443.344V300.588H447.981L456.322 288.843V294.442L461.411 288.361V281.121Z" fill="black"/>
<path d="M430.302 320.41H434.005L435.97 317.514V315.68H419.223L419.255 320.41H424.859V331.864L430.302 325.365V320.41Z" fill="black"/>
</svg>
