<svg width="326" height="367" viewBox="0 0 326 367" fill="none" xmlns="http://www.w3.org/2000/svg">
<g clip-path="url(#clip0_3375_10)">
<rect width="326" height="367" fill="white"/>
<rect y="2" width="326" height="365" fill="white"/>
<path d="M296.14 23.32L301.765 23.41L301.675 18.19H305.995L305.905 23.41L311.575 23.32V27.64L305.905 27.505L305.995 32.725H301.675L301.765 27.505L296.14 27.64V23.32Z" fill="black"/>
<path d="M35.875 352.875H34.375V349.455C34.925 349.375 35.325 349.175 35.575 348.855C35.825 348.535 36.01 347.82 36.13 346.71C36.25 345.59 36.315 343.77 36.325 341.25H42.895V349.455H43.81V352.875H42.31L42.43 351H35.74L35.875 352.875ZM41.2 349.455V342.735H37.93C37.91 344.735 37.825 346.24 37.675 347.25C37.525 348.25 37.255 348.985 36.865 349.455H41.2ZM50.1803 351V346.125L46.6103 351H45.1703V343.725H46.7753V348.555L50.3303 343.725H51.7853V351H50.1803ZM55.8336 351.225C54.8336 351.225 53.9486 351.07 53.1786 350.76L53.3886 349.47C54.0686 349.67 54.7636 349.77 55.4736 349.77C56.1236 349.77 56.5986 349.68 56.8986 349.5C57.1986 349.31 57.3486 349.055 57.3486 348.735C57.3486 348.425 57.2486 348.185 57.0486 348.015C56.8486 347.845 56.5136 347.75 56.0436 347.73L54.3636 347.82V346.53L56.0436 346.62C56.7336 346.56 57.0786 346.275 57.0786 345.765C57.0786 345.525 56.9686 345.325 56.7486 345.165C56.5286 345.005 56.1536 344.925 55.6236 344.925C54.9236 344.925 54.2586 345.03 53.6286 345.24L53.4336 343.98C53.8736 343.81 54.2936 343.69 54.6936 343.62C55.0936 343.54 55.5236 343.5 55.9836 343.5C56.8536 343.5 57.5186 343.675 57.9786 344.025C58.4386 344.375 58.6686 344.85 58.6686 345.45C58.6686 345.77 58.6086 346.07 58.4886 346.35C58.3686 346.63 58.1836 346.87 57.9336 347.07C58.2736 347.27 58.5186 347.52 58.6686 347.82C58.8186 348.11 58.8936 348.455 58.8936 348.855C58.8936 349.595 58.6336 350.175 58.1136 350.595C57.5936 351.015 56.8336 351.225 55.8336 351.225ZM64.2739 350.115C63.9039 350.435 63.4839 350.7 63.0139 350.91C62.5539 351.11 62.1139 351.21 61.6939 351.21C61.0339 351.21 60.5089 351.015 60.1189 350.625C59.7389 350.235 59.5489 349.67 59.5489 348.93C59.5489 348.22 59.7339 347.535 60.1039 346.875C60.5939 346.825 61.2089 346.8 61.9489 346.8C62.4789 346.8 63.2239 346.82 64.1839 346.86V346.635C64.1839 346.115 64.0939 345.715 63.9139 345.435C63.7439 345.145 63.4139 345 62.9239 345C62.6039 345 62.2089 345.05 61.7389 345.15C61.2689 345.24 60.7889 345.375 60.2989 345.555C60.1689 345.165 60.0539 344.72 59.9539 344.22C61.1739 343.77 62.2289 343.545 63.1189 343.545C63.9889 343.545 64.6489 343.745 65.0989 344.145C65.5489 344.545 65.7739 345.235 65.7739 346.215V349.65V351C65.5139 351.02 65.2989 351.03 65.1289 351.03C64.9589 351.03 64.7339 351.02 64.4539 351L64.2739 350.115ZM61.0939 348.81C61.0939 349.49 61.4439 349.83 62.1439 349.83C62.4539 349.83 62.7839 349.76 63.1339 349.62C63.4939 349.47 63.8439 349.275 64.1839 349.035V347.955C63.4739 347.915 62.7689 347.895 62.0689 347.895C61.6789 347.895 61.3989 347.9 61.2289 347.91C61.1389 348.16 61.0939 348.46 61.0939 348.81ZM72.8245 351V346.125L69.2545 351H67.8145V343.725H69.4195V348.555L72.9745 343.725H74.4295V351H72.8245ZM71.0995 342.675C70.4495 342.675 69.9195 342.495 69.5095 342.135C69.1095 341.775 68.8845 341.285 68.8345 340.665L70.0495 340.485C70.0995 340.845 70.2095 341.125 70.3795 341.325C70.5595 341.525 70.7995 341.625 71.0995 341.625C71.3995 341.625 71.6345 341.53 71.8045 341.34C71.9845 341.14 72.0995 340.86 72.1495 340.5L73.3345 340.665C73.2945 341.285 73.0745 341.775 72.6745 342.135C72.2745 342.495 71.7495 342.675 71.0995 342.675ZM81.3577 347.955H78.2827V351H76.6477V343.725H78.2827V346.455H81.3577V343.725H82.9927V351H81.3577V347.955ZM84.8354 346.44H89.4854V347.88H84.8354V346.44ZM95.3683 343.5C95.8983 343.5 96.3733 343.65 96.7933 343.95C97.2133 344.24 97.5433 344.665 97.7833 345.225C98.0233 345.775 98.1433 346.435 98.1433 347.205C98.1433 348.045 97.9933 348.765 97.6933 349.365C97.3933 349.955 96.9683 350.41 96.4183 350.73C95.8783 351.04 95.2483 351.195 94.5283 351.195C94.0383 351.195 93.5233 351.105 92.9833 350.925V353.805H91.3483V343.725C91.7683 343.705 92.0033 343.695 92.0533 343.695C92.1233 343.695 92.3483 343.705 92.7283 343.725L92.8633 344.52C93.2233 344.21 93.6183 343.965 94.0483 343.785C94.4783 343.595 94.9183 343.5 95.3683 343.5ZM92.9833 349.485C93.6133 349.705 94.1233 349.815 94.5133 349.815C95.1033 349.815 95.5733 349.59 95.9233 349.14C96.2733 348.68 96.4483 348.03 96.4483 347.19C96.4483 346.49 96.2983 345.935 95.9983 345.525C95.6983 345.115 95.3233 344.91 94.8733 344.91C94.3433 344.91 93.7133 345.165 92.9833 345.675V349.485ZM103.977 350.115C103.607 350.435 103.187 350.7 102.717 350.91C102.257 351.11 101.817 351.21 101.397 351.21C100.737 351.21 100.212 351.015 99.822 350.625C99.442 350.235 99.252 349.67 99.252 348.93C99.252 348.22 99.437 347.535 99.807 346.875C100.297 346.825 100.912 346.8 101.652 346.8C102.182 346.8 102.927 346.82 103.887 346.86V346.635C103.887 346.115 103.797 345.715 103.617 345.435C103.447 345.145 103.117 345 102.627 345C102.307 345 101.912 345.05 101.442 345.15C100.972 345.24 100.492 345.375 100.002 345.555C99.872 345.165 99.757 344.72 99.657 344.22C100.877 343.77 101.932 343.545 102.822 343.545C103.692 343.545 104.352 343.745 104.802 344.145C105.252 344.545 105.477 345.235 105.477 346.215V349.65V351C105.217 351.02 105.002 351.03 104.832 351.03C104.662 351.03 104.437 351.02 104.157 351L103.977 350.115ZM100.797 348.81C100.797 349.49 101.147 349.83 101.847 349.83C102.157 349.83 102.487 349.76 102.837 349.62C103.197 349.47 103.547 349.275 103.887 349.035V347.955C103.177 347.915 102.472 347.895 101.772 347.895C101.382 347.895 101.102 347.9 100.932 347.91C100.842 348.16 100.797 348.46 100.797 348.81ZM109.183 351.225C108.183 351.225 107.298 351.07 106.528 350.76L106.738 349.47C107.418 349.67 108.113 349.77 108.823 349.77C109.473 349.77 109.948 349.68 110.248 349.5C110.548 349.31 110.698 349.055 110.698 348.735C110.698 348.425 110.598 348.185 110.398 348.015C110.198 347.845 109.863 347.75 109.393 347.73L107.713 347.82V346.53L109.393 346.62C110.083 346.56 110.428 346.275 110.428 345.765C110.428 345.525 110.318 345.325 110.098 345.165C109.878 345.005 109.503 344.925 108.973 344.925C108.273 344.925 107.608 345.03 106.978 345.24L106.783 343.98C107.223 343.81 107.643 343.69 108.043 343.62C108.443 343.54 108.873 343.5 109.333 343.5C110.203 343.5 110.868 343.675 111.328 344.025C111.788 344.375 112.018 344.85 112.018 345.45C112.018 345.77 111.958 346.07 111.838 346.35C111.718 346.63 111.533 346.87 111.283 347.07C111.623 347.27 111.868 347.52 112.018 347.82C112.168 348.11 112.243 348.455 112.243 348.855C112.243 349.595 111.983 350.175 111.463 350.595C110.943 351.015 110.183 351.225 109.183 351.225ZM113.333 343.725H116.753C117.563 343.725 118.173 343.875 118.583 344.175C118.993 344.465 119.198 344.875 119.198 345.405C119.198 345.975 118.943 346.48 118.433 346.92C119.323 347.26 119.768 347.895 119.768 348.825C119.768 349.485 119.533 350.015 119.063 350.415C118.593 350.805 117.868 351 116.888 351H113.333V343.725ZM116.858 349.755C117.278 349.755 117.593 349.67 117.803 349.5C118.023 349.32 118.133 349.07 118.133 348.75C118.133 348.13 117.693 347.82 116.813 347.82H114.878V349.755H116.858ZM116.888 346.68L117.248 346.695C117.538 346.425 117.683 346.12 117.683 345.78C117.683 345.51 117.578 345.31 117.368 345.18C117.168 345.04 116.883 344.97 116.513 344.97H114.878V346.68H116.888ZM124.325 351.21C123.175 351.21 122.265 350.87 121.595 350.19C120.925 349.51 120.59 348.565 120.59 347.355C120.59 346.585 120.73 345.91 121.01 345.33C121.29 344.74 121.69 344.29 122.21 343.98C122.74 343.66 123.355 343.5 124.055 343.5C125.055 343.5 125.835 343.835 126.395 344.505C126.965 345.165 127.25 346.03 127.25 347.1C127.25 347.33 127.23 347.595 127.19 347.895H122.135C122.305 349.155 123.085 349.785 124.475 349.785C124.815 349.785 125.205 349.75 125.645 349.68C126.085 349.6 126.47 349.495 126.8 349.365C126.82 349.495 126.87 349.74 126.95 350.1C126.97 350.22 126.99 350.325 127.01 350.415C127.03 350.495 127.045 350.57 127.055 350.64C126.225 351.02 125.315 351.21 124.325 351.21ZM125.72 346.68C125.6 345.46 125.025 344.85 123.995 344.85C123.485 344.85 123.065 345 122.735 345.3C122.415 345.6 122.215 346.06 122.135 346.68H125.72ZM127.724 349.485C128.174 349.475 128.494 349.36 128.684 349.14C128.874 348.92 129.009 348.425 129.089 347.655C129.169 346.875 129.214 345.565 129.224 343.725H134.789V349.485H135.569V352.875H134.069L134.189 351H129.089L129.209 352.875H127.709V349.485H127.724ZM133.139 349.485V345.225H130.709C130.709 346.325 130.674 347.21 130.604 347.88C130.534 348.55 130.414 349.085 130.244 349.485H133.139ZM139.808 348.03H138.518V351H136.883V343.725H138.518V346.545H139.808C140.178 346.135 140.483 345.68 140.723 345.18C140.963 344.68 141.123 344.195 141.203 343.725H142.883C142.813 344.295 142.633 344.89 142.343 345.51C142.063 346.12 141.693 346.715 141.233 347.295L143.468 351H141.593L139.808 348.03ZM148.753 350.115C148.383 350.435 147.963 350.7 147.493 350.91C147.033 351.11 146.593 351.21 146.173 351.21C145.513 351.21 144.988 351.015 144.598 350.625C144.218 350.235 144.028 349.67 144.028 348.93C144.028 348.22 144.213 347.535 144.583 346.875C145.073 346.825 145.688 346.8 146.428 346.8C146.958 346.8 147.703 346.82 148.663 346.86V346.635C148.663 346.115 148.573 345.715 148.393 345.435C148.223 345.145 147.893 345 147.403 345C147.083 345 146.688 345.05 146.218 345.15C145.748 345.24 145.268 345.375 144.778 345.555C144.648 345.165 144.533 344.72 144.433 344.22C145.653 343.77 146.708 343.545 147.598 343.545C148.468 343.545 149.128 343.745 149.578 344.145C150.028 344.545 150.253 345.235 150.253 346.215V349.65V351C149.993 351.02 149.778 351.03 149.608 351.03C149.438 351.03 149.213 351.02 148.933 351L148.753 350.115ZM145.573 348.81C145.573 349.49 145.923 349.83 146.623 349.83C146.933 349.83 147.263 349.76 147.613 349.62C147.973 349.47 148.323 349.275 148.663 349.035V347.955C147.953 347.915 147.248 347.895 146.548 347.895C146.158 347.895 145.878 347.9 145.708 347.91C145.618 348.16 145.573 348.46 145.573 348.81Z" fill="black"/>
<path d="M185.452 173C192.08 173 197.452 167.627 197.452 161C197.452 154.373 192.08 149 185.452 149C178.825 149 173.452 154.373 173.452 161C173.452 167.627 178.825 173 185.452 173Z" fill="black"/>
<path d="M161.364 164.452V203.955C161.364 213.513 165.575 218.292 174.049 218.292C179.022 218.292 185.06 217.427 192.113 215.75C193.382 219.766 194.244 224.393 194.802 229.68C191.403 230.951 187.699 231.968 183.69 232.781C179.682 233.595 175.825 234.001 172.172 234.001C163.191 234.001 156.188 231.51 151.165 226.579C146.192 221.596 143.655 214.123 143.655 204.158V150.267H143.807C148.628 150.114 161.212 150.267 161.212 150.267" fill="black"/>
<path d="M149.743 150.174H116V162.4H149.743V150.174Z" fill="black"/>
</g>
<defs>
<clipPath id="clip0_3375_10">
<rect width="326" height="367" fill="white"/>
</clipPath>
</defs>
</svg>
