<svg width="326" height="367" viewBox="0 0 326 367" fill="none" xmlns="http://www.w3.org/2000/svg">
<g clip-path="url(#clip0_3639_2)">
<rect width="326" height="367" fill="black"/>
<path d="M25.1538 36.9991C26.3434 36.9991 27.3077 36.0348 27.3077 34.8453C27.3077 33.6557 26.3434 32.6914 25.1538 32.6914C23.9643 32.6914 23 33.6557 23 34.8453C23 36.0348 23.9643 36.9991 25.1538 36.9991Z" fill="white"/>
<path d="M26.7689 17.4355H23.5381V30.1791H26.7689V17.4355Z" fill="white"/>
<path d="M32.5124 16H23.5381V18.3333H32.5124V16Z" fill="white"/>
<path d="M42.7148 71.6296L48.363 61L49.7216 61.6541L44.0734 72.2838L42.7148 71.6296Z" fill="white"/>
<path d="M54.2453 70.0698C53.0628 70.0698 52.1613 69.7804 51.5407 69.2018C50.9285 68.6231 50.6224 67.8097 50.6224 66.7614C50.6224 65.7215 50.9201 64.9206 51.5155 64.3587C52.111 63.7968 52.958 63.5159 54.0566 63.5159C54.912 63.5159 55.7129 63.6878 56.4593 64.0316C56.476 64.5013 56.4844 64.8787 56.4844 65.1638C56.4844 65.667 56.4676 66.1073 56.4341 66.4846L55.9058 66.4972C55.5032 66.4972 55.1552 66.4804 54.8617 66.4469L55.0629 65.0883C54.7359 64.9961 54.4172 64.9499 54.1069 64.9499C53.5115 64.9499 53.067 65.0967 52.7735 65.3902C52.48 65.6837 52.3332 66.1408 52.3332 66.7614C52.3332 67.3736 52.5009 67.8348 52.8364 68.1451C53.1802 68.4554 53.7337 68.6106 54.4969 68.6106C54.7485 68.6106 55.0378 68.5896 55.3648 68.5477C55.6919 68.4973 56.0022 68.4345 56.2957 68.359C56.4047 68.7112 56.4844 69.1095 56.5347 69.554C55.9058 69.8979 55.1426 70.0698 54.2453 70.0698Z" fill="white"/>
<path d="M61.2723 70.0824C60.2911 70.0824 59.5153 69.7888 58.9451 69.2018C58.3748 68.6148 58.0897 67.8139 58.0897 66.7991C58.0897 65.7844 58.3748 64.9835 58.9451 64.3964C59.5153 63.8094 60.2911 63.5159 61.2723 63.5159C62.2535 63.5159 63.025 63.8094 63.5869 64.3964C64.1572 64.9835 64.4423 65.7844 64.4423 66.7991C64.4423 67.8139 64.1572 68.6148 63.5869 69.2018C63.025 69.7888 62.2535 70.0824 61.2723 70.0824ZM59.7124 66.7991C59.7124 67.3694 59.8508 67.8223 60.1275 68.1577C60.4127 68.4932 60.7901 68.6609 61.2597 68.6609C61.7377 68.6609 62.1193 68.4932 62.4044 68.1577C62.6896 67.8139 62.8321 67.3484 62.8321 66.7614C62.8321 66.1995 62.6896 65.755 62.4044 65.428C62.1193 65.1009 61.7377 64.9374 61.2597 64.9374C60.7901 64.9374 60.4127 65.1051 60.1275 65.4405C59.8508 65.776 59.7124 66.2289 59.7124 66.7991Z" fill="white"/>
<path d="M69.7207 63.5159C70.1736 63.5159 70.572 63.6375 70.9158 63.8807C71.268 64.1155 71.5406 64.4635 71.7335 64.9248C71.9263 65.3776 72.0228 65.9186 72.0228 66.5475C72.0228 67.1681 71.897 67.7258 71.6454 68.2206C71.4022 68.707 71.0625 69.0886 70.6265 69.3653C70.1904 69.6337 69.704 69.7679 69.1672 69.7679C68.7815 69.7679 68.3244 69.705 67.7961 69.5792V70.9378L69.2301 70.7742C69.2469 71.0929 69.2553 71.3319 69.2553 71.4913C69.2553 71.6506 69.2469 71.8896 69.2301 72.2083H65.0286C65.0118 71.8896 65.0035 71.6506 65.0035 71.4913C65.0035 71.3319 65.0118 71.0929 65.0286 70.7742L66.123 70.9252V62.9498C66.4165 62.9247 66.7059 62.9121 66.991 62.9121C67.2929 62.9121 67.5948 62.9247 67.8967 62.9498L67.7332 64.2455C68.4041 63.7591 69.0666 63.5159 69.7207 63.5159ZM67.7961 68.208C68.2154 68.3087 68.5467 68.359 68.7899 68.359C69.3098 68.359 69.7082 68.1996 69.9849 67.881C70.27 67.5623 70.4126 67.122 70.4126 66.5601C70.4126 66.0318 70.3162 65.6334 70.1233 65.3651C69.9388 65.0883 69.6411 64.9499 69.2301 64.9499C68.7354 64.9499 68.2573 65.0674 67.7961 65.3022V68.208Z" fill="white"/>
<path d="M76.7226 70.0698C75.6156 70.0698 74.7686 69.7846 74.1815 69.2144C73.5945 68.6357 73.301 67.8223 73.301 66.774C73.301 66.1198 73.4268 65.5496 73.6784 65.0632C73.9299 64.5684 74.2864 64.1868 74.7476 63.9184C75.2089 63.6501 75.7456 63.5159 76.3578 63.5159C76.9364 63.5159 77.448 63.6375 77.8925 63.8807C78.3369 64.1155 78.6808 64.4593 78.924 64.9122C79.1756 65.3651 79.3014 65.8976 79.3014 66.5098C79.3014 66.7278 79.272 66.9543 79.2133 67.1891C78.5843 67.2897 77.9344 67.3568 77.2635 67.3904C76.5926 67.4155 75.8001 67.4281 74.886 67.4281C74.9615 67.8306 75.146 68.1325 75.4395 68.3338C75.7414 68.5351 76.1942 68.6357 76.7981 68.6357C77.4773 68.6357 78.1315 68.5519 78.7604 68.3841C78.8862 68.7196 78.9701 69.1095 79.012 69.554C78.7437 69.7134 78.404 69.8392 77.9931 69.9314C77.5906 70.0237 77.167 70.0698 76.7226 70.0698ZM74.8734 66.2959C75.8294 66.2959 76.7645 66.2582 77.6786 66.1827C77.578 65.3106 77.1042 64.8745 76.2571 64.8745C75.8714 64.8745 75.5569 64.9919 75.3137 65.2267C75.0789 65.4615 74.9321 65.8179 74.8734 66.2959Z" fill="white"/>
<path d="M81.3343 63.7046H84.5421C85.2298 63.7046 85.7371 63.8346 86.0642 64.0945C86.3996 64.3461 86.5674 64.6984 86.5674 65.1512C86.5674 65.6208 86.3703 66.036 85.9761 66.3966C86.3367 66.5475 86.6135 66.7698 86.8064 67.0633C86.9993 67.3484 87.0957 67.6923 87.0957 68.0948C87.0957 68.6231 86.8986 69.055 86.5045 69.3905C86.1103 69.7259 85.4981 69.8937 84.6679 69.8937H81.3343V63.7046ZM84.6427 68.6357C85.1627 68.6357 85.4226 68.4093 85.4226 67.9564C85.4226 67.7384 85.3597 67.579 85.2339 67.4784C85.1082 67.3694 84.9111 67.3149 84.6427 67.3149H82.8942V68.6357H84.6427ZM84.6679 66.1702H84.7685C84.953 65.9689 85.0453 65.7466 85.0453 65.5034C85.0453 65.1428 84.8146 64.9625 84.3534 64.9625H82.8942V66.1702H84.6679Z" fill="white"/>
<path d="M92.5754 67.4281H90.2985V69.8937H88.6381V63.7046H90.2985V65.8934H92.5754V63.7046H94.2485V69.8937H92.5754V67.4281Z" fill="white"/>
<path d="M98.986 70.0824C98.0048 70.0824 97.2291 69.7888 96.6588 69.2018C96.0886 68.6148 95.8034 67.8139 95.8034 66.7991C95.8034 65.7844 96.0886 64.9835 96.6588 64.3964C97.2291 63.8094 98.0048 63.5159 98.986 63.5159C99.9672 63.5159 100.739 63.8094 101.301 64.3964C101.871 64.9835 102.156 65.7844 102.156 66.7991C102.156 67.8139 101.871 68.6148 101.301 69.2018C100.739 69.7888 99.9672 70.0824 98.986 70.0824ZM97.4262 66.7991C97.4262 67.3694 97.5646 67.8223 97.8413 68.1577C98.1264 68.4932 98.5038 68.6609 98.9734 68.6609C99.4515 68.6609 99.833 68.4932 100.118 68.1577C100.403 67.8139 100.546 67.3484 100.546 66.7614C100.546 66.1995 100.403 65.755 100.118 65.428C99.833 65.1009 99.4515 64.9374 98.9734 64.9374C98.5038 64.9374 98.1264 65.1051 97.8413 65.4405C97.5646 65.776 97.4262 66.2289 97.4262 66.7991Z" fill="white"/>
<path d="M103.963 63.7046H107.17C107.858 63.7046 108.365 63.8346 108.692 64.0945C109.028 64.3461 109.196 64.6984 109.196 65.1512C109.196 65.6208 108.999 66.036 108.604 66.3966C108.965 66.5475 109.242 66.7698 109.435 67.0633C109.628 67.3484 109.724 67.6923 109.724 68.0948C109.724 68.6231 109.527 69.055 109.133 69.3905C108.739 69.7259 108.126 69.8937 107.296 69.8937H103.963V63.7046ZM107.271 68.6357C107.791 68.6357 108.051 68.4093 108.051 67.9564C108.051 67.7384 107.988 67.579 107.862 67.4784C107.736 67.3694 107.539 67.3149 107.271 67.3149H105.522V68.6357H107.271ZM107.296 66.1702H107.397C107.581 65.9689 107.674 65.7466 107.674 65.5034C107.674 65.1428 107.443 64.9625 106.982 64.9625H105.522V66.1702H107.296Z" fill="white"/>
<path d="M114.977 69.1263C114.684 69.3947 114.348 69.6211 113.971 69.8056C113.594 69.9817 113.22 70.0698 112.851 70.0698C112.315 70.0698 111.887 69.9104 111.568 69.5918C111.258 69.2647 111.103 68.8076 111.103 68.2206C111.103 67.8935 111.153 67.5707 111.254 67.252C111.354 66.9333 111.48 66.6691 111.631 66.4595C112.126 66.3924 112.755 66.3588 113.518 66.3588C114.021 66.3588 114.478 66.3714 114.889 66.3966V66.2708C114.889 65.8766 114.826 65.5705 114.701 65.3525C114.575 65.1344 114.319 65.0254 113.933 65.0254C113.673 65.0254 113.338 65.0632 112.927 65.1386C112.516 65.2057 112.118 65.3147 111.732 65.4657C111.581 65.038 111.48 64.5977 111.43 64.1449C112.478 63.7507 113.384 63.5536 114.147 63.5536C114.675 63.5536 115.111 63.6207 115.455 63.7549C115.807 63.8807 116.076 64.1113 116.26 64.4468C116.453 64.7822 116.55 65.2519 116.55 65.8557V68.5351L117.455 68.4345C117.472 68.7364 117.481 68.9712 117.481 69.1389C117.481 69.2982 117.472 69.5372 117.455 69.8559C117.179 69.923 116.784 69.9566 116.273 69.9566C115.837 69.9566 115.468 69.9356 115.166 69.8937L114.977 69.1263ZM112.738 68.0067C112.738 68.2751 112.788 68.468 112.889 68.5854C112.99 68.7028 113.17 68.7615 113.43 68.7615C113.631 68.7615 113.87 68.7196 114.147 68.6357C114.432 68.5519 114.68 68.447 114.889 68.3212V67.3778C114.554 67.361 114.139 67.3526 113.644 67.3526C113.292 67.3526 113.04 67.3568 112.889 67.3652C112.788 67.5413 112.738 67.7552 112.738 68.0067Z" fill="white"/>
<path d="M120.746 65.1638H118.708L118.646 63.7046H124.533L124.583 65.1638H122.482V69.8937H120.746V65.1638Z" fill="white"/>
<path d="M129.522 70.0698C128.415 70.0698 127.568 69.7846 126.981 69.2144C126.394 68.6357 126.1 67.8223 126.1 66.774C126.1 66.1198 126.226 65.5496 126.478 65.0632C126.729 64.5684 127.086 64.1868 127.547 63.9184C128.008 63.6501 128.545 63.5159 129.157 63.5159C129.736 63.5159 130.247 63.6375 130.692 63.8807C131.136 64.1155 131.48 64.4593 131.723 64.9122C131.975 65.3651 132.101 65.8976 132.101 66.5098C132.101 66.7278 132.071 66.9543 132.013 67.1891C131.384 67.2897 130.734 67.3568 130.063 67.3904C129.392 67.4155 128.599 67.4281 127.685 67.4281C127.761 67.8306 127.945 68.1325 128.239 68.3338C128.541 68.5351 128.993 68.6357 129.597 68.6357C130.277 68.6357 130.931 68.5519 131.56 68.3841C131.686 68.7196 131.769 69.1095 131.811 69.554C131.543 69.7134 131.203 69.8392 130.792 69.9314C130.39 70.0237 129.966 70.0698 129.522 70.0698ZM127.673 66.2959C128.629 66.2959 129.564 66.2582 130.478 66.1827C130.377 65.3106 129.903 64.8745 129.056 64.8745C128.671 64.8745 128.356 64.9919 128.113 65.2267C127.878 65.4615 127.731 65.8179 127.673 66.2959Z" fill="white"/>
<path d="M137.819 65.2393H136.197C136.18 66.4637 136.092 67.4113 135.932 68.0822C135.773 68.7447 135.496 69.2228 135.102 69.5163C134.716 69.8098 134.15 69.9608 133.404 69.9691L133.303 68.4345C133.731 68.4009 134.025 68.2961 134.184 68.12C134.343 67.9439 134.448 67.5581 134.498 66.9627C134.549 66.3588 134.578 65.2728 134.586 63.7046H139.492V69.8937H137.819V65.2393Z" fill="white"/>
<path d="M141.588 63.7046H143.261V65.3399H145.01C146.645 65.3399 147.463 66.1073 147.463 67.6419C147.463 68.3883 147.257 68.9502 146.846 69.3276C146.436 69.705 145.828 69.8937 145.022 69.8937H141.588V63.7046ZM144.796 68.5351C145.115 68.5351 145.358 68.4596 145.526 68.3087C145.702 68.1493 145.79 67.9145 145.79 67.6042C145.79 67.3023 145.702 67.0759 145.526 66.9249C145.35 66.774 145.098 66.6985 144.771 66.6985H143.261V68.5351H144.796Z" fill="white"/>
<path d="M152.917 67.4281H150.641V69.8937H148.98V63.7046H150.641V65.8934H152.917V63.7046H154.591V69.8937H152.917V67.4281Z" fill="white"/>
<path d="M156.447 63.7046H157.819V65.3399H158.133C158.863 65.3399 159.429 65.516 159.831 65.8682C160.242 66.2121 160.448 66.7907 160.448 67.6042C160.448 68.4261 160.246 69.0131 159.844 69.3653C159.441 69.7176 158.879 69.8937 158.158 69.8937H156.447V63.7046ZM158.032 68.6357C158.385 68.6357 158.649 68.5561 158.825 68.3967C159.001 68.229 159.089 67.9648 159.089 67.6042C159.089 67.2604 158.997 67.0088 158.812 66.8494C158.636 66.6817 158.368 66.5979 158.007 66.5979H157.819V68.6357H158.032ZM160.989 63.7046H162.347V69.8937H160.989V63.7046Z" fill="white"/>
<path d="M168.129 69.8937V66.1827L165.575 69.8937H164.091V63.7046H165.726V67.4281L168.28 63.7046H169.764V69.8937H168.129ZM166.909 62.975C166.338 62.975 165.877 62.8282 165.525 62.5347C165.181 62.2328 164.984 61.8177 164.934 61.2893L166.091 61.1006C166.141 61.3942 166.233 61.6122 166.368 61.7548C166.502 61.8973 166.682 61.9686 166.909 61.9686C167.135 61.9686 167.315 61.8973 167.449 61.7548C167.584 61.6122 167.676 61.3942 167.726 61.1006L168.871 61.2893C168.821 61.8177 168.619 62.2328 168.267 62.5347C167.923 62.8282 167.47 62.975 166.909 62.975Z" fill="white"/>
<path d="M42.9035 82.1177C43.2558 82.1094 43.5073 82.0255 43.6583 81.8661C43.8093 81.6984 43.9141 81.3001 43.9728 80.6711C44.0315 80.0337 44.065 78.9645 44.0734 77.4633H48.8536V82.1177H49.4574V85.1871H47.9227L48.0359 83.6524H44.3124L44.4256 85.1871H42.891V82.1177H42.9035ZM47.1805 82.1177V78.998H45.6836C45.6752 79.7612 45.6417 80.3944 45.583 80.8975C45.5326 81.3923 45.4446 81.7991 45.3188 82.1177H47.1805Z" fill="white"/>
<path d="M54.9875 83.6524V79.9415L52.4338 83.6524H50.9495V77.4633H52.5848V81.1869L55.1384 77.4633H56.6228V83.6524H54.9875Z" fill="white"/>
<path d="M61.1716 83.8411C60.2324 83.8411 59.4357 83.7195 58.7815 83.4763L58.9954 82.1681C59.5489 82.3106 60.1527 82.3819 60.8068 82.3819C61.8216 82.3819 62.3289 82.1471 62.3289 81.6775C62.3289 81.4762 62.2535 81.3168 62.1025 81.1994C61.9599 81.082 61.7084 81.0149 61.3477 80.9982L59.8005 81.0736V79.778L61.3477 79.866C61.8342 79.8241 62.0774 79.6312 62.0774 79.2874C62.0774 78.9016 61.6832 78.7087 60.8949 78.7087C60.2995 78.7087 59.7334 78.7842 59.1967 78.9351L58.9954 77.652C59.3812 77.5095 59.7502 77.413 60.1024 77.3627C60.4546 77.304 60.8446 77.2747 61.2723 77.2747C62.0522 77.2747 62.6476 77.4214 63.0586 77.7149C63.4779 78.0085 63.6875 78.4194 63.6875 78.9477C63.6875 79.2245 63.6288 79.4844 63.5114 79.7276C63.394 79.9708 63.2221 80.1763 62.9957 80.344C63.5911 80.6711 63.8888 81.1701 63.8888 81.841C63.8888 82.4616 63.6582 82.9522 63.1969 83.3128C62.7357 83.665 62.0606 83.8411 61.1716 83.8411Z" fill="white"/>
<path d="M69.7207 82.8851C69.4272 83.1534 69.0918 83.3799 68.7144 83.5644C68.337 83.7405 67.9638 83.8285 67.5948 83.8285C67.0581 83.8285 66.6304 83.6692 66.3117 83.3505C66.0014 83.0235 65.8463 82.5664 65.8463 81.9794C65.8463 81.6523 65.8966 81.3294 65.9972 81.0107C66.0979 80.6921 66.2237 80.4279 66.3746 80.2182C66.8694 80.1512 67.4984 80.1176 68.2615 80.1176C68.7647 80.1176 69.2218 80.1302 69.6327 80.1553V80.0296C69.6327 79.6354 69.5698 79.3293 69.444 79.1112C69.3182 78.8932 69.0624 78.7842 68.6766 78.7842C68.4167 78.7842 68.0812 78.8219 67.6703 78.8974C67.2594 78.9645 66.861 79.0735 66.4752 79.2245C66.3243 78.7968 66.2237 78.3565 66.1733 77.9036C67.2216 77.5095 68.1273 77.3124 68.8905 77.3124C69.4188 77.3124 69.8549 77.3795 70.1988 77.5137C70.551 77.6395 70.8193 77.8701 71.0038 78.2055C71.1967 78.541 71.2932 79.0106 71.2932 79.6144V82.2938L72.1989 82.1932C72.2157 82.4951 72.2241 82.7299 72.2241 82.8977C72.2241 83.057 72.2157 83.296 72.1989 83.6147C71.9221 83.6818 71.528 83.7153 71.0164 83.7153C70.5803 83.7153 70.2113 83.6944 69.9094 83.6524L69.7207 82.8851ZM67.4816 81.7655C67.4816 82.0339 67.5319 82.2268 67.6326 82.3442C67.7332 82.4616 67.9135 82.5203 68.1735 82.5203C68.3747 82.5203 68.6138 82.4783 68.8905 82.3945C69.1756 82.3106 69.423 82.2058 69.6327 82.08V81.1365C69.2972 81.1198 68.8821 81.1114 68.3873 81.1114C68.0351 81.1114 67.7835 81.1156 67.6326 81.124C67.5319 81.3001 67.4816 81.5139 67.4816 81.7655Z" fill="white"/>
<path d="M77.6157 83.6524V79.9415L75.0621 83.6524H73.5777V77.4633H75.213V81.1869L77.7667 77.4633H79.251V83.6524H77.6157ZM76.3955 76.7337C75.8252 76.7337 75.364 76.587 75.0118 76.2935C74.6679 75.9915 74.4709 75.5764 74.4205 75.0481L75.5779 74.8594C75.6282 75.1529 75.7204 75.371 75.8546 75.5135C75.9888 75.6561 76.1691 75.7274 76.3955 75.7274C76.6219 75.7274 76.8022 75.6561 76.9364 75.5135C77.0706 75.371 77.1629 75.1529 77.2132 74.8594L78.3579 75.0481C78.3076 75.5764 78.1063 75.9915 77.7541 76.2935C77.4103 76.587 76.9574 76.7337 76.3955 76.7337Z" fill="white"/>
<path d="M85.0327 81.1869H82.7558V83.6524H81.0953V77.4633H82.7558V79.6522H85.0327V77.4633H86.7057V83.6524H85.0327V81.1869Z" fill="white"/>
<path d="M46.4248 151.63L52.073 141L53.4316 141.654L47.7834 152.284L46.4248 151.63Z" fill="white"/>
<path d="M53.9676 151.63L59.6157 141L60.9743 141.654L55.3261 152.284L53.9676 151.63Z" fill="white"/>
<path d="M65.0703 147.428H64.0136V149.894H62.3406V143.705H64.0136V145.919H65.2212C65.6657 145.298 65.9802 144.56 66.1647 143.705H67.8629C67.821 144.208 67.6868 144.724 67.4604 145.252C67.2423 145.772 66.9446 146.283 66.5672 146.787L68.3787 149.894H66.4163L65.0703 147.428Z" fill="white"/>
<path d="M72.525 150.082C71.5438 150.082 70.7681 149.789 70.1978 149.202C69.6275 148.615 69.3424 147.814 69.3424 146.799C69.3424 145.784 69.6275 144.983 70.1978 144.396C70.7681 143.809 71.5438 143.516 72.525 143.516C73.5062 143.516 74.2777 143.809 74.8396 144.396C75.4099 144.983 75.695 145.784 75.695 146.799C75.695 147.814 75.4099 148.615 74.8396 149.202C74.2777 149.789 73.5062 150.082 72.525 150.082ZM70.9651 146.799C70.9651 147.369 71.1035 147.822 71.3803 148.158C71.6654 148.493 72.0428 148.661 72.5124 148.661C72.9904 148.661 73.372 148.493 73.6571 148.158C73.9423 147.814 74.0848 147.348 74.0848 146.761C74.0848 146.2 73.9423 145.755 73.6571 145.428C73.372 145.101 72.9904 144.937 72.5124 144.937C72.0428 144.937 71.6654 145.105 71.3803 145.441C71.1035 145.776 70.9651 146.229 70.9651 146.799Z" fill="white"/>
<path d="M79.7407 148.46L78.5834 146.359V149.894H77.0487V143.705H78.4827L80.0552 146.459L81.6276 143.705H83.0616V149.894H81.527V146.359L80.3696 148.46H79.7407Z" fill="white"/>
<path d="M88.5162 149.126C88.2227 149.395 87.8872 149.621 87.5099 149.806C87.1325 149.982 86.7593 150.07 86.3903 150.07C85.8536 150.07 85.4259 149.91 85.1072 149.592C84.7969 149.265 84.6417 148.808 84.6417 148.221C84.6417 147.894 84.6921 147.571 84.7927 147.252C84.8933 146.933 85.0191 146.669 85.1701 146.459C85.6649 146.392 86.2938 146.359 87.057 146.359C87.5602 146.359 88.0172 146.371 88.4282 146.397V146.271C88.4282 145.877 88.3653 145.571 88.2395 145.352C88.1137 145.134 87.8579 145.025 87.4721 145.025C87.2121 145.025 86.8767 145.063 86.4658 145.139C86.0548 145.206 85.6565 145.315 85.2707 145.466C85.1198 145.038 85.0191 144.598 84.9688 144.145C86.0171 143.751 86.9228 143.554 87.686 143.554C88.2143 143.554 88.6504 143.621 88.9942 143.755C89.3465 143.881 89.6148 144.111 89.7993 144.447C89.9922 144.782 90.0886 145.252 90.0886 145.856V148.535L90.9944 148.434C91.0111 148.736 91.0195 148.971 91.0195 149.139C91.0195 149.298 91.0111 149.537 90.9944 149.856C90.7176 149.923 90.3235 149.957 89.8119 149.957C89.3758 149.957 89.0068 149.936 88.7049 149.894L88.5162 149.126ZM86.2771 148.007C86.2771 148.275 86.3274 148.468 86.428 148.585C86.5287 148.703 86.709 148.762 86.9689 148.762C87.1702 148.762 87.4092 148.72 87.686 148.636C87.9711 148.552 88.2185 148.447 88.4282 148.321V147.378C88.0927 147.361 87.6776 147.353 87.1828 147.353C86.8306 147.353 86.579 147.357 86.428 147.365C86.3274 147.541 86.2771 147.755 86.2771 148.007Z" fill="white"/>
<path d="M96.2854 147.428H94.0085V149.894H92.348V143.705H94.0085V145.893H96.2854V143.705H97.9585V149.894H96.2854V147.428Z" fill="white"/>
<path d="M99.4128 148.359C99.765 148.351 100.017 148.267 100.168 148.107C100.318 147.94 100.423 147.541 100.482 146.912C100.541 146.275 100.574 145.206 100.583 143.705H105.363V148.359H105.967V151.428H104.432L104.545 149.894H100.822L100.935 151.428H99.4002V148.359H99.4128ZM103.69 148.359V145.239H102.193C102.184 146.002 102.151 146.636 102.092 147.139C102.042 147.634 101.954 148.04 101.828 148.359H103.69Z" fill="white"/>
<path d="M111.144 149.126C110.851 149.395 110.515 149.621 110.138 149.806C109.761 149.982 109.388 150.07 109.019 150.07C108.482 150.07 108.054 149.91 107.735 149.592C107.425 149.265 107.27 148.808 107.27 148.221C107.27 147.894 107.32 147.571 107.421 147.252C107.522 146.933 107.647 146.669 107.798 146.459C108.293 146.392 108.922 146.359 109.685 146.359C110.188 146.359 110.645 146.371 111.056 146.397V146.271C111.056 145.877 110.994 145.571 110.868 145.352C110.742 145.134 110.486 145.025 110.1 145.025C109.84 145.025 109.505 145.063 109.094 145.139C108.683 145.206 108.285 145.315 107.899 145.466C107.748 145.038 107.647 144.598 107.597 144.145C108.645 143.751 109.551 143.554 110.314 143.554C110.843 143.554 111.279 143.621 111.622 143.755C111.975 143.881 112.243 144.111 112.428 144.447C112.62 144.782 112.717 145.252 112.717 145.856V148.535L113.623 148.434C113.639 148.736 113.648 148.971 113.648 149.139C113.648 149.298 113.639 149.537 113.623 149.856C113.346 149.923 112.952 149.957 112.44 149.957C112.004 149.957 111.635 149.936 111.333 149.894L111.144 149.126ZM108.905 148.007C108.905 148.275 108.956 148.468 109.056 148.585C109.157 148.703 109.337 148.762 109.597 148.762C109.798 148.762 110.037 148.72 110.314 148.636C110.599 148.552 110.847 148.447 111.056 148.321V147.378C110.721 147.361 110.306 147.353 109.811 147.353C109.459 147.353 109.207 147.357 109.056 147.365C108.956 147.541 108.905 147.755 108.905 148.007Z" fill="white"/>
<path d="M126.23 149.126C125.936 149.395 125.601 149.621 125.224 149.806C124.846 149.982 124.473 150.07 124.104 150.07C123.567 150.07 123.14 149.91 122.821 149.592C122.511 149.265 122.355 148.808 122.355 148.221C122.355 147.894 122.406 147.571 122.506 147.252C122.607 146.933 122.733 146.669 122.884 146.459C123.379 146.392 124.008 146.359 124.771 146.359C125.274 146.359 125.731 146.371 126.142 146.397V146.271C126.142 145.877 126.079 145.571 125.953 145.352C125.827 145.134 125.572 145.025 125.186 145.025C124.926 145.025 124.59 145.063 124.18 145.139C123.769 145.206 123.37 145.315 122.984 145.466C122.834 145.038 122.733 144.598 122.683 144.145C123.731 143.751 124.637 143.554 125.4 143.554C125.928 143.554 126.364 143.621 126.708 143.755C127.06 143.881 127.329 144.111 127.513 144.447C127.706 144.782 127.802 145.252 127.802 145.856V148.535L128.708 148.434C128.725 148.736 128.733 148.971 128.733 149.139C128.733 149.298 128.725 149.537 128.708 149.856C128.431 149.923 128.037 149.957 127.526 149.957C127.09 149.957 126.721 149.936 126.419 149.894L126.23 149.126ZM123.991 148.007C123.991 148.275 124.041 148.468 124.142 148.585C124.242 148.703 124.423 148.762 124.683 148.762C124.884 148.762 125.123 148.72 125.4 148.636C125.685 148.552 125.932 148.447 126.142 148.321V147.378C125.806 147.361 125.391 147.353 124.897 147.353C124.544 147.353 124.293 147.357 124.142 147.365C124.041 147.541 123.991 147.755 123.991 148.007Z" fill="white"/>
<path d="M130.703 143.705H135.458V145.34L132.364 145.189V149.894H130.703V143.705Z" fill="white"/>
<path d="M140.775 150.07C139.668 150.07 138.821 149.785 138.234 149.214C137.646 148.636 137.353 147.822 137.353 146.774C137.353 146.12 137.479 145.55 137.73 145.063C137.982 144.568 138.338 144.187 138.8 143.918C139.261 143.65 139.798 143.516 140.41 143.516C140.988 143.516 141.5 143.637 141.944 143.881C142.389 144.116 142.733 144.459 142.976 144.912C143.228 145.365 143.353 145.898 143.353 146.51C143.353 146.728 143.324 146.954 143.265 147.189C142.636 147.29 141.986 147.357 141.315 147.39C140.645 147.416 139.852 147.428 138.938 147.428C139.013 147.831 139.198 148.133 139.491 148.334C139.793 148.535 140.246 148.636 140.85 148.636C141.529 148.636 142.183 148.552 142.812 148.384C142.938 148.72 143.022 149.11 143.064 149.554C142.796 149.713 142.456 149.839 142.045 149.931C141.643 150.024 141.219 150.07 140.775 150.07ZM138.925 146.296C139.881 146.296 140.816 146.258 141.731 146.183C141.63 145.311 141.156 144.874 140.309 144.874C139.923 144.874 139.609 144.992 139.366 145.227C139.131 145.462 138.984 145.818 138.925 146.296Z" fill="white"/>
<path d="M149.085 147.428H146.808V149.894H145.147V143.705H146.808V145.893H149.085V143.705H150.758V149.894H149.085V147.428Z" fill="white"/>
<path d="M154.627 145.164H152.589L152.527 143.705H158.414L158.464 145.164H156.363V149.894H154.627V145.164Z" fill="white"/>
<path d="M163.554 150.07C162.371 150.07 161.47 149.78 160.849 149.202C160.237 148.623 159.931 147.81 159.931 146.761C159.931 145.721 160.229 144.921 160.824 144.359C161.419 143.797 162.266 143.516 163.365 143.516C164.22 143.516 165.021 143.688 165.768 144.032C165.785 144.501 165.793 144.879 165.793 145.164C165.793 145.667 165.776 146.107 165.743 146.485L165.214 146.497C164.812 146.497 164.464 146.48 164.17 146.447L164.371 145.088C164.044 144.996 163.726 144.95 163.415 144.95C162.82 144.95 162.376 145.097 162.082 145.39C161.788 145.684 161.642 146.141 161.642 146.761C161.642 147.374 161.809 147.835 162.145 148.145C162.489 148.455 163.042 148.611 163.805 148.611C164.057 148.611 164.346 148.59 164.673 148.548C165 148.497 165.311 148.434 165.604 148.359C165.713 148.711 165.793 149.11 165.843 149.554C165.214 149.898 164.451 150.07 163.554 150.07Z" fill="white"/>
<path d="M169.713 145.164H167.675L167.612 143.705H173.499L173.55 145.164H171.449V149.894H169.713V145.164Z" fill="white"/>
<path d="M175.557 143.705H178.765C179.453 143.705 179.96 143.835 180.287 144.095C180.623 144.346 180.79 144.698 180.79 145.151C180.79 145.621 180.593 146.036 180.199 146.397C180.56 146.548 180.836 146.77 181.029 147.063C181.222 147.348 181.319 147.692 181.319 148.095C181.319 148.623 181.122 149.055 180.727 149.39C180.333 149.726 179.721 149.894 178.891 149.894H175.557V143.705ZM178.866 148.636C179.386 148.636 179.646 148.409 179.646 147.956C179.646 147.738 179.583 147.579 179.457 147.478C179.331 147.369 179.134 147.315 178.866 147.315H177.117V148.636H178.866ZM178.891 146.17H178.992C179.176 145.969 179.268 145.747 179.268 145.503C179.268 145.143 179.038 144.963 178.576 144.963H177.117V146.17H178.891Z" fill="white"/>
<path d="M186.572 149.126C186.278 149.395 185.943 149.621 185.566 149.806C185.188 149.982 184.815 150.07 184.446 150.07C183.909 150.07 183.482 149.91 183.163 149.592C182.853 149.265 182.698 148.808 182.698 148.221C182.698 147.894 182.748 147.571 182.848 147.252C182.949 146.933 183.075 146.669 183.226 146.459C183.721 146.392 184.35 146.359 185.113 146.359C185.616 146.359 186.073 146.371 186.484 146.397V146.271C186.484 145.877 186.421 145.571 186.295 145.352C186.169 145.134 185.914 145.025 185.528 145.025C185.268 145.025 184.932 145.063 184.522 145.139C184.111 145.206 183.712 145.315 183.326 145.466C183.176 145.038 183.075 144.598 183.025 144.145C184.073 143.751 184.979 143.554 185.742 143.554C186.27 143.554 186.706 143.621 187.05 143.755C187.402 143.881 187.671 144.111 187.855 144.447C188.048 144.782 188.144 145.252 188.144 145.856V148.535L189.05 148.434C189.067 148.736 189.075 148.971 189.075 149.139C189.075 149.298 189.067 149.537 189.05 149.856C188.773 149.923 188.379 149.957 187.868 149.957C187.432 149.957 187.063 149.936 186.761 149.894L186.572 149.126ZM184.333 148.007C184.333 148.275 184.383 148.468 184.484 148.585C184.584 148.703 184.765 148.762 185.025 148.762C185.226 148.762 185.465 148.72 185.742 148.636C186.027 148.552 186.274 148.447 186.484 148.321V147.378C186.148 147.361 185.733 147.353 185.239 147.353C184.886 147.353 184.635 147.357 184.484 147.365C184.383 147.541 184.333 147.755 184.333 148.007Z" fill="white"/>
<path d="M43.1074 226.122L48.7556 215.492L50.1142 216.146L44.466 226.776L43.1074 226.122Z" fill="white"/>
<path d="M50.6502 226.122L56.2983 215.492L57.6569 216.146L52.0088 226.776L50.6502 226.122Z" fill="white"/>
<path d="M58.1929 226.122L63.8411 215.492L65.1997 216.146L59.5515 226.776L58.1929 226.122Z" fill="white"/>
<path d="M69.2957 221.92H68.239V224.386H66.5659V218.197H68.239V220.411H69.4466C69.8911 219.79 70.2056 219.052 70.3901 218.197H72.0883C72.0464 218.7 71.9122 219.216 71.6857 219.744C71.4677 220.264 71.17 220.776 70.7926 221.279L72.604 224.386H70.6417L69.2957 221.92Z" fill="white"/>
<path d="M77.8699 219.731H76.2472C76.2304 220.956 76.1423 221.904 75.983 222.574C75.8237 223.237 75.5469 223.715 75.1528 224.008C74.767 224.302 74.2009 224.453 73.4545 224.461L73.3539 222.927C73.7816 222.893 74.0751 222.788 74.2345 222.612C74.3938 222.436 74.4986 222.05 74.5489 221.455C74.5993 220.851 74.6286 219.765 74.637 218.197H79.543V224.386H77.8699V219.731Z" fill="white"/>
<path d="M85.551 224.386V220.675L82.9974 224.386H81.513V218.197H83.1484V221.92L85.702 218.197H87.1864V224.386H85.551Z" fill="white"/>
<path d="M92.2006 224.562C91.0937 224.562 90.2466 224.277 89.6596 223.707C89.0726 223.128 88.779 222.314 88.779 221.266C88.779 220.612 88.9048 220.042 89.1564 219.555C89.408 219.061 89.7644 218.679 90.2257 218.411C90.6869 218.142 91.2236 218.008 91.8358 218.008C92.4145 218.008 92.9261 218.13 93.3705 218.373C93.815 218.608 94.1589 218.952 94.4021 219.404C94.6536 219.857 94.7794 220.39 94.7794 221.002C94.7794 221.22 94.7501 221.446 94.6914 221.681C94.0624 221.782 93.4125 221.849 92.7416 221.883C92.0707 221.908 91.2782 221.92 90.3641 221.92C90.4395 222.323 90.624 222.625 90.9175 222.826C91.2195 223.027 91.6723 223.128 92.2761 223.128C92.9554 223.128 93.6096 223.044 94.2385 222.876C94.3643 223.212 94.4482 223.602 94.4901 224.046C94.2217 224.206 93.8821 224.331 93.4712 224.424C93.0686 224.516 92.6451 224.562 92.2006 224.562ZM90.3515 220.788C91.3075 220.788 92.2426 220.75 93.1567 220.675C93.0561 219.803 92.5822 219.367 91.7352 219.367C91.3494 219.367 91.035 219.484 90.7918 219.719C90.5569 219.954 90.4102 220.31 90.3515 220.788Z" fill="white"/>
<path d="M100.511 221.92H98.2339V224.386H96.5734V218.197H98.2339V220.386H100.511V218.197H102.184V224.386H100.511V221.92Z" fill="white"/>
<path d="M106.053 219.656H104.015L103.953 218.197H109.84L109.89 219.656H107.789V224.386H106.053V219.656Z" fill="white"/>
<path fill-rule="evenodd" clip-rule="evenodd" d="M42.4004 89.9414L197.4 89.9414V90.7276L42.4004 90.7276V89.9414Z" fill="#1155CC"/>
<path fill-rule="evenodd" clip-rule="evenodd" d="M43 159L198 159V159.983L43 159.983V159Z" fill="#4B0F35"/>
<path fill-rule="evenodd" clip-rule="evenodd" d="M42 233H197V233.786H42V233Z" fill="#CFE2F3"/>
<path fill-rule="evenodd" clip-rule="evenodd" d="M145.057 367.539H0V364.787H145.057V367.539Z" fill="white"/>
<path d="M33.7857 334.287H35.6234V337.429H36.8752C37.2037 336.96 37.51 336.429 37.7941 335.838C38.087 335.239 38.2912 334.722 38.4066 334.287H40.2177C40.0668 334.939 39.8271 335.608 39.4986 336.295C39.179 336.973 38.8061 337.629 38.38 338.263L40.8303 342.63H38.7529L36.7687 338.954H35.6234V342.63H33.7857V334.287Z" fill="white"/>
<path d="M45.0199 342.826C43.9812 342.826 43.16 342.522 42.5563 341.913C41.9526 341.305 41.6507 340.475 41.6507 339.423C41.6507 338.372 41.9526 337.542 42.5563 336.933C43.16 336.325 43.9812 336.021 45.0199 336.021C46.0586 336.021 46.8754 336.325 47.4702 336.933C48.0739 337.542 48.3757 338.372 48.3757 339.423C48.3757 340.475 48.0739 341.305 47.4702 341.913C46.8754 342.522 46.0586 342.826 45.0199 342.826ZM43.3686 339.423C43.3686 340.014 43.5151 340.484 43.8081 340.831C44.1099 341.179 44.5094 341.353 45.0066 341.353C45.5126 341.353 45.9165 341.179 46.2184 340.831C46.5202 340.475 46.6712 339.993 46.6712 339.384C46.6712 338.802 46.5202 338.341 46.2184 338.002C45.9165 337.663 45.5126 337.494 45.0066 337.494C44.5094 337.494 44.1099 337.668 43.8081 338.015C43.5151 338.363 43.3686 338.832 43.3686 339.423Z" fill="white"/>
<path d="M52.6585 341.144L51.4334 338.967V342.63H49.8087V336.216H51.3269L52.9915 339.071L54.6561 336.216H56.1742V342.63H54.5495V338.967L53.3244 341.144H52.6585Z" fill="white"/>
<path d="M62.1882 337.807H59.7778V342.63H58.0067V336.216H63.9726V342.63H62.1882V337.807Z" fill="white"/>
<path d="M70.1597 337.807H68.4419C68.4241 339.076 68.3309 340.058 68.1622 340.753C67.9935 341.44 67.7006 341.935 67.2833 342.239C66.8749 342.543 66.2757 342.7 65.4855 342.708L65.379 341.118C65.8318 341.083 66.1425 340.975 66.3112 340.792C66.4799 340.61 66.5908 340.21 66.6441 339.593C66.6974 338.967 66.7284 337.842 66.7373 336.216H71.9309V342.63H70.1597V337.807Z" fill="white"/>
<path d="M77.3456 342.813C76.1737 342.813 75.2771 342.517 74.6556 341.926C74.0342 341.327 73.7234 340.484 73.7234 339.397C73.7234 338.719 73.8566 338.128 74.123 337.624C74.3893 337.112 74.7666 336.716 75.2549 336.438C75.7432 336.16 76.3113 336.021 76.9594 336.021C77.572 336.021 78.1136 336.147 78.5841 336.399C79.0546 336.642 79.4186 336.999 79.6761 337.468C79.9424 337.937 80.0756 338.489 80.0756 339.124C80.0756 339.349 80.0445 339.584 79.9823 339.827C79.3165 339.932 78.6285 340.001 77.9182 340.036C77.208 340.062 76.3691 340.075 75.4014 340.075C75.4813 340.492 75.6766 340.805 75.9873 341.014C76.3069 341.222 76.7863 341.327 77.4255 341.327C78.1446 341.327 78.8371 341.24 79.5029 341.066C79.6361 341.414 79.7249 341.818 79.7693 342.278C79.4852 342.443 79.1256 342.574 78.6906 342.669C78.2645 342.765 77.8161 342.813 77.3456 342.813ZM75.3881 338.902C76.4001 338.902 77.39 338.863 78.3577 338.785C78.2512 337.881 77.7496 337.429 76.8529 337.429C76.4445 337.429 76.1116 337.55 75.8541 337.794C75.6056 338.037 75.4502 338.407 75.3881 338.902Z" fill="white"/>
<path d="M85.0375 340.075H83.9189V342.63H82.1478V336.216H83.9189V338.511H85.1973C85.6679 337.868 86.0008 337.103 86.1961 336.216H87.9939C87.9495 336.738 87.8074 337.272 87.5677 337.82C87.3369 338.359 87.0217 338.889 86.6222 339.41L88.5399 342.63H86.4624L85.0375 340.075Z" fill="white"/>
<path d="M93.4752 342.813C92.2234 342.813 91.269 342.513 90.6121 341.913C89.964 341.314 89.6399 340.471 89.6399 339.384C89.6399 338.307 89.9551 337.477 90.5854 336.894C91.2158 336.312 92.1124 336.021 93.2754 336.021C94.181 336.021 95.0288 336.199 95.819 336.555C95.8367 337.042 95.8456 337.433 95.8456 337.729C95.8456 338.25 95.8278 338.706 95.7923 339.097L95.233 339.11C94.8069 339.11 94.4384 339.093 94.1277 339.058L94.3408 337.65C93.9946 337.555 93.6572 337.507 93.3287 337.507C92.6984 337.507 92.2279 337.659 91.9171 337.963C91.6064 338.267 91.451 338.741 91.451 339.384C91.451 340.019 91.6286 340.497 91.9837 340.818C92.3477 341.14 92.9336 341.301 93.7415 341.301C94.0079 341.301 94.3142 341.279 94.6604 341.235C95.0066 341.183 95.3351 341.118 95.6458 341.04C95.7612 341.405 95.8456 341.818 95.8989 342.278C95.233 342.635 94.4251 342.813 93.4752 342.813Z" fill="white"/>
<path d="M102.113 340.075H99.7023V342.63H97.9444V336.216H99.7023V338.485H102.113V336.216H103.884V342.63H102.113V340.075Z" fill="white"/>
<path d="M108.899 342.826C107.86 342.826 107.039 342.522 106.435 341.913C105.832 341.305 105.53 340.475 105.53 339.423C105.53 338.372 105.832 337.542 106.435 336.933C107.039 336.325 107.86 336.021 108.899 336.021C109.938 336.021 110.754 336.325 111.349 336.933C111.953 337.542 112.255 338.372 112.255 339.423C112.255 340.475 111.953 341.305 111.349 341.913C110.754 342.522 109.938 342.826 108.899 342.826ZM107.248 339.423C107.248 340.014 107.394 340.484 107.687 340.831C107.989 341.179 108.389 341.353 108.886 341.353C109.392 341.353 109.796 341.179 110.097 340.831C110.399 340.475 110.55 339.993 110.55 339.384C110.55 338.802 110.399 338.341 110.097 338.002C109.796 337.663 109.392 337.494 108.886 337.494C108.389 337.494 107.989 337.668 107.687 338.015C107.394 338.363 107.248 338.832 107.248 339.423Z" fill="white"/>
<path d="M117.27 342.813C116.098 342.813 115.202 342.517 114.58 341.926C113.959 341.327 113.648 340.484 113.648 339.397C113.648 338.719 113.781 338.128 114.047 337.624C114.314 337.112 114.691 336.716 115.179 336.438C115.668 336.16 116.236 336.021 116.884 336.021C117.496 336.021 118.038 336.147 118.509 336.399C118.979 336.642 119.343 336.999 119.601 337.468C119.867 337.937 120 338.489 120 339.124C120 339.349 119.969 339.584 119.907 339.827C119.241 339.932 118.553 340.001 117.843 340.036C117.132 340.062 116.293 340.075 115.326 340.075C115.406 340.492 115.601 340.805 115.912 341.014C116.231 341.222 116.711 341.327 117.35 341.327C118.069 341.327 118.762 341.24 119.427 341.066C119.561 341.414 119.649 341.818 119.694 342.278C119.41 342.443 119.05 342.574 118.615 342.669C118.189 342.765 117.741 342.813 117.27 342.813ZM115.312 338.902C116.325 338.902 117.314 338.863 118.282 338.785C118.176 337.881 117.674 337.429 116.777 337.429C116.369 337.429 116.036 337.55 115.779 337.794C115.53 338.037 115.375 338.407 115.312 338.902Z" fill="white"/>
<path d="M37.9938 350.279C38.4732 350.279 38.8949 350.405 39.2589 350.657C39.6318 350.901 39.9203 351.261 40.1245 351.739C40.3287 352.209 40.4308 352.769 40.4308 353.421C40.4308 354.064 40.2976 354.642 40.0313 355.155C39.7738 355.659 39.4143 356.054 38.9526 356.341C38.491 356.619 37.9761 356.758 37.4079 356.758C36.9995 356.758 36.5156 356.693 35.9563 356.563V357.97L37.4745 357.801C37.4922 358.131 37.5011 358.379 37.5011 358.544C37.5011 358.709 37.4922 358.957 37.4745 359.287H33.0266C33.0089 358.957 33 358.709 33 358.544C33 358.379 33.0089 358.131 33.0266 357.801L34.1852 357.957V349.693C34.4959 349.666 34.8022 349.653 35.1041 349.653C35.4237 349.653 35.7433 349.666 36.0629 349.693L35.8897 351.035C36.6 350.531 37.3013 350.279 37.9938 350.279ZM35.9563 355.142C36.4002 355.246 36.7509 355.298 37.0084 355.298C37.5588 355.298 37.9805 355.133 38.2735 354.803C38.5753 354.472 38.7262 354.016 38.7262 353.434C38.7262 352.886 38.6241 352.474 38.4199 352.195C38.2246 351.909 37.9095 351.765 37.4745 351.765C36.9507 351.765 36.4446 351.887 35.9563 352.13V355.142Z" fill="white"/>
<path d="M45.4061 357.071C44.2342 357.071 43.3375 356.775 42.7161 356.185C42.0946 355.585 41.7839 354.742 41.7839 353.656C41.7839 352.978 41.9171 352.387 42.1834 351.883C42.4497 351.37 42.827 350.974 43.3153 350.696C43.8036 350.418 44.3718 350.279 45.0199 350.279C45.6325 350.279 46.174 350.405 46.6445 350.657C47.1151 350.901 47.4791 351.257 47.7365 351.726C48.0028 352.195 48.136 352.747 48.136 353.382C48.136 353.608 48.1049 353.842 48.0428 354.086C47.377 354.19 46.6889 354.26 45.9787 354.294C45.2685 354.32 44.4295 354.333 43.4618 354.333C43.5417 354.751 43.737 355.063 44.0478 355.272C44.3674 355.481 44.8468 355.585 45.486 355.585C46.2051 355.585 46.8976 355.498 47.5634 355.324C47.6966 355.672 47.7853 356.076 47.8297 356.536C47.5456 356.702 47.1861 356.832 46.7511 356.928C46.3249 357.023 45.8766 357.071 45.4061 357.071ZM43.4485 353.16C44.4606 353.16 45.4505 353.121 46.4181 353.043C46.3116 352.139 45.81 351.687 44.9133 351.687C44.505 351.687 44.172 351.809 43.9146 352.052C43.666 352.295 43.5106 352.665 43.4485 353.16Z" fill="white"/>
<path d="M49.7421 350.475H51.3269V355.298H52.3656V350.475H53.6173V355.298H54.6561V350.475H56.2408V356.888H49.7421V350.475Z" fill="white"/>
<path d="M61.3758 357.071C60.204 357.071 59.3073 356.775 58.6858 356.185C58.0644 355.585 57.7537 354.742 57.7537 353.656C57.7537 352.978 57.8868 352.387 58.1532 351.883C58.4195 351.37 58.7968 350.974 59.2851 350.696C59.7734 350.418 60.3416 350.279 60.9897 350.279C61.6022 350.279 62.1438 350.405 62.6143 350.657C63.0848 350.901 63.4488 351.257 63.7063 351.726C63.9726 352.195 64.1058 352.747 64.1058 353.382C64.1058 353.608 64.0747 353.842 64.0126 354.086C63.3467 354.19 62.6587 354.26 61.9485 354.294C61.2382 354.32 60.3993 354.333 59.4316 354.333C59.5115 354.751 59.7068 355.063 60.0175 355.272C60.3371 355.481 60.8165 355.585 61.4557 355.585C62.1749 355.585 62.8673 355.498 63.5332 355.324C63.6663 355.672 63.7551 356.076 63.7995 356.536C63.5154 356.702 63.1559 356.832 62.7208 356.928C62.2947 357.023 61.8464 357.071 61.3758 357.071ZM59.4183 353.16C60.4303 353.16 61.4202 353.121 62.3879 353.043C62.2814 352.139 61.7798 351.687 60.8831 351.687C60.4747 351.687 60.1418 351.809 59.8844 352.052C59.6358 352.295 59.4804 352.665 59.4183 353.16Z" fill="white"/>
<path d="M70.1731 354.333H67.7627V356.888H66.0049V350.475H67.7627V352.743H70.1731V350.475H71.9442V356.888H70.1731V354.333Z" fill="white"/>
<path d="M78.2911 356.888V353.043L75.5878 356.888H74.0164V350.475H75.7476V354.333L78.4509 350.475H80.0223V356.888H78.2911Z" fill="white"/>
<path d="M85.3305 357.071C84.1586 357.071 83.262 356.775 82.6405 356.185C82.0191 355.585 81.7083 354.742 81.7083 353.656C81.7083 352.978 81.8415 352.387 82.1078 351.883C82.3742 351.37 82.7515 350.974 83.2398 350.696C83.7281 350.418 84.2962 350.279 84.9443 350.279C85.5569 350.279 86.0984 350.405 86.569 350.657C87.0395 350.901 87.4035 351.257 87.6609 351.726C87.9273 352.195 88.0605 352.747 88.0605 353.382C88.0605 353.608 88.0294 353.842 87.9672 354.086C87.3014 354.19 86.6134 354.26 85.9031 354.294C85.1929 354.32 84.3539 354.333 83.3863 354.333C83.4662 354.751 83.6615 355.063 83.9722 355.272C84.2918 355.481 84.7712 355.585 85.4104 355.585C86.1295 355.585 86.822 355.498 87.4878 355.324C87.621 355.672 87.7098 356.076 87.7542 356.536C87.4701 356.702 87.1105 356.832 86.6755 356.928C86.2494 357.023 85.801 357.071 85.3305 357.071ZM83.3729 353.16C84.385 353.16 85.3749 353.121 86.3426 353.043C86.236 352.139 85.7345 351.687 84.8378 351.687C84.4294 351.687 84.0965 351.809 83.839 352.052C83.5904 352.295 83.4351 352.665 83.3729 353.16Z" fill="white"/>
<path d="M26.0354 343.631H12V345.946H26.0354V343.631Z" fill="white"/>
<path d="M18.0684 339L18.0684 355.205L19.965 355.205L19.965 339L18.0684 339Z" fill="white"/>
<path d="M26.0354 348.26H12V350.575H26.0354V348.26Z" fill="white"/>
</g>
<defs>
<clipPath id="clip0_3639_2">
<rect width="326" height="367" fill="white"/>
</clipPath>
</defs>
</svg>
