<svg width="326" height="367" viewBox="0 0 326 367" fill="none" xmlns="http://www.w3.org/2000/svg">
<g clip-path="url(#clip0_3375_88)">
<rect width="326" height="367" fill="white"/>
<rect y="2" width="326" height="365" fill="white"/>
<path d="M296.14 23.32L301.765 23.41L301.675 18.19H305.995L305.905 23.41L311.575 23.32V27.64L305.905 27.505L305.995 32.725H301.675L301.765 27.505L296.14 27.64V23.32Z" fill="black"/>
<path d="M41.38 351L41.485 343.935L36.82 351H35.275V341.25H36.97L36.865 348.3L41.515 341.25H43.06V351H41.38ZM49.8764 347.955H46.8014V351H45.1664V343.725H46.8014V346.455H49.8764V343.725H51.5114V351H49.8764V347.955ZM56.5491 351.225C55.4491 351.225 54.5841 350.88 53.9541 350.19C53.3341 349.5 53.0241 348.545 53.0241 347.325C53.0241 346.535 53.1691 345.855 53.4591 345.285C53.7491 344.705 54.1591 344.265 54.6891 343.965C55.2291 343.655 55.8591 343.5 56.5791 343.5C56.9291 343.5 57.3141 343.545 57.7341 343.635C58.1641 343.725 58.5841 343.87 58.9941 344.07C58.9541 344.49 58.8841 344.955 58.7841 345.465C58.5441 345.385 58.2941 345.305 58.0341 345.225C57.5341 345.085 57.1191 345.015 56.7891 345.015C56.1291 345.015 55.6141 345.22 55.2441 345.63C54.8841 346.03 54.7041 346.595 54.7041 347.325C54.7041 348.105 54.8791 348.7 55.2291 349.11C55.5891 349.52 56.1091 349.725 56.7891 349.725C57.0691 349.725 57.3941 349.68 57.7641 349.59C58.1441 349.49 58.4841 349.38 58.7841 349.26C58.8441 349.5 58.9141 349.96 58.9941 350.64C58.5941 350.84 58.1791 350.985 57.7491 351.075C57.3191 351.175 56.9191 351.225 56.5491 351.225ZM61.7461 345.24H59.3911V343.725H65.7811V345.24H63.4411V351H61.7461V345.24ZM70.937 343.5C71.467 343.5 71.942 343.65 72.362 343.95C72.782 344.24 73.112 344.665 73.352 345.225C73.592 345.775 73.712 346.435 73.712 347.205C73.712 348.045 73.562 348.765 73.262 349.365C72.962 349.955 72.537 350.41 71.987 350.73C71.447 351.04 70.817 351.195 70.097 351.195C69.607 351.195 69.092 351.105 68.552 350.925V353.805H66.917V343.725C67.337 343.705 67.572 343.695 67.622 343.695C67.692 343.695 67.917 343.705 68.297 343.725L68.432 344.52C68.792 344.21 69.187 343.965 69.617 343.785C70.047 343.595 70.487 343.5 70.937 343.5ZM68.552 349.485C69.182 349.705 69.692 349.815 70.082 349.815C70.672 349.815 71.142 349.59 71.492 349.14C71.842 348.68 72.017 348.03 72.017 347.19C72.017 346.49 71.867 345.935 71.567 345.525C71.267 345.115 70.892 344.91 70.442 344.91C69.912 344.91 69.282 345.165 68.552 345.675V349.485ZM76.6807 350.535C75.4607 347.515 74.6407 345.245 74.2207 343.725H75.9007C76.3307 345.115 76.9057 346.875 77.6257 349.005H77.7457C78.4757 346.865 79.0507 345.105 79.4707 343.725H81.1657C80.7157 345.305 79.8907 347.575 78.6907 350.535C78.1107 351.925 77.4707 353.105 76.7707 354.075L75.5107 353.355C76.2207 352.375 76.7657 351.435 77.1457 350.535H76.6807ZM85.7143 349.35L83.7043 346.305V351H82.2193V343.725H83.6293L86.0143 347.355L88.3993 343.725H89.8093V351H88.3243V346.305L86.3293 349.35H85.7143ZM95.0996 351.21C93.9496 351.21 93.0396 350.87 92.3696 350.19C91.6996 349.51 91.3646 348.565 91.3646 347.355C91.3646 346.585 91.5046 345.91 91.7846 345.33C92.0646 344.74 92.4646 344.29 92.9846 343.98C93.5146 343.66 94.1296 343.5 94.8296 343.5C95.8296 343.5 96.6096 343.835 97.1696 344.505C97.7396 345.165 98.0246 346.03 98.0246 347.1C98.0246 347.33 98.0046 347.595 97.9646 347.895H92.9096C93.0796 349.155 93.8596 349.785 95.2496 349.785C95.5896 349.785 95.9796 349.75 96.4196 349.68C96.8596 349.6 97.2446 349.495 97.5746 349.365C97.5946 349.495 97.6446 349.74 97.7246 350.1C97.7446 350.22 97.7646 350.325 97.7846 350.415C97.8046 350.495 97.8196 350.57 97.8296 350.64C96.9996 351.02 96.0896 351.21 95.0996 351.21ZM96.4946 346.68C96.3746 345.46 95.7996 344.85 94.7696 344.85C94.2596 344.85 93.8396 345 93.5096 345.3C93.1896 345.6 92.9896 346.06 92.9096 346.68H96.4946ZM104.207 347.955H101.132V351H99.4969V343.725H101.132V346.455H104.207V343.725H105.842V351H104.207V347.955ZM109.32 345.24H106.965V343.725H113.355V345.24H111.015V351H109.32V345.24ZM114.64 343.725H116.275V345.885H117.925C118.865 345.885 119.59 346.1 120.1 346.53C120.62 346.95 120.88 347.585 120.88 348.435C120.88 349.235 120.64 349.865 120.16 350.325C119.69 350.775 118.96 351 117.97 351H114.64V343.725ZM117.85 349.65C118.29 349.65 118.63 349.55 118.87 349.35C119.11 349.14 119.23 348.835 119.23 348.435C119.23 347.625 118.755 347.22 117.805 347.22H116.275V349.65H117.85ZM122.365 343.725H124.015V351H122.365V343.725Z" fill="black"/>
<path d="M154 243C160.627 243 166 237.627 166 231C166 224.373 160.627 219 154 219C147.373 219 142 224.373 142 231C142 237.627 147.373 243 154 243Z" fill="black"/>
<path d="M163 134H145V205H163V134Z" fill="black"/>
<path d="M195 126H145V139H195V126Z" fill="black"/>
</g>
<defs>
<clipPath id="clip0_3375_88">
<rect width="326" height="367" fill="white"/>
</clipPath>
</defs>
</svg>
