<svg width="17" height="17" viewBox="0 0 17 17" fill="none" xmlns="http://www.w3.org/2000/svg">
<path d="M8.5 17C13.1944 17 17 13.1944 17 8.5C17 3.80558 13.1944 0 8.5 0C3.80558 0 0 3.80558 0 8.5C0 13.1944 3.80558 17 8.5 17Z" fill="white"/>
<path d="M11.875 7.43684C11.875 8.31848 11.5664 9.12434 11.0066 9.70676C10.484 10.2493 9.77539 10.5618 9.0625 10.5618C8.36406 10.5618 7.89766 10.3329 7.60039 10.0931L7.1793 11.8833C7.16318 11.9519 7.12435 12.0131 7.06911 12.0568C7.01387 12.1006 6.94547 12.1244 6.875 12.1243C6.85081 12.1243 6.8267 12.1216 6.80313 12.1161C6.76302 12.1069 6.72512 12.0899 6.69162 12.066C6.65811 12.0421 6.62965 12.0118 6.60788 11.9769C6.5861 11.942 6.57143 11.9031 6.56472 11.8625C6.558 11.8219 6.55937 11.7804 6.56875 11.7404L7.81875 6.42785C7.83771 6.34715 7.88795 6.27728 7.95842 6.23362C8.0289 6.18996 8.11383 6.17608 8.19453 6.19504C8.27524 6.214 8.3451 6.26424 8.38876 6.33472C8.43243 6.40519 8.4463 6.49012 8.42734 6.57082L7.76719 9.37551C7.89062 9.54621 8.25391 9.93684 9.0625 9.93684C10.1379 9.93684 11.25 9.00168 11.25 7.43684C11.2498 7.00554 11.1505 6.58005 10.9596 6.19328C10.7687 5.80651 10.4915 5.46882 10.1492 5.20632C9.80702 4.94382 9.40901 4.76355 8.98599 4.67943C8.56296 4.59532 8.12626 4.60963 7.70965 4.72125C7.29304 4.83286 6.90769 5.0388 6.58338 5.32313C6.25907 5.60747 6.0045 5.96258 5.83935 6.36101C5.6742 6.75945 5.6029 7.19052 5.63096 7.62091C5.65902 8.0513 5.78569 8.46947 6.00117 8.84309C6.04004 8.91467 6.04943 8.9986 6.02733 9.077C6.00523 9.1554 5.95339 9.22207 5.88285 9.26282C5.81232 9.30356 5.72866 9.31515 5.64971 9.29512C5.57076 9.27509 5.50274 9.22503 5.46016 9.15559C5.19665 8.69895 5.04171 8.18783 5.00732 7.66174C4.97293 7.13565 5.06001 6.6087 5.26182 6.12165C5.46363 5.63459 5.77477 5.20049 6.17117 4.8529C6.56757 4.50531 7.03861 4.25356 7.54786 4.11712C8.05711 3.98067 8.59092 3.96319 9.108 4.06603C9.62508 4.16886 10.1116 4.38925 10.5299 4.71016C10.9482 5.03107 11.287 5.44389 11.5203 5.9167C11.7535 6.38951 11.8749 6.90963 11.875 7.43684Z" fill="black" stroke="black" stroke-width="0.5"/>
</svg>
