<svg width="326" height="367" viewBox="0 0 326 367" fill="none" xmlns="http://www.w3.org/2000/svg">
<g clip-path="url(#clip0_3384_2)">
<rect width="326" height="367" fill="white"/>
<rect y="2" width="326" height="365" fill="white"/>
<path d="M296.14 23.32L301.765 23.41L301.675 18.19H305.995L305.905 23.41L311.575 23.32V27.64L305.905 27.505L305.995 32.725H301.675L301.765 27.505L296.14 27.64V23.32Z" fill="black"/>
<path d="M35.26 342.885V341.25H36.955H38.65C39.77 341.25 40.635 341.54 41.245 342.12C41.855 342.7 42.16 343.515 42.16 344.565C42.16 345.575 41.86 346.355 41.26 346.905C40.67 347.445 39.83 347.75 38.74 347.82L36.955 347.94V351H35.26V342.885ZM38.65 346.365C39.25 346.325 39.705 346.155 40.015 345.855C40.325 345.545 40.48 345.115 40.48 344.565C40.48 343.985 40.32 343.54 40 343.23C39.68 342.92 39.23 342.765 38.65 342.765H36.955V346.485L38.65 346.365ZM46.6912 351.21C45.5412 351.21 44.6312 350.87 43.9612 350.19C43.2912 349.51 42.9562 348.565 42.9562 347.355C42.9562 346.585 43.0962 345.91 43.3762 345.33C43.6562 344.74 44.0562 344.29 44.5762 343.98C45.1062 343.66 45.7212 343.5 46.4212 343.5C47.4212 343.5 48.2012 343.835 48.7612 344.505C49.3312 345.165 49.6162 346.03 49.6162 347.1C49.6162 347.33 49.5962 347.595 49.5562 347.895H44.5012C44.6712 349.155 45.4512 349.785 46.8412 349.785C47.1812 349.785 47.5712 349.75 48.0112 349.68C48.4512 349.6 48.8362 349.495 49.1662 349.365C49.1862 349.495 49.2362 349.74 49.3162 350.1C49.3362 350.22 49.3562 350.325 49.3762 350.415C49.3962 350.495 49.4112 350.57 49.4212 350.64C48.5912 351.02 47.6812 351.21 46.6912 351.21ZM48.0862 346.68C47.9662 345.46 47.3912 344.85 46.3612 344.85C45.8512 344.85 45.4312 345 45.1012 345.3C44.7812 345.6 44.5812 346.06 44.5012 346.68H48.0862ZM52.9185 351.225C51.9185 351.225 51.0335 351.07 50.2635 350.76L50.4735 349.47C51.1535 349.67 51.8485 349.77 52.5585 349.77C53.2085 349.77 53.6835 349.68 53.9835 349.5C54.2835 349.31 54.4335 349.055 54.4335 348.735C54.4335 348.425 54.3335 348.185 54.1335 348.015C53.9335 347.845 53.5985 347.75 53.1285 347.73L51.4485 347.82V346.53L53.1285 346.62C53.8185 346.56 54.1635 346.275 54.1635 345.765C54.1635 345.525 54.0535 345.325 53.8335 345.165C53.6135 345.005 53.2385 344.925 52.7085 344.925C52.0085 344.925 51.3435 345.03 50.7135 345.24L50.5185 343.98C50.9585 343.81 51.3785 343.69 51.7785 343.62C52.1785 343.54 52.6085 343.5 53.0685 343.5C53.9385 343.5 54.6035 343.675 55.0635 344.025C55.5235 344.375 55.7535 344.85 55.7535 345.45C55.7535 345.77 55.6935 346.07 55.5735 346.35C55.4535 346.63 55.2685 346.87 55.0185 347.07C55.3585 347.27 55.6035 347.52 55.7535 347.82C55.9035 348.11 55.9785 348.455 55.9785 348.855C55.9785 349.595 55.7185 350.175 55.1985 350.595C54.6785 351.015 53.9185 351.225 52.9185 351.225ZM58.4938 350.535C57.2738 347.515 56.4538 345.245 56.0338 343.725H57.7138C58.1438 345.115 58.7188 346.875 59.4388 349.005H59.5588C60.2888 346.865 60.8638 345.105 61.2838 343.725H62.9788C62.5288 345.305 61.7038 347.575 60.5038 350.535C59.9238 351.925 59.2838 353.105 58.5838 354.075L57.3238 353.355C58.0338 352.375 58.5788 351.435 58.9588 350.535H58.4938ZM68.6932 345.225H66.0082C65.9882 346.785 65.8932 347.97 65.7232 348.78C65.5532 349.59 65.2482 350.17 64.8082 350.52C64.3682 350.87 63.7232 351.055 62.8732 351.075L62.7832 349.575C63.3132 349.535 63.6782 349.4 63.8782 349.17C64.0882 348.94 64.2282 348.455 64.2982 347.715C64.3682 346.965 64.4082 345.635 64.4182 343.725H70.3282V351H68.6932V345.225ZM72.3885 343.725H74.0235V345.885H75.9285C76.8685 345.885 77.5935 346.1 78.1035 346.53C78.6135 346.95 78.8685 347.585 78.8685 348.435C78.8685 349.235 78.6335 349.865 78.1635 350.325C77.6935 350.775 76.9635 351 75.9735 351H72.3885V343.725ZM75.8535 349.65C76.2935 349.65 76.6335 349.55 76.8735 349.35C77.1135 349.14 77.2335 348.835 77.2335 348.435C77.2335 347.625 76.7535 347.22 75.7935 347.22H74.0235V349.65H75.8535ZM81.7682 345.24H79.4132V343.725H85.8032V345.24H83.4632V351H81.7682V345.24ZM91.2141 350.115C90.8441 350.435 90.4241 350.7 89.9541 350.91C89.4941 351.11 89.0541 351.21 88.6341 351.21C87.9741 351.21 87.4491 351.015 87.0591 350.625C86.6791 350.235 86.4891 349.67 86.4891 348.93C86.4891 348.22 86.6741 347.535 87.0441 346.875C87.5341 346.825 88.1491 346.8 88.8891 346.8C89.4191 346.8 90.1641 346.82 91.1241 346.86V346.635C91.1241 346.115 91.0341 345.715 90.8541 345.435C90.6841 345.145 90.3541 345 89.8641 345C89.5441 345 89.1491 345.05 88.6791 345.15C88.2091 345.24 87.7291 345.375 87.2391 345.555C87.1091 345.165 86.9941 344.72 86.8941 344.22C88.1141 343.77 89.1691 343.545 90.0591 343.545C90.9291 343.545 91.5891 343.745 92.0391 344.145C92.4891 344.545 92.7141 345.235 92.7141 346.215V349.65V351C92.4541 351.02 92.2391 351.03 92.0691 351.03C91.8991 351.03 91.6741 351.02 91.3941 351L91.2141 350.115ZM88.0341 348.81C88.0341 349.49 88.3841 349.83 89.0841 349.83C89.3941 349.83 89.7241 349.76 90.0741 349.62C90.4341 349.47 90.7841 349.275 91.1241 349.035V347.955C90.4141 347.915 89.7091 347.895 89.0091 347.895C88.6191 347.895 88.3391 347.9 88.1691 347.91C88.0791 348.16 88.0341 348.46 88.0341 348.81ZM96.0147 345.24H93.6597V343.725H100.05V345.24H97.7097V351H96.0147V345.24Z" fill="black"/>
<path d="M148.109 229C144.387 216.594 141.431 204.977 139.241 194.15L133 195.278V176.331H152.489C154.898 190.992 157.599 204.075 160.591 215.579C167.599 191.218 172.416 165.692 175.044 139H193C191.905 150.729 189.35 165.541 185.336 183.436C181.394 201.331 177.416 216.519 173.401 229H148.109Z" fill="black"/>
</g>
<defs>
<clipPath id="clip0_3384_2">
<rect width="326" height="367" fill="white"/>
</clipPath>
</defs>
</svg>
