<svg width="1000" height="1000" viewBox="0 0 1000 1000" fill="none" xmlns="http://www.w3.org/2000/svg">
<path d="M458.333 864.583C234.167 864.583 52.0833 682.5 52.0833 458.333C52.0833 234.167 234.167 52.0833 458.333 52.0833C682.5 52.0833 864.583 234.167 864.583 458.333C864.583 682.5 682.5 864.583 458.333 864.583ZM458.333 114.583C268.75 114.583 114.583 268.75 114.583 458.333C114.583 647.917 268.75 802.083 458.333 802.083C647.917 802.083 802.083 647.917 802.083 458.333C802.083 268.75 647.917 114.583 458.333 114.583Z" fill="#0260E8"/>
<path d="M840 949.583C836.667 949.583 833.333 949.167 830.417 948.75C810.833 946.25 775.417 932.917 755.417 873.333C745 842.083 748.75 810.833 765.833 787.083C782.917 763.333 811.667 750 844.583 750C887.083 750 920.417 766.25 935.417 795C950.417 823.75 946.25 860.417 922.5 895.833C892.917 940.417 860.833 949.583 840 949.583ZM815 853.75C822.083 875.417 832.083 886.25 838.75 887.083C845.417 887.917 857.917 880 870.833 861.25C882.917 843.333 883.75 830.417 880.833 824.583C877.917 818.75 866.25 812.5 844.583 812.5C831.667 812.5 822.083 816.667 816.667 823.75C811.667 830.833 810.833 841.667 815 853.75Z" fill="#0260E8"/>
</svg>
