<svg width="326" height="367" viewBox="0 0 326 367" fill="none" xmlns="http://www.w3.org/2000/svg">
<g clip-path="url(#clip0_3375_2)">
<rect width="326" height="367" fill="white"/>
<rect y="2" width="326" height="365" fill="white"/>
<path d="M296.14 23.32L301.765 23.41L301.675 18.19H305.995L305.905 23.41L311.575 23.32V27.64L305.905 27.505L305.995 32.725H301.675L301.765 27.505L296.14 27.64V23.32Z" fill="black"/>
<path d="M38.31 351.225C37.35 351.225 36.52 351.02 35.82 350.61C35.13 350.2 34.6 349.61 34.23 348.84C33.86 348.06 33.675 347.135 33.675 346.065C33.675 345.025 33.865 344.13 34.245 343.38C34.625 342.62 35.165 342.04 35.865 341.64C36.565 341.23 37.39 341.025 38.34 341.025C38.82 341.025 39.26 341.065 39.66 341.145C40.06 341.215 40.515 341.335 41.025 341.505L40.74 342.96C40.42 342.87 40.115 342.8 39.825 342.75C39.345 342.67 38.9 342.63 38.49 342.63C37.56 342.63 36.82 342.935 36.27 343.545C35.72 344.145 35.445 344.98 35.445 346.05C35.445 347.17 35.71 348.045 36.24 348.675C36.77 349.305 37.53 349.62 38.52 349.62C39.18 349.62 39.92 349.505 40.74 349.275L41.04 350.745C40.53 350.915 40.065 351.035 39.645 351.105C39.235 351.185 38.79 351.225 38.31 351.225ZM45.2936 351.225C44.1836 351.225 43.3086 350.88 42.6686 350.19C42.0286 349.49 41.7086 348.55 41.7086 347.37C41.7086 346.18 42.0286 345.24 42.6686 344.55C43.3086 343.85 44.1836 343.5 45.2936 343.5C46.3936 343.5 47.2636 343.85 47.9036 344.55C48.5436 345.24 48.8636 346.18 48.8636 347.37C48.8636 348.15 48.7186 348.83 48.4286 349.41C48.1386 349.99 47.7236 350.44 47.1836 350.76C46.6536 351.07 46.0236 351.225 45.2936 351.225ZM43.4036 347.37C43.4036 348.17 43.5636 348.775 43.8836 349.185C44.2136 349.595 44.6786 349.8 45.2786 349.8C45.8786 349.8 46.3436 349.595 46.6736 349.185C47.0036 348.775 47.1686 348.17 47.1686 347.37C47.1686 346.55 47.0036 345.94 46.6736 345.54C46.3536 345.13 45.8886 344.925 45.2786 344.925C44.6786 344.925 44.2136 345.13 43.8836 345.54C43.5636 345.94 43.4036 346.55 43.4036 347.37ZM50.4547 343.725H52.0897V349.485H54.9547V343.725H56.6047V349.485H57.3847V352.875H55.8847L56.0047 351H50.4547V343.725ZM63.9688 351V346.125L60.3988 351H58.9588V343.725H60.5638V348.555L64.1188 343.725H65.5738V351H63.9688ZM72.067 350.115C71.697 350.435 71.277 350.7 70.807 350.91C70.347 351.11 69.907 351.21 69.487 351.21C68.827 351.21 68.302 351.015 67.912 350.625C67.532 350.235 67.342 349.67 67.342 348.93C67.342 348.22 67.527 347.535 67.897 346.875C68.387 346.825 69.002 346.8 69.742 346.8C70.272 346.8 71.017 346.82 71.977 346.86V346.635C71.977 346.115 71.887 345.715 71.707 345.435C71.537 345.145 71.207 345 70.717 345C70.397 345 70.002 345.05 69.532 345.15C69.062 345.24 68.582 345.375 68.092 345.555C67.962 345.165 67.847 344.72 67.747 344.22C68.967 343.77 70.022 343.545 70.912 343.545C71.782 343.545 72.442 343.745 72.892 344.145C73.342 344.545 73.567 345.235 73.567 346.215V349.65V351C73.307 351.02 73.092 351.03 72.922 351.03C72.752 351.03 72.527 351.02 72.247 351L72.067 350.115ZM68.887 348.81C68.887 349.49 69.237 349.83 69.937 349.83C70.247 349.83 70.577 349.76 70.927 349.62C71.287 349.47 71.637 349.275 71.977 349.035V347.955C71.267 347.915 70.562 347.895 69.862 347.895C69.472 347.895 69.192 347.9 69.022 347.91C68.932 348.16 68.887 348.46 68.887 348.81ZM80.6026 345.225H77.9176C77.8976 346.785 77.8026 347.97 77.6326 348.78C77.4626 349.59 77.1576 350.17 76.7176 350.52C76.2776 350.87 75.6326 351.055 74.7826 351.075L74.6926 349.575C75.2226 349.535 75.5876 349.4 75.7876 349.17C75.9976 348.94 76.1376 348.455 76.2076 347.715C76.2776 346.965 76.3176 345.635 76.3276 343.725H82.2376V351H80.6026V345.225ZM84.2979 343.725H85.9329V345.885H87.8379C88.7779 345.885 89.5029 346.1 90.0129 346.53C90.5229 346.95 90.7779 347.585 90.7779 348.435C90.7779 349.235 90.5429 349.865 90.0729 350.325C89.6029 350.775 88.8729 351 87.8829 351H84.2979V343.725ZM87.7629 349.65C88.2029 349.65 88.5429 349.55 88.7829 349.35C89.0229 349.14 89.1429 348.835 89.1429 348.435C89.1429 347.625 88.6629 347.22 87.7029 347.22H85.9329V349.65H87.7629ZM96.9626 347.955H93.8876V351H92.2526V343.725H93.8876V346.455H96.9626V343.725H98.5976V351H96.9626V347.955ZM104.925 350.115C104.555 350.435 104.135 350.7 103.665 350.91C103.205 351.11 102.765 351.21 102.345 351.21C101.685 351.21 101.16 351.015 100.77 350.625C100.39 350.235 100.2 349.67 100.2 348.93C100.2 348.22 100.385 347.535 100.755 346.875C101.245 346.825 101.86 346.8 102.6 346.8C103.13 346.8 103.875 346.82 104.835 346.86V346.635C104.835 346.115 104.745 345.715 104.565 345.435C104.395 345.145 104.065 345 103.575 345C103.255 345 102.86 345.05 102.39 345.15C101.92 345.24 101.44 345.375 100.95 345.555C100.82 345.165 100.705 344.72 100.605 344.22C101.825 343.77 102.88 343.545 103.77 343.545C104.64 343.545 105.3 343.745 105.75 344.145C106.2 344.545 106.425 345.235 106.425 346.215V349.65V351C106.165 351.02 105.95 351.03 105.78 351.03C105.61 351.03 105.385 351.02 105.105 351L104.925 350.115ZM101.745 348.81C101.745 349.49 102.095 349.83 102.795 349.83C103.105 349.83 103.435 349.76 103.785 349.62C104.145 349.47 104.495 349.275 104.835 349.035V347.955C104.125 347.915 103.42 347.895 102.72 347.895C102.33 347.895 102.05 347.9 101.88 347.91C101.79 348.16 101.745 348.46 101.745 348.81ZM111.091 348.54L109.666 351H107.866L109.606 348.24C108.806 347.85 108.406 347.15 108.406 346.14C108.406 345.41 108.641 344.825 109.111 344.385C109.591 343.945 110.361 343.725 111.421 343.725H114.046V351H112.396V348.54H111.196H111.091ZM109.861 346.155C109.861 346.515 109.961 346.78 110.161 346.95C110.371 347.12 110.706 347.205 111.166 347.205H112.396V345.09H111.166C110.716 345.09 110.386 345.18 110.176 345.36C109.966 345.53 109.861 345.795 109.861 346.155ZM124.551 345.225H121.476V351H119.841V343.725H126.186V351H124.551V345.225ZM133.556 345.225H130.871C130.851 346.785 130.756 347.97 130.586 348.78C130.416 349.59 130.111 350.17 129.671 350.52C129.231 350.87 128.586 351.055 127.736 351.075L127.646 349.575C128.176 349.535 128.541 349.4 128.741 349.17C128.951 348.94 129.091 348.455 129.161 347.715C129.231 346.965 129.271 345.635 129.281 343.725H135.191V351H133.556V345.225ZM141.376 350.115C141.006 350.435 140.586 350.7 140.116 350.91C139.656 351.11 139.216 351.21 138.796 351.21C138.136 351.21 137.611 351.015 137.221 350.625C136.841 350.235 136.651 349.67 136.651 348.93C136.651 348.22 136.836 347.535 137.206 346.875C137.696 346.825 138.311 346.8 139.051 346.8C139.581 346.8 140.326 346.82 141.286 346.86V346.635C141.286 346.115 141.196 345.715 141.016 345.435C140.846 345.145 140.516 345 140.026 345C139.706 345 139.311 345.05 138.841 345.15C138.371 345.24 137.891 345.375 137.401 345.555C137.271 345.165 137.156 344.72 137.056 344.22C138.276 343.77 139.331 343.545 140.221 343.545C141.091 343.545 141.751 343.745 142.201 344.145C142.651 344.545 142.876 345.235 142.876 346.215V349.65V351C142.616 351.02 142.401 351.03 142.231 351.03C142.061 351.03 141.836 351.02 141.556 351L141.376 350.115ZM138.196 348.81C138.196 349.49 138.546 349.83 139.246 349.83C139.556 349.83 139.886 349.76 140.236 349.62C140.596 349.47 140.946 349.275 141.286 349.035V347.955C140.576 347.915 139.871 347.895 139.171 347.895C138.781 347.895 138.501 347.9 138.331 347.91C138.241 348.16 138.196 348.46 138.196 348.81ZM146.177 345.24H143.822V343.725H150.212V345.24H147.872V351H146.177V345.24ZM153.789 351.21C152.759 351.15 151.934 350.78 151.314 350.1C150.694 349.42 150.384 348.51 150.384 347.37C150.384 346.22 150.694 345.305 151.314 344.625C151.934 343.945 152.759 343.575 153.789 343.515V340.5H155.229V343.515C156.259 343.575 157.084 343.945 157.704 344.625C158.324 345.305 158.634 346.22 158.634 347.37C158.634 348.51 158.324 349.42 157.704 350.1C157.084 350.78 156.259 351.15 155.229 351.21V353.805H153.789V351.21ZM151.884 347.37C151.884 348.17 152.044 348.765 152.364 349.155C152.694 349.535 153.169 349.75 153.789 349.8V344.895C153.169 344.945 152.694 345.17 152.364 345.57C152.044 345.97 151.884 346.57 151.884 347.37ZM155.229 349.8C155.849 349.75 156.319 349.535 156.639 349.155C156.969 348.765 157.134 348.17 157.134 347.37C157.134 346.56 156.969 345.96 156.639 345.57C156.319 345.17 155.849 344.945 155.229 344.895V349.8ZM163.29 351.225C162.18 351.225 161.305 350.88 160.665 350.19C160.025 349.49 159.705 348.55 159.705 347.37C159.705 346.18 160.025 345.24 160.665 344.55C161.305 343.85 162.18 343.5 163.29 343.5C164.39 343.5 165.26 343.85 165.9 344.55C166.54 345.24 166.86 346.18 166.86 347.37C166.86 348.15 166.715 348.83 166.425 349.41C166.135 349.99 165.72 350.44 165.18 350.76C164.65 351.07 164.02 351.225 163.29 351.225ZM161.4 347.37C161.4 348.17 161.56 348.775 161.88 349.185C162.21 349.595 162.675 349.8 163.275 349.8C163.875 349.8 164.34 349.595 164.67 349.185C165 348.775 165.165 348.17 165.165 347.37C165.165 346.55 165 345.94 164.67 345.54C164.35 345.13 163.885 344.925 163.275 344.925C162.675 344.925 162.21 345.13 161.88 345.54C161.56 345.94 161.4 346.55 161.4 347.37ZM172.471 343.5C173.001 343.5 173.476 343.65 173.896 343.95C174.316 344.24 174.646 344.665 174.886 345.225C175.126 345.775 175.246 346.435 175.246 347.205C175.246 348.045 175.096 348.765 174.796 349.365C174.496 349.955 174.071 350.41 173.521 350.73C172.981 351.04 172.351 351.195 171.631 351.195C171.141 351.195 170.626 351.105 170.086 350.925V353.805H168.451V343.725C168.871 343.705 169.106 343.695 169.156 343.695C169.226 343.695 169.451 343.705 169.831 343.725L169.966 344.52C170.326 344.21 170.721 343.965 171.151 343.785C171.581 343.595 172.021 343.5 172.471 343.5ZM170.086 349.485C170.716 349.705 171.226 349.815 171.616 349.815C172.206 349.815 172.676 349.59 173.026 349.14C173.376 348.68 173.551 348.03 173.551 347.19C173.551 346.49 173.401 345.935 173.101 345.525C172.801 345.115 172.426 344.91 171.976 344.91C171.446 344.91 170.816 345.165 170.086 345.675V349.485ZM180.345 349.35L178.335 346.305V351H176.85V343.725H178.26L180.645 347.355L183.03 343.725H184.44V351H182.955V346.305L180.96 349.35H180.345ZM190.825 350.115C190.455 350.435 190.035 350.7 189.565 350.91C189.105 351.11 188.665 351.21 188.245 351.21C187.585 351.21 187.06 351.015 186.67 350.625C186.29 350.235 186.1 349.67 186.1 348.93C186.1 348.22 186.285 347.535 186.655 346.875C187.145 346.825 187.76 346.8 188.5 346.8C189.03 346.8 189.775 346.82 190.735 346.86V346.635C190.735 346.115 190.645 345.715 190.465 345.435C190.295 345.145 189.965 345 189.475 345C189.155 345 188.76 345.05 188.29 345.15C187.82 345.24 187.34 345.375 186.85 345.555C186.72 345.165 186.605 344.72 186.505 344.22C187.725 343.77 188.78 343.545 189.67 343.545C190.54 343.545 191.2 343.745 191.65 344.145C192.1 344.545 192.325 345.235 192.325 346.215V349.65V351C192.065 351.02 191.85 351.03 191.68 351.03C191.51 351.03 191.285 351.02 191.005 351L190.825 350.115ZM187.645 348.81C187.645 349.49 187.995 349.83 188.695 349.83C189.005 349.83 189.335 349.76 189.685 349.62C190.045 349.47 190.395 349.275 190.735 349.035V347.955C190.025 347.915 189.32 347.895 188.62 347.895C188.23 347.895 187.95 347.9 187.78 347.91C187.69 348.16 187.645 348.46 187.645 348.81Z" fill="black"/>
<path fill-rule="evenodd" clip-rule="evenodd" d="M114.143 185.338C114.143 203.934 129.851 219.189 149.501 219.189C169.151 219.189 184.859 203.934 184.859 185.338H199.002C199.002 211.783 176.737 233.006 149.501 233.006C122.265 233.006 100 211.783 100 185.338H114.143Z" fill="black"/>
<path fill-rule="evenodd" clip-rule="evenodd" d="M164.168 148.667C144.631 148.667 128.81 165.073 128.81 185.334H114.667C114.667 156.973 136.819 134 164.168 134C191.517 134 213.669 156.973 213.669 185.334H199.526C199.526 165.073 183.706 148.667 164.168 148.667Z" fill="black"/>
</g>
<defs>
<clipPath id="clip0_3375_2">
<rect width="326" height="367" fill="white"/>
</clipPath>
</defs>
</svg>
