<svg width="277" height="28" viewBox="0 0 277 28" fill="none" xmlns="http://www.w3.org/2000/svg">
<path d="M0.513672 13.9072C0.513672 6.30845 6.67368 0.148438 14.2724 0.148438H262.716C270.315 0.148438 276.475 6.30845 276.475 13.9072C276.475 21.506 270.315 27.666 262.716 27.666H14.2724C6.67368 27.666 0.513672 21.506 0.513672 13.9072Z" fill="#4B0F35"/>
<path d="M43.1809 20.0675C41.3821 20.0675 39.9921 19.5203 39.0109 18.4259C38.0297 17.3315 37.5391 15.7653 37.5391 13.7275C37.5391 11.7147 38.0171 10.1675 38.9731 9.08564C39.9417 8.00381 41.3129 7.46289 43.0866 7.46289C43.8665 7.46289 44.6213 7.54466 45.3509 7.70819C46.0805 7.85914 46.6717 8.07299 47.1246 8.34974L46.8604 12.9349L45.2188 12.8029L45.5962 9.34981C44.8037 9.09822 43.942 8.97242 43.0111 8.97242C41.7909 8.97242 40.86 9.38126 40.2185 10.1989C39.5769 11.004 39.2562 12.1802 39.2562 13.7275C39.2562 15.2873 39.6021 16.4761 40.294 17.2937C40.9984 18.1114 42.0362 18.5202 43.4074 18.5202C44.5269 18.5202 45.678 18.3189 46.8604 17.9164L47.1435 19.3693C46.6906 19.558 46.1057 19.7216 45.3886 19.8599C44.6716 19.9983 43.9357 20.0675 43.1809 20.0675Z" fill="white"/>
<path d="M53.8346 20.0675C52.2245 20.0675 50.9728 19.5203 50.0797 18.4259C49.1991 17.3315 48.7588 15.7779 48.7588 13.7652C48.7588 11.7399 49.1991 10.1863 50.0797 9.10451C50.9728 8.0101 52.2245 7.46289 53.8346 7.46289C55.4574 7.46289 56.709 8.0101 57.5896 9.10451C58.4702 10.1863 58.9105 11.7399 58.9105 13.7652C58.9105 15.7779 58.4639 17.3315 57.5707 18.4259C56.6902 19.5203 55.4448 20.0675 53.8346 20.0675ZM50.4948 13.7652C50.4948 15.3376 50.7778 16.5264 51.3439 17.3315C51.9226 18.1365 52.7528 18.5391 53.8346 18.5391C54.9291 18.5391 55.7593 18.1365 56.3254 17.3315C56.904 16.5264 57.1934 15.3376 57.1934 13.7652C57.1934 12.1928 56.904 11.004 56.3254 10.1989C55.7593 9.39384 54.9291 8.99129 53.8346 8.99129C52.7528 8.99129 51.9226 9.39384 51.3439 10.1989C50.7778 11.004 50.4948 12.1928 50.4948 13.7652Z" fill="white"/>
<path d="M60.6202 7.72706L62.2995 7.72706L62.2995 18.2749L67.8282 18.2749L67.8282 7.72706L69.5076 7.72706L69.5076 18.2749L70.4887 18.2749L70.4887 22.2186L68.8094 22.2186L68.9603 19.8033L60.6202 19.8033L60.6202 7.72706Z" fill="white"/>
<path d="M79.3876 19.8033L79.482 10.4065L73.3872 19.8033L71.84 19.8033L71.84 7.72706L73.5193 7.72706L73.425 17.1428L79.5197 7.72706L81.067 7.72706L81.067 19.8033L79.3876 19.8033Z" fill="white"/>
<path d="M82.871 19.8033C83.0094 17.4635 83.3868 15.1804 84.0032 12.9538C84.6196 10.7273 85.3806 8.985 86.2864 7.72706L89.2866 7.72706C90.1923 8.985 90.9533 10.7273 91.5697 12.9538C92.1861 15.1804 92.5635 17.4635 92.7019 19.8033L91.0225 19.8033C90.9596 18.7215 90.859 17.7151 90.7206 16.7843L84.8334 16.7843C84.6951 17.7151 84.5944 18.7215 84.5315 19.8033L82.871 19.8033ZM90.4753 15.3502C90.2237 14.1174 89.9092 12.9727 89.5319 11.916C89.1671 10.8468 88.7582 9.94104 88.3054 9.19885L87.2487 9.19885C86.7958 9.94104 86.3807 10.8468 86.0033 11.916C85.6385 12.9727 85.3366 14.1174 85.0976 15.3502L90.4753 15.3502Z" fill="white"/>
<path d="M101.94 9.19885L97.6948 9.19885C97.6697 12.2557 97.5502 14.5262 97.3363 16.0106C97.1225 17.4824 96.7514 18.4888 96.223 19.0297C95.7073 19.5706 94.9211 19.8599 93.8644 19.8977L93.7701 18.407C94.4619 18.3189 94.9462 18.0736 95.223 17.6711C95.5123 17.256 95.7136 16.3503 95.8268 14.9539C95.94 13.545 96.0092 11.1361 96.0343 7.72706L103.62 7.72706L103.62 19.8033L101.94 19.8033L101.94 9.19885Z" fill="white"/>
<path d="M106.537 7.72706L108.216 7.72706L108.216 12.3123L110.99 12.3123C112.349 12.3123 113.399 12.6519 114.141 13.3312C114.896 14.0105 115.274 14.9225 115.274 16.0672C115.274 17.2749 114.915 18.1994 114.198 18.841C113.494 19.4825 112.449 19.8033 111.066 19.8033L106.537 19.8033L106.537 7.72706ZM110.877 18.3127C111.783 18.3127 112.468 18.124 112.934 17.7466C113.412 17.3566 113.651 16.7843 113.651 16.0295C113.651 15.2999 113.412 14.7464 112.934 14.369C112.468 13.979 111.776 13.7841 110.858 13.7841L108.216 13.7841L108.216 18.3127L110.877 18.3127Z" fill="white"/>
<path d="M124.588 14.4633L118.87 14.4633L118.87 19.8033L117.191 19.8033L117.191 7.72706L118.87 7.72706L118.87 12.9349L124.588 12.9349L124.588 7.72706L126.267 7.72706L126.267 19.8033L124.588 19.8033L124.588 14.4633Z" fill="white"/>
<path d="M128.128 19.8033C128.266 17.4635 128.643 15.1804 129.26 12.9538C129.876 10.7273 130.637 8.985 131.543 7.72706L134.543 7.72706C135.449 8.985 136.21 10.7273 136.826 12.9538C137.443 15.1804 137.82 17.4635 137.958 19.8033L136.279 19.8033C136.216 18.7215 136.115 17.7151 135.977 16.7843L130.09 16.7843C129.952 17.7151 129.851 18.7215 129.788 19.8033L128.128 19.8033ZM135.732 15.3502C135.48 14.1174 135.166 12.9727 134.788 11.916C134.424 10.8468 134.015 9.94104 133.562 9.19885L132.505 9.19885C132.052 9.94104 131.637 10.8468 131.26 11.916C130.895 12.9727 130.593 14.1174 130.354 15.3502L135.732 15.3502Z" fill="white"/>
<path d="M139.461 19.8033C139.825 19.036 140.266 18.2183 140.781 17.3503C141.297 16.4823 141.807 15.6836 142.31 14.9539C141.517 14.6646 140.888 14.2055 140.423 13.5765C139.97 12.9349 139.744 12.1613 139.744 11.2556C139.744 10.1738 140.102 9.31835 140.819 8.68938C141.549 8.04783 142.517 7.72706 143.725 7.72706L146.291 7.72706L149.197 7.72706C149.197 8.44408 149.184 8.97871 149.159 9.33093L147.876 9.17998L147.971 9.91588L147.971 19.8033L146.291 19.8033L146.291 15.52L143.782 15.2747C142.7 16.9981 141.901 18.5076 141.385 19.8033L139.461 19.8033ZM141.423 11.4065C141.423 12.111 141.649 12.6834 142.102 13.1236C142.555 13.5513 143.165 13.7966 143.933 13.8595L146.291 14.0671L146.291 9.16111L143.8 9.16111C143.083 9.16111 142.505 9.36238 142.064 9.76493C141.637 10.1675 141.423 10.7147 141.423 11.4065Z" fill="white"/>
<path d="M169.844 9.25546L164.127 9.25546L164.127 19.8033L162.447 19.8033L162.447 7.72705L171.523 7.72705L171.523 19.8033L169.844 19.8033L169.844 9.25546Z" fill="white"/>
<path d="M181.139 9.19885L176.894 9.19885C176.869 12.2557 176.749 14.5262 176.535 16.0106C176.321 17.4824 175.95 18.4888 175.422 19.0297C174.906 19.5706 174.12 19.8599 173.063 19.8977L172.969 18.407C173.661 18.3189 174.145 18.0736 174.422 17.6711C174.711 17.256 174.912 16.3503 175.026 14.9539C175.139 13.545 175.208 11.1361 175.233 7.72705L182.819 7.72705L182.819 19.8033L181.139 19.8033L181.139 9.19885Z" fill="white"/>
<path d="M184.698 19.8033C184.837 17.4635 185.214 15.1804 185.83 12.9538C186.447 10.7273 187.208 8.985 188.113 7.72705L191.114 7.72705C192.019 8.985 192.78 10.7273 193.397 12.9538C194.013 15.1804 194.391 17.4635 194.529 19.8033L192.85 19.8033C192.787 18.7215 192.686 17.7151 192.548 16.7843L186.661 16.7843C186.522 17.7151 186.422 18.7215 186.359 19.8033L184.698 19.8033ZM192.302 15.3502C192.051 14.1174 191.736 12.9727 191.359 11.916C190.994 10.8468 190.585 9.94104 190.132 9.19885L189.076 9.19885C188.623 9.94104 188.208 10.8468 187.83 11.916C187.466 12.9727 187.164 14.1174 186.925 15.3502L192.302 15.3502Z" fill="white"/>
<path d="M200.088 9.16111L196.031 9.16111L195.975 7.72705L205.824 7.72705L205.881 9.16111L201.767 9.16111L201.767 19.8033L200.088 19.8033L200.088 9.16111Z" fill="white"/>
<path d="M211.402 18.6146C210.018 18.4384 208.949 17.9353 208.194 17.105C207.452 16.2748 207.081 15.1804 207.081 13.8218C207.081 12.4255 207.452 11.3059 208.194 10.4631C208.937 9.60768 210.006 9.08563 211.402 8.89694L211.402 7.55723L213.1 7.55723L213.1 8.89694C214.484 9.08563 215.547 9.60768 216.289 10.4631C217.031 11.3059 217.403 12.4255 217.403 13.8218C217.403 15.1804 217.031 16.2748 216.289 17.105C215.547 17.9227 214.484 18.4259 213.1 18.6146L213.1 19.9731L211.402 19.9731L211.402 18.6146ZM208.798 13.8218C208.798 14.6772 209.018 15.3816 209.459 15.9351C209.911 16.4761 210.559 16.8346 211.402 17.0107L211.402 10.482C210.559 10.6455 209.911 11.0166 209.459 11.5952C209.018 12.1739 208.798 12.9161 208.798 13.8218ZM213.1 17.0107C213.931 16.8346 214.566 16.4761 215.006 15.9351C215.459 15.3816 215.685 14.6772 215.685 13.8218C215.685 12.9161 215.459 12.1802 215.006 11.6141C214.566 11.0354 213.931 10.6581 213.1 10.482L213.1 17.0107Z" fill="white"/>
<path d="M223.547 20.0675C221.936 20.0675 220.685 19.5203 219.792 18.4259C218.911 17.3315 218.471 15.7779 218.471 13.7652C218.471 11.7399 218.911 10.1863 219.792 9.1045C220.685 8.01009 221.936 7.46288 223.547 7.46288C225.169 7.46288 226.421 8.01009 227.301 9.1045C228.182 10.1863 228.622 11.7399 228.622 13.7652C228.622 15.7779 228.176 17.3315 227.283 18.4259C226.402 19.5203 225.157 20.0675 223.547 20.0675ZM220.207 13.7652C220.207 15.3376 220.49 16.5264 221.056 17.3315C221.634 18.1365 222.465 18.5391 223.547 18.5391C224.641 18.5391 225.471 18.1365 226.037 17.3315C226.616 16.5264 226.905 15.3376 226.905 13.7652C226.905 12.1928 226.616 11.004 226.037 10.1989C225.471 9.39383 224.641 8.99129 223.547 8.99129C222.465 8.99129 221.634 9.39383 221.056 10.1989C220.49 11.004 220.207 12.1928 220.207 13.7652Z" fill="white"/>
<path d="M231.106 9.91588L231.2 9.17998L229.917 9.33093C229.892 8.97871 229.879 8.44408 229.879 7.72705L232.351 7.72705L232.785 7.72705L235.2 7.72705C236.546 7.72705 237.597 8.0667 238.351 8.74599C239.119 9.4127 239.502 10.3499 239.502 11.5575C239.502 12.74 239.113 13.6771 238.333 14.369C237.565 15.0609 236.521 15.4571 235.2 15.5578L232.785 15.7276L232.785 19.8033L231.106 19.8033L231.106 9.91588ZM235.087 14.1237C235.955 14.0608 236.628 13.8092 237.106 13.3689C237.584 12.9161 237.823 12.3123 237.823 11.5575C237.823 10.7901 237.584 10.1989 237.106 9.78379C236.628 9.36867 235.961 9.16111 235.106 9.16111L232.785 9.16111L232.785 14.2935L235.087 14.1237Z" fill="white"/>
<path d="M245.835 16.6333L243.118 11.048L243.212 19.8033L241.552 19.8033L241.552 7.72705L243.118 7.72705L246.175 14.0482L249.232 7.72705L250.798 7.72705L250.798 19.8033L249.137 19.8033L249.232 11.0858L246.533 16.6333L245.835 16.6333Z" fill="white"/>
<path d="M252.583 19.8033C252.721 17.4635 253.099 15.1804 253.715 12.9538C254.331 10.7272 255.093 8.985 255.998 7.72705L258.998 7.72705C259.904 8.985 260.665 10.7272 261.282 12.9538C261.898 15.1804 262.275 17.4635 262.414 19.8033L260.734 19.8033C260.672 18.7215 260.571 17.7151 260.432 16.7842L254.545 16.7842C254.407 17.7151 254.306 18.7215 254.243 19.8033L252.583 19.8033ZM260.187 15.3502C259.936 14.1174 259.621 12.9727 259.244 11.916C258.879 10.8468 258.47 9.94103 258.017 9.19885L256.961 9.19885C256.508 9.94103 256.093 10.8468 255.715 11.916C255.35 12.9727 255.048 14.1174 254.809 15.3502L260.187 15.3502Z" fill="white"/>
<path fill-rule="evenodd" clip-rule="evenodd" d="M14.2857 14.2969C14.2857 17.3022 16.8243 19.7676 20 19.7676C23.1757 19.7676 25.7143 17.3022 25.7143 14.2969H28C28 18.5707 24.4017 22.0006 20 22.0006C15.5983 22.0006 12 18.5707 12 14.2969H14.2857Z" fill="white"/>
<path fill-rule="evenodd" clip-rule="evenodd" d="M22.3711 8.37037C19.2136 8.37037 16.6568 11.0218 16.6568 14.2963H14.3711C14.3711 9.71271 17.9512 6 22.3711 6C26.791 6 30.3711 9.71271 30.3711 14.2963H28.0854C28.0854 11.0218 25.5286 8.37037 22.3711 8.37037Z" fill="white"/>
</svg>
