<svg width="169" height="28" viewBox="0 0 169 28" fill="none" xmlns="http://www.w3.org/2000/svg">
<path d="M0 14C0 6.26801 6.00507 0 13.4127 0H155.587C162.995 0 169 6.26801 169 14C169 21.732 162.995 28 155.587 28H13.4127C6.00507 28 0 21.732 0 14Z" fill="#1155CC"/>
<path d="M38.2117 19.4439L38.3061 10.0471L32.2113 19.4439L30.6641 19.4439L30.6641 7.36768L32.3434 7.36768L32.2491 16.7834L38.3438 7.36768L39.8911 7.36768L39.8911 19.4439L38.2117 19.4439Z" fill="white"/>
<path d="M49.4692 14.104L43.7519 14.104L43.7519 19.4439L42.0725 19.4439L42.0725 7.36768L43.7519 7.36768L43.7519 12.5756L49.4692 12.5756L49.4692 7.36768L51.1486 7.36768L51.1486 19.4439L49.4692 19.4439L49.4692 14.104Z" fill="white"/>
<path d="M58.5757 19.7081C56.7768 19.7081 55.3868 19.1609 54.4056 18.0665C53.4244 16.9721 52.9338 15.4059 52.9338 13.3681C52.9338 11.3554 53.4118 9.8081 54.3679 8.72626C55.3365 7.64443 56.7076 7.10351 58.4813 7.10351C59.2613 7.10351 60.016 7.18528 60.7456 7.34881C61.4752 7.49977 62.0665 7.71362 62.5193 7.99037L62.2552 12.5756L60.6136 12.4435L60.9909 8.99043C60.1984 8.73884 59.3367 8.61305 58.4059 8.61305C57.1857 8.61305 56.2548 9.02188 55.6132 9.83954C54.9717 10.6446 54.6509 11.8208 54.6509 13.3681C54.6509 14.9279 54.9968 16.1167 55.6887 16.9344C56.3932 17.752 57.431 18.1608 58.8021 18.1608C59.9217 18.1608 61.0727 17.9596 62.2552 17.557L62.5382 19.01C62.0854 19.1986 61.5004 19.3622 60.7834 19.5006C60.0663 19.6389 59.3305 19.7081 58.5757 19.7081Z" fill="white"/>
<path d="M68.3992 8.80174L64.3423 8.80174L64.2857 7.36768L74.1354 7.36768L74.192 8.80174L70.0785 8.80174L70.0785 19.4439L68.3992 19.4439L68.3992 8.80174Z" fill="white"/>
<path d="M76.7886 9.55651L76.8829 8.82061L75.5998 8.97156C75.5746 8.61934 75.5621 8.08471 75.5621 7.36768L78.0339 7.36768L78.4679 7.36768L80.8832 7.36768C82.2292 7.36768 83.2795 7.70733 84.0343 8.38662C84.8017 9.05333 85.1853 9.9905 85.1853 11.1981C85.1853 12.3806 84.7954 13.3178 84.0154 14.0096C83.2481 14.7015 82.204 15.0977 80.8832 15.1984L78.4679 15.3682L78.4679 19.4439L76.7886 19.4439L76.7886 9.55651ZM80.7699 13.7643C81.6379 13.7014 82.3109 13.4498 82.789 13.0096C83.267 12.5567 83.506 11.9529 83.506 11.1981C83.506 10.4308 83.267 9.83954 82.789 9.42442C82.3109 9.0093 81.6442 8.80174 80.7888 8.80174L78.4679 8.80174L78.4679 13.9342L80.7699 13.7643Z" fill="white"/>
<path d="M88.4046 19.5572C87.914 19.5572 87.5115 19.5131 87.197 19.4251L87.2913 17.9533C87.631 18.0162 87.9706 18.0476 88.3102 18.0476C88.8763 18.0476 89.3921 17.8526 89.8575 17.4627C90.323 17.0727 90.8261 16.4689 91.3671 15.6512L90.9708 15.6512C90.128 14.582 89.3732 13.3052 88.7065 11.8208C88.0398 10.3364 87.4926 8.85206 87.0649 7.36768L88.7442 7.36768C89.0587 8.48725 89.4801 9.65085 90.0085 10.8585C90.5368 12.0661 91.1155 13.1416 91.7444 14.0851L92.2728 14.0851C92.8766 12.9907 93.4112 11.8334 93.8766 10.6132C94.3421 9.38039 94.6754 8.29856 94.8767 7.36768L96.5561 7.36768C96.2919 8.47467 95.8768 9.75778 95.3107 11.217C94.7446 12.6762 94.1031 14.0411 93.386 15.3116C92.6313 16.6576 91.8514 17.7017 91.0463 18.4439C90.2538 19.1861 89.3732 19.5572 88.4046 19.5572Z" fill="white"/>
<path d="M102.832 16.2739L100.115 10.6887L100.209 19.4439L98.5488 19.4439L98.5488 7.36768L100.115 7.36768L103.172 13.6889L106.229 7.36768L107.795 7.36768L107.795 19.4439L106.134 19.4439L106.229 10.7264L103.53 16.2739L102.832 16.2739Z" fill="white"/>
<path d="M110.769 9.5565L110.882 8.764L109.033 8.97156L109.033 7.36768L118.656 7.36768L118.75 8.87721L112.448 8.78287L112.448 12.5944L117.599 12.4812L117.599 13.9908L112.448 13.8964L112.448 18.0288L118.939 17.9155L118.845 19.4439L110.769 19.4439L110.769 9.5565Z" fill="white"/>
<path d="M128.668 14.104L122.951 14.104L122.951 19.4439L121.271 19.4439L121.271 7.36768L122.951 7.36768L122.951 12.5756L128.668 12.5756L128.668 7.36768L130.347 7.36768L130.347 19.4439L128.668 19.4439L128.668 14.104Z" fill="white"/>
<path d="M136.284 8.80174L132.227 8.80174L132.17 7.36768L142.02 7.36768L142.077 8.80174L137.963 8.80174L137.963 19.4439L136.284 19.4439L136.284 8.80174Z" fill="white"/>
<path d="M143.673 7.36768L145.353 7.36768L145.353 11.9151L146.522 11.9151C147.818 11.9151 148.818 12.2296 149.523 12.8586C150.227 13.475 150.579 14.4247 150.579 15.7079C150.579 16.9784 150.233 17.9218 149.542 18.5382C148.862 19.142 147.881 19.4439 146.598 19.4439L143.673 19.4439L143.673 7.36768ZM146.522 17.8778C147.353 17.8778 147.957 17.7017 148.334 17.3495C148.711 16.9972 148.9 16.4375 148.9 15.6701C148.9 14.9279 148.711 14.3807 148.334 14.0285C147.957 13.6637 147.34 13.4813 146.485 13.4813L145.353 13.4813L145.353 17.8778L146.522 17.8778ZM151.523 7.36768L153.202 7.36768L153.202 19.4628L151.523 19.4628L151.523 7.36768Z" fill="white"/>
<path d="M16.2326 22.0088C17.4656 22.0088 18.4652 21.0152 18.4652 19.7896C18.4652 18.5639 17.4656 17.5703 16.2326 17.5703C14.9996 17.5703 14 18.5639 14 19.7896C14 21.0152 14.9996 22.0088 16.2326 22.0088Z" fill="white"/>
<path d="M17.0471 7.67773H14.7891V15.9575H17.0471V7.67773Z" fill="white"/>
<path d="M20.9987 6H14.7891V8.23776H20.9987V6Z" fill="white"/>
</svg>
