<svg width="162" height="28" viewBox="0 0 162 28" fill="none" xmlns="http://www.w3.org/2000/svg">
<path d="M0.646484 13.9306C0.646484 6.33188 6.80649 0.171875 14.4052 0.171875H148.062C155.661 0.171875 161.821 6.33188 161.821 13.9306C161.821 21.5294 155.661 27.6894 148.062 27.6894H14.4052C6.80649 27.6894 0.646484 21.5294 0.646484 13.9306Z" fill="#176E57"/>
<path d="M45.342 9.67343L39.6247 9.67343L39.6247 20.2213L37.9453 20.2213L37.9453 8.14503L47.0214 8.14503L47.0214 20.2213L45.342 20.2213L45.342 9.67343Z" fill="white"/>
<path d="M50.0708 10.3338L50.184 9.54135L48.3349 9.74891L48.3349 8.14503L57.9581 8.14503L58.0525 9.65456L51.7502 9.56022L51.7502 13.3718L56.9014 13.2586L56.9014 14.7681L51.7502 14.6738L51.7502 18.8061L58.2412 18.6929L58.1468 20.2213L50.0708 20.2213L50.0708 10.3338Z" fill="white"/>
<path d="M61.3472 10.3338L61.4415 9.59795L60.1584 9.74891C60.1333 9.39668 60.1207 8.86206 60.1207 8.14503L62.5926 8.14503L63.0266 8.14503L65.4418 8.14503C66.7878 8.14503 67.8382 8.48467 68.593 9.16396C69.3603 9.83067 69.744 10.7678 69.744 11.9755C69.744 13.1579 69.354 14.0951 68.5741 14.787C67.8067 15.4788 66.7627 15.8751 65.4418 15.9757L63.0266 16.1456L63.0266 20.2213L61.3472 20.2213L61.3472 10.3338ZM65.3286 14.5417C66.1966 14.4788 66.8696 14.2272 67.3476 13.7869C67.8256 13.334 68.0646 12.7302 68.0646 11.9755C68.0646 11.2081 67.8256 10.6169 67.3476 10.2018C66.8696 9.78664 66.2029 9.57908 65.3475 9.57908L63.0266 9.57908L63.0266 14.7115L65.3286 14.5417Z" fill="white"/>
<path d="M72.6991 10.3338L72.8123 9.54134L70.9631 9.74891L70.9631 8.14503L80.5864 8.14503L80.6807 9.65456L74.3784 9.56021L74.3784 13.3718L79.5297 13.2586L79.5297 14.7681L74.3784 14.6738L74.3784 18.8061L80.8694 18.6929L80.7751 20.2213L72.6991 20.2213L72.6991 10.3338Z" fill="white"/>
<path d="M84.7114 10.4282L84.8057 9.56021L83.1263 9.74891L83.1263 8.14503L92.41 8.14503L92.5232 9.65456L86.3907 9.54134L86.3907 20.2213L84.7114 20.2213L84.7114 10.4282Z" fill="white"/>
<path d="M99.0445 20.4855C97.4344 20.4855 96.1827 19.9383 95.2896 18.8438C94.409 17.7494 93.9687 16.1959 93.9687 14.1832C93.9687 12.1579 94.409 10.6043 95.2896 9.52247C96.1827 8.42806 97.4344 7.88086 99.0445 7.88086C100.667 7.88086 101.919 8.42806 102.8 9.52247C103.68 10.6043 104.12 12.1579 104.12 14.1832C104.12 16.1959 103.674 17.7494 102.781 18.8438C101.9 19.9383 100.655 20.4855 99.0445 20.4855ZM95.7047 14.1832C95.7047 15.7556 95.9877 16.9443 96.5538 17.7494C97.1325 18.5545 97.9627 18.9571 99.0445 18.9571C100.139 18.9571 100.969 18.5545 101.535 17.7494C102.114 16.9443 102.403 15.7556 102.403 14.1832C102.403 12.6107 102.114 11.422 101.535 10.6169C100.969 9.8118 100.139 9.40926 99.0445 9.40926C97.9627 9.40926 97.1325 9.8118 96.5538 10.6169C95.9877 11.422 95.7047 12.6107 95.7047 14.1832Z" fill="white"/>
<path d="M106.641 10.3338L106.736 9.59795L105.453 9.7489C105.428 9.27089 105.415 8.73626 105.415 8.14503L108.321 8.14502L110.302 8.14502C111.522 8.14502 112.485 8.44064 113.189 9.03188C113.906 9.61053 114.265 10.403 114.265 11.4094C114.265 11.8874 114.158 12.3277 113.944 12.7302C113.73 13.1328 113.434 13.4661 113.057 13.7303C113.673 14.0196 114.151 14.4285 114.491 14.9568C114.831 15.4851 115 16.0889 115 16.7682C115 17.8375 114.623 18.6803 113.868 19.2967C113.114 19.9131 112.088 20.2213 110.793 20.2213L106.641 20.2213L106.641 10.3338ZM110.793 18.825C111.573 18.825 112.189 18.6363 112.642 18.2589C113.095 17.8689 113.321 17.3469 113.321 16.6928C113.321 16.0638 113.088 15.5669 112.623 15.2021C112.158 14.8247 111.516 14.6234 110.698 14.5983L108.321 14.5417L108.321 18.825L110.793 18.825ZM110.472 13.202C110.9 13.2271 111.296 13.2711 111.661 13.334C111.963 13.1454 112.195 12.8938 112.359 12.5793C112.535 12.2648 112.623 11.9189 112.623 11.5415C112.623 10.9125 112.403 10.4219 111.963 10.0697C111.535 9.70488 110.944 9.52247 110.189 9.52247L108.321 9.52247L108.321 13.1454L110.472 13.202Z" fill="white"/>
<path d="M121.673 20.4855C120.063 20.4855 118.811 19.9383 117.918 18.8438C117.037 17.7494 116.597 16.1959 116.597 14.1832C116.597 12.1579 117.037 10.6043 117.918 9.52247C118.811 8.42806 120.063 7.88086 121.673 7.88086C123.296 7.88086 124.547 8.42806 125.428 9.52247C126.308 10.6043 126.749 12.1579 126.749 14.1832C126.749 16.1959 126.302 17.7494 125.409 18.8438C124.528 19.9383 123.283 20.4855 121.673 20.4855ZM118.333 14.1832C118.333 15.7556 118.616 16.9443 119.182 17.7494C119.761 18.5545 120.591 18.9571 121.673 18.9571C122.767 18.9571 123.597 18.5545 124.164 17.7494C124.742 16.9443 125.032 15.7556 125.032 14.1832C125.032 12.6107 124.742 11.422 124.164 10.6169C123.597 9.8118 122.767 9.40926 121.673 9.40926C120.591 9.40926 119.761 9.8118 119.182 10.6169C118.616 11.422 118.333 12.6107 118.333 14.1832Z" fill="white"/>
<path d="M129.232 10.3338L129.326 9.59795L128.043 9.7489C128.018 9.39668 128.005 8.86205 128.005 8.14502L130.477 8.14502L130.911 8.14502L133.327 8.14502C134.673 8.14502 135.723 8.48467 136.478 9.16396C137.245 9.83067 137.629 10.7678 137.629 11.9755C137.629 13.1579 137.239 14.0951 136.459 14.787C135.692 15.4788 134.647 15.8751 133.327 15.9757L130.911 16.1456L130.911 20.2213L129.232 20.2213L129.232 10.3338ZM133.213 14.5417C134.081 14.4788 134.754 14.2272 135.232 13.7869C135.71 13.334 135.949 12.7302 135.949 11.9755C135.949 11.2081 135.71 10.6169 135.232 10.2018C134.754 9.78664 134.088 9.57908 133.232 9.57908L130.911 9.57908L130.911 14.7115L133.213 14.5417Z" fill="white"/>
<path d="M139.546 8.14502L141.225 8.14502L141.225 12.6925L142.395 12.6925C143.691 12.6925 144.691 13.007 145.395 13.636C146.1 14.2523 146.452 15.2021 146.452 16.4852C146.452 17.7557 146.106 18.6992 145.414 19.3156C144.735 19.9194 143.754 20.2213 142.471 20.2213L139.546 20.2213L139.546 8.14502ZM142.395 18.6551C143.226 18.6551 143.829 18.479 144.207 18.1268C144.584 17.7746 144.773 17.2148 144.773 16.4475C144.773 15.7053 144.584 15.1581 144.207 14.8058C143.829 14.441 143.213 14.2586 142.358 14.2586L141.225 14.2586L141.225 18.6551L142.395 18.6551ZM147.396 8.14502L149.075 8.14502L149.075 20.2402L147.396 20.2402L147.396 8.14502Z" fill="white"/>
<path d="M10 15.8433V13.9618L15.2632 11.1328L16.1316 12.6065L11.4474 14.896L16.1316 17.1855L15.2632 18.6986L10 15.8433Z" fill="white"/>
<path d="M18.4746 8.42188H23.2378V9.98767H20.3036V19.0008H23.2509V20.5666H18.4746V8.42188Z" fill="white"/>
<path d="M24.8691 17.1855L29.5534 14.896L24.8691 12.6065L25.7376 11.1328L31.0007 13.9618V15.8565L25.7376 18.6986L24.8691 17.1855Z" fill="white"/>
</svg>
