<svg width="218" height="28" viewBox="0 0 218 28" fill="none" xmlns="http://www.w3.org/2000/svg">
<path d="M0.644531 13.9873C0.644531 6.38852 6.80454 0.228516 14.4033 0.228516H203.881C211.48 0.228516 217.64 6.38852 217.64 13.9873C217.64 21.586 211.48 27.746 203.881 27.746H14.4033C6.80454 27.746 0.644531 21.586 0.644531 13.9873Z" fill="#351C75"/>
<path d="M37.1196 22.9058L35.6289 22.9058L35.6289 18.9622C36.2956 18.8741 36.7548 18.6288 37.0064 18.2263C37.2705 17.8112 37.4466 16.9369 37.5347 15.6035C37.6227 14.2575 37.6794 11.8611 37.7045 8.41433L45.3843 8.41432L45.3843 18.9622L46.3843 18.9622L46.3843 22.9058L44.8748 22.9058L45.0069 20.4906L36.9875 20.4906L37.1196 22.9058ZM43.7049 18.9622L43.7049 9.88612L39.2895 9.88612C39.2895 11.8988 39.2644 13.465 39.214 14.5845C39.1763 15.7041 39.0883 16.6161 38.9499 17.3206C38.8115 18.0124 38.6039 18.5596 38.3272 18.9622L43.7049 18.9622Z" fill="white"/>
<path d="M55.2832 20.4906L55.3776 11.0937L49.2828 20.4906L47.7355 20.4906L47.7355 8.41432L49.4149 8.41432L49.3205 17.83L55.4153 8.41432L56.9626 8.41432L56.9626 20.4906L55.2832 20.4906Z" fill="white"/>
<path d="M63.2764 20.7548C62.509 20.7548 61.792 20.6919 61.1253 20.5661C60.4586 20.4403 59.7856 20.239 59.1063 19.9623L59.3893 18.6037C60.5592 19.0062 61.7794 19.2075 63.0499 19.2075C64.1192 19.2075 64.9494 19.0062 65.5407 18.6037C66.1319 18.1886 66.4275 17.6351 66.4275 16.9432C66.4275 16.2387 66.1571 15.6852 65.6161 15.2827C65.0878 14.8676 64.3708 14.6411 63.4651 14.6034L61.4272 14.7355L61.4272 13.358L63.4651 13.4713C64.2576 13.4461 64.8802 13.2574 65.3331 12.9052C65.786 12.5404 66.0124 12.0812 66.0124 11.5277C66.0124 10.9868 65.7734 10.5465 65.2954 10.2069C64.8299 9.85467 64.1129 9.67856 63.1443 9.67856C61.987 9.67856 60.9051 9.89241 59.8988 10.3201L59.5969 8.9804C60.7793 8.4269 62.0687 8.15016 63.465 8.15016C64.8236 8.15016 65.8677 8.43948 66.5973 9.01814C67.3269 9.58421 67.6917 10.3578 67.6917 11.339C67.6917 11.8548 67.5722 12.3454 67.3332 12.8108C67.0942 13.2763 66.7357 13.6662 66.2577 13.9807C66.8489 14.3204 67.3018 14.7544 67.6163 15.2827C67.9308 15.7985 68.088 16.3834 68.088 17.0375C68.088 18.1697 67.6603 19.0754 66.8049 19.7547C65.9621 20.4214 64.7859 20.7548 63.2764 20.7548Z" fill="white"/>
<path d="M70.0808 20.4906C70.2191 18.1508 70.5965 15.8676 71.2129 13.6411C71.8293 11.4145 72.5904 9.67227 73.4961 8.41432L76.4963 8.41432C77.402 9.67227 78.163 11.4145 78.7794 13.6411C79.3958 15.8676 79.7732 18.1508 79.9116 20.4906L78.2322 20.4906C78.1693 19.4088 78.0687 18.4024 77.9303 17.4715L72.0431 17.4715C71.9048 18.4024 71.8041 19.4088 71.7412 20.4906L70.0808 20.4906ZM77.685 16.0375C77.4334 14.8047 77.119 13.66 76.7416 12.6033C76.3768 11.534 75.9679 10.6283 75.5151 9.88612L74.4584 9.88612C74.0055 10.6283 73.5904 11.534 73.213 12.6033C72.8482 13.66 72.5463 14.8047 72.3073 16.0375L77.685 16.0375Z" fill="white"/>
<path d="M89.2256 20.4906L89.3199 11.0937L83.2252 20.4906L81.6779 20.4906L81.6779 8.41432L83.3573 8.41432L83.2629 17.83L89.3577 8.41432L90.9049 8.41432L90.9049 20.4906L89.2256 20.4906ZM86.2631 7.09348C85.4832 7.09348 84.8479 6.86705 84.3573 6.41419C83.8667 5.96133 83.5963 5.34494 83.546 4.56501L84.8479 4.41406C84.8857 4.89208 85.0303 5.26946 85.2819 5.54621C85.5335 5.82296 85.8606 5.96133 86.2631 5.96133C86.6657 5.96133 86.9927 5.82925 87.2443 5.56508C87.5085 5.28833 87.6594 4.91095 87.6972 4.43293L88.9614 4.56501C88.9111 5.34494 88.6469 5.96133 88.1689 6.41419C87.6909 6.86705 87.0556 7.09348 86.2631 7.09348Z" fill="white"/>
<path d="M100.483 15.1506L94.7657 15.1506L94.7657 20.4906L93.0864 20.4906L93.0864 8.41432L94.7657 8.41432L94.7657 13.6222L100.483 13.6222L100.483 8.41432L102.162 8.41432L102.162 20.4906L100.483 20.4906L100.483 15.1506Z" fill="white"/>
<path d="M106.099 15.0185L111.778 15.0185L111.778 16.4526L106.099 16.4526L106.099 15.0185Z" fill="white"/>
<path d="M116.488 10.6031L116.583 9.86725L115.3 10.0182C115.274 9.66598 115.262 9.13135 115.262 8.41432L117.734 8.41432L118.168 8.41432L120.583 8.41432C121.929 8.41432 122.979 8.75397 123.734 9.43326C124.501 10.1 124.885 11.0371 124.885 12.2448C124.885 13.4272 124.495 14.3644 123.715 15.0563C122.948 15.7481 121.904 16.1444 120.583 16.245L118.168 16.4148L118.168 20.4906L116.488 20.4906L116.488 10.6031ZM120.47 14.811C121.338 14.7481 122.011 14.4965 122.489 14.0562C122.967 13.6033 123.206 12.9995 123.206 12.2448C123.206 11.4774 122.967 10.8862 122.489 10.4711C122.011 10.0559 121.344 9.84838 120.489 9.84838L118.168 9.84838L118.168 14.9808L120.47 14.811Z" fill="white"/>
<path d="M126.651 20.4906C126.79 18.1508 127.167 15.8676 127.784 13.6411C128.4 11.4145 129.161 9.67227 130.067 8.41432L133.067 8.41432C133.973 9.67227 134.734 11.4145 135.35 13.6411C135.966 15.8676 136.344 18.1508 136.482 20.4906L134.803 20.4906C134.74 19.4088 134.639 18.4024 134.501 17.4715L128.614 17.4715C128.475 18.4024 128.375 19.4088 128.312 20.4906L126.651 20.4906ZM134.256 16.0375C134.004 14.8047 133.69 13.6599 133.312 12.6033C132.947 11.534 132.539 10.6283 132.086 9.88612L131.029 9.88612C130.576 10.6283 130.161 11.534 129.784 12.6033C129.419 13.6599 129.117 14.8047 128.878 16.0375L134.256 16.0375Z" fill="white"/>
<path d="M142.475 20.7548C141.708 20.7548 140.991 20.6919 140.324 20.5661C139.657 20.4403 138.984 20.239 138.305 19.9623L138.588 18.6037C139.758 19.0062 140.978 19.2075 142.249 19.2075C143.318 19.2075 144.148 19.0062 144.74 18.6037C145.331 18.1885 145.626 17.6351 145.626 16.9432C145.626 16.2387 145.356 15.6852 144.815 15.2827C144.287 14.8676 143.57 14.6411 142.664 14.6034L140.626 14.7355L140.626 13.358L142.664 13.4713C143.456 13.4461 144.079 13.2574 144.532 12.9052C144.985 12.5404 145.211 12.0812 145.211 11.5277C145.211 10.9868 144.972 10.5465 144.494 10.2069C144.029 9.85467 143.312 9.67856 142.343 9.67856C141.186 9.67856 140.104 9.89241 139.098 10.3201L138.796 8.9804C139.978 8.4269 141.268 8.15015 142.664 8.15015C144.023 8.15015 145.067 8.43948 145.796 9.01813C146.526 9.58421 146.891 10.3578 146.891 11.339C146.891 11.8548 146.771 12.3454 146.532 12.8108C146.293 13.2763 145.935 13.6662 145.457 13.9807C146.048 14.3204 146.501 14.7544 146.815 15.2827C147.13 15.7985 147.287 16.3834 147.287 17.0375C147.287 18.1697 146.859 19.0754 146.004 19.7547C145.161 20.4214 143.985 20.7548 142.475 20.7548Z" fill="white"/>
<path d="M150.468 10.6031L150.563 9.86725L149.28 10.0182C149.254 9.54018 149.242 9.00556 149.242 8.41432L152.148 8.41432L154.129 8.41432C155.349 8.41432 156.312 8.70994 157.016 9.30117C157.733 9.87983 158.092 10.6723 158.092 11.6787C158.092 12.1567 157.985 12.597 157.771 12.9995C157.557 13.4021 157.261 13.7354 156.884 13.9996C157.5 14.2889 157.978 14.6978 158.318 15.2261C158.658 15.7544 158.827 16.3582 158.827 17.0375C158.827 18.1068 158.45 18.9496 157.695 19.566C156.941 20.1824 155.915 20.4906 154.62 20.4906L150.468 20.4906L150.468 10.6031ZM154.62 19.0943C155.4 19.0943 156.016 18.9056 156.469 18.5282C156.922 18.1382 157.148 17.6162 157.148 16.9621C157.148 16.3331 156.915 15.8362 156.45 15.4714C155.984 15.094 155.343 14.8927 154.525 14.8676L152.148 14.811L152.148 19.0943L154.62 19.0943ZM154.299 13.4713C154.727 13.4964 155.123 13.5404 155.488 13.6033C155.79 13.4147 156.022 13.1631 156.186 12.8486C156.362 12.5341 156.45 12.1882 156.45 11.8108C156.45 11.1818 156.23 10.6912 155.79 10.339C155.362 9.97417 154.771 9.79177 154.016 9.79177L152.148 9.79177L152.148 13.4146L154.299 13.4713Z" fill="white"/>
<path d="M161.783 10.6031L161.896 9.81064L160.047 10.0182L160.047 8.41432L169.67 8.41432L169.764 9.92385L163.462 9.82951L163.462 13.6411L168.613 13.5279L168.613 15.0374L163.462 14.9431L163.462 19.0754L169.953 18.9622L169.859 20.4906L161.783 20.4906L161.783 10.6031Z" fill="white"/>
<path d="M172.889 22.9058L171.398 22.9058L171.398 18.9622C172.065 18.8741 172.524 18.6288 172.776 18.2263C173.04 17.8112 173.216 16.9369 173.304 15.6035C173.392 14.2575 173.449 11.8611 173.474 8.41432L181.154 8.41432L181.154 18.9622L182.154 18.9622L182.154 22.9058L180.644 22.9058L180.776 20.4906L172.757 20.4906L172.889 22.9058ZM179.474 18.9622L179.474 9.88612L175.059 9.88612C175.059 11.8988 175.034 13.465 174.984 14.5845C174.946 15.7041 174.858 16.6161 174.719 17.3206C174.581 18.0124 174.373 18.5596 174.097 18.9622L179.474 18.9622Z" fill="white"/>
<path d="M183.75 8.41432L185.43 8.41432L185.43 13.4901L188.147 13.4901C188.688 12.7857 189.21 11.9617 189.713 11.0183C190.216 10.0622 190.581 9.19425 190.807 8.41432L192.468 8.41432C192.216 9.39552 191.826 10.3956 191.298 11.4145C190.77 12.4209 190.178 13.3769 189.524 14.2826L193.336 20.4906L191.43 20.4906L188.053 14.9242L185.43 14.9242L185.43 20.4906L183.75 20.4906L183.75 8.41432Z" fill="white"/>
<path d="M194.536 20.4906C194.675 18.1508 195.052 15.8676 195.668 13.6411C196.285 11.4145 197.046 9.67226 197.951 8.41432L200.952 8.41432C201.857 9.67226 202.618 11.4145 203.235 13.6411C203.851 15.8676 204.229 18.1508 204.367 20.4906L202.688 20.4906C202.625 19.4088 202.524 18.4024 202.386 17.4715L196.499 17.4715C196.36 18.4024 196.26 19.4088 196.197 20.4906L194.536 20.4906ZM202.14 16.0375C201.889 14.8047 201.574 13.6599 201.197 12.6033C200.832 11.534 200.423 10.6283 199.97 9.88611L198.914 9.88612C198.461 10.6283 198.046 11.534 197.668 12.6033C197.304 13.6599 197.002 14.8047 196.763 16.0375L202.14 16.0375Z" fill="white"/>
<path d="M24.3726 11.8348C25.4295 11.8348 26.2863 10.9763 26.2863 9.9174C26.2863 8.85845 25.4295 8 24.3726 8C23.3158 8 22.459 8.85845 22.459 9.9174C22.459 10.9763 23.3158 11.8348 24.3726 11.8348Z" fill="white"/>
<path d="M20.4692 10.5445V17.0502C20.4692 18.6243 21.1628 19.4114 22.5583 19.4114C23.3772 19.4114 24.3717 19.269 25.5332 18.9927C25.7421 19.6542 25.8842 20.4161 25.9761 21.2869C25.4162 21.4962 24.8062 21.6637 24.146 21.7977C23.4859 21.9316 22.8508 21.9986 22.2491 21.9986C20.77 21.9986 19.6168 21.5883 18.7895 20.7762C17.9706 19.9556 17.5527 18.7248 17.5527 17.0837V8.20843H17.5778C18.3717 8.18331 20.4441 8.20843 20.4441 8.20843" fill="white"/>
<path d="M18.5551 8.19336H12.998V10.2069H18.5551V8.19336Z" fill="white"/>
</svg>
