<svg width="268" height="27" viewBox="0 0 268 27" fill="none" xmlns="http://www.w3.org/2000/svg">
<path d="M0 13.5C0 6.04416 5.95684 0 13.305 0H254.695C262.043 0 268 6.04416 268 13.5C268 20.9558 262.043 27 254.695 27H13.305C5.95683 27 0 20.9558 0 13.5Z" fill="#C62068"/>
<path d="M31.2909 9.04363L31.3853 8.30773L30.1022 8.45869C30.077 8.10646 30.0645 7.57183 30.0645 6.85481L32.5363 6.85481L32.9703 6.85481L35.3856 6.85481C36.7316 6.85481 37.7819 7.19445 38.5367 7.87374C39.3041 8.54045 39.6877 9.47762 39.6877 10.6852C39.6877 11.8677 39.2978 12.8049 38.5178 13.4968C37.7505 14.1886 36.7064 14.5849 35.3856 14.6855L32.9703 14.8553L32.9703 18.9311L31.2909 18.9311L31.2909 9.04363ZM35.2723 13.2515C36.1403 13.1886 36.8133 12.937 37.2913 12.4967C37.7694 12.0438 38.0084 11.44 38.0084 10.6852C38.0084 9.9179 37.7694 9.32667 37.2913 8.91154C36.8133 8.49642 36.1466 8.28886 35.2912 8.28886L32.9703 8.28886L32.9703 13.4213L35.2723 13.2515Z" fill="white"/>
<path d="M42.6428 9.04363L42.756 8.25112L40.9068 8.45868L40.9068 6.85481L50.5301 6.85481L50.6245 8.36434L44.3222 8.26999L44.3222 12.0816L49.4734 11.9683L49.4735 13.4779L44.3222 13.3835L44.3222 17.5159L50.8132 17.4027L50.7188 18.9311L42.6428 18.9311L42.6428 9.04363Z" fill="white"/>
<path d="M52.7682 18.9311C52.9066 16.5913 53.2839 14.3081 53.9003 12.0816C54.5167 9.855 55.2778 8.11275 56.1835 6.8548L59.1837 6.8548C60.0894 8.11275 60.8505 9.855 61.4669 12.0816C62.0833 14.3081 62.4606 16.5913 62.599 18.9311L60.9197 18.9311C60.8568 17.8492 60.7561 16.8429 60.6178 15.912L54.7306 15.912C54.5922 16.8429 54.4916 17.8492 54.4287 18.9311L52.7682 18.9311ZM60.3725 14.4779C60.1209 13.2452 59.8064 12.1004 59.429 11.0438C59.0642 9.97451 58.6554 9.06879 58.2025 8.3266L57.1458 8.3266C56.693 9.06879 56.2778 9.97451 55.9005 11.0438C55.5357 12.1004 55.2338 13.2452 54.9947 14.4779L60.3725 14.4779Z" fill="white"/>
<path d="M71.8375 8.3266L67.592 8.3266C67.5668 11.3834 67.4473 13.654 67.2335 15.1384C67.0196 16.6102 66.6485 17.6165 66.1202 18.1574C65.6044 18.6983 64.8182 18.9877 63.7615 19.0254L63.6672 17.5348C64.3591 17.4467 64.8434 17.2014 65.1201 16.7989C65.4094 16.3837 65.6107 15.478 65.7239 14.0817C65.8371 12.6728 65.9063 10.2638 65.9315 6.8548L73.5169 6.8548L73.5169 18.9311L71.8375 18.9311L71.8375 8.3266Z" fill="white"/>
<path d="M83.2271 18.9311L83.3215 9.53423L77.2267 18.9311L75.6795 18.9311L75.6795 6.8548L77.3588 6.8548L77.2645 16.2705L83.3592 6.8548L84.9065 6.8548L84.9065 18.9311L83.2271 18.9311Z" fill="white"/>
<path d="M91.2203 19.1952C90.4529 19.1952 89.7359 19.1323 89.0692 19.0065C88.4025 18.8808 87.7295 18.6795 87.0502 18.4027L87.3332 17.0442C88.5031 17.4467 89.7233 17.648 90.9939 17.648C92.0631 17.648 92.8934 17.4467 93.4846 17.0442C94.0758 16.629 94.3714 16.0755 94.3714 15.3837C94.3714 14.6792 94.101 14.1257 93.5601 13.7232C93.0317 13.3081 92.3147 13.0816 91.409 13.0439L89.3711 13.176L89.3711 11.7985L91.409 11.9117C92.2015 11.8866 92.8242 11.6979 93.277 11.3457C93.7299 10.9809 93.9563 10.5217 93.9563 9.96822C93.9563 9.4273 93.7173 8.98702 93.2393 8.64737C92.7739 8.29515 92.0568 8.11904 91.0882 8.11904C89.9309 8.11904 88.8491 8.33289 87.8427 8.76059L87.5408 7.42088C88.7233 6.86738 90.0127 6.59064 91.409 6.59064C92.7676 6.59064 93.8117 6.87996 94.5413 7.45862C95.2709 8.02469 95.6357 8.79833 95.6357 9.77952C95.6357 10.2953 95.5162 10.7859 95.2772 11.2513C95.0382 11.7168 94.6796 12.1067 94.2016 12.4212C94.7929 12.7609 95.2457 13.1948 95.5602 13.7232C95.8747 14.2389 96.0319 14.8239 96.0319 15.478C96.0319 16.6102 95.6042 17.5159 94.7488 18.1952C93.906 18.8619 92.7298 19.1952 91.2203 19.1952Z" fill="white"/>
<path d="M98.0247 18.9311C98.1631 16.5913 98.5404 14.3081 99.1568 12.0816C99.7732 9.855 100.534 8.11275 101.44 6.8548L104.44 6.8548C105.346 8.11275 106.107 9.855 106.723 12.0816C107.34 14.3081 107.717 16.5913 107.856 18.9311L106.176 18.9311C106.113 17.8492 106.013 16.8429 105.874 15.912L99.9871 15.912C99.8487 16.8429 99.7481 17.8492 99.6852 18.9311L98.0247 18.9311ZM105.629 14.4779C105.377 13.2452 105.063 12.1004 104.686 11.0438C104.321 9.9745 103.912 9.06878 103.459 8.3266L102.402 8.3266C101.949 9.06878 101.534 9.9745 101.157 11.0438C100.792 12.1004 100.49 13.2452 100.251 14.4779L105.629 14.4779Z" fill="white"/>
<path d="M109.716 6.8548L111.396 6.8548L111.396 17.4027L116.924 17.4027L116.924 6.8548L118.604 6.8548L118.604 17.4027L119.585 17.4027L119.585 21.3463L117.905 21.3463L118.056 18.9311L109.716 18.9311L109.716 6.8548Z" fill="white"/>
<path d="M128.484 18.9311L128.578 9.53422L122.483 18.9311L120.936 18.9311L120.936 6.8548L122.615 6.8548L122.521 16.2705L128.616 6.8548L130.163 6.8548L130.163 18.9311L128.484 18.9311Z" fill="white"/>
<path d="M131.986 18.9311C132.351 18.1637 132.791 17.3461 133.307 16.4781C133.823 15.6101 134.332 14.8113 134.835 14.0817C134.043 13.7924 133.414 13.3332 132.948 12.7042C132.495 12.0627 132.269 11.2891 132.269 10.3833C132.269 9.3015 132.627 8.4461 133.345 7.81713C134.074 7.17558 135.043 6.8548 136.25 6.8548L138.817 6.8548L141.722 6.8548C141.722 7.57183 141.71 8.10646 141.685 8.45868L140.402 8.30773L140.496 9.04362L140.496 18.9311L138.817 18.9311L138.817 14.6478L136.307 14.4025C135.225 16.1258 134.426 17.6354 133.911 18.9311L131.986 18.9311ZM133.948 10.5343C133.948 11.2387 134.175 11.8111 134.628 12.2514C135.08 12.6791 135.691 12.9244 136.458 12.9873L138.817 13.1948L138.817 8.28886L136.326 8.28886C135.609 8.28886 135.03 8.49013 134.59 8.89267C134.162 9.29521 133.948 9.84242 133.948 10.5343Z" fill="white"/>
<path d="M143.13 21.8747L152.036 5.72265L153.357 6.3642L144.451 22.5351L143.13 21.8747Z" fill="white"/>
<path d="M162.369 8.3832L156.652 8.3832L156.652 18.9311L154.973 18.9311L154.973 6.8548L164.049 6.8548L164.049 18.9311L162.369 18.9311L162.369 8.3832Z" fill="white"/>
<path d="M170.815 19.1952C169.205 19.1952 167.954 18.648 167.06 17.5536C166.18 16.4592 165.74 14.9056 165.74 12.8929C165.74 10.8676 166.18 9.31408 167.06 8.23225C167.954 7.13784 169.205 6.59063 170.815 6.59063C172.438 6.59063 173.69 7.13784 174.57 8.23225C175.451 9.31408 175.891 10.8676 175.891 12.8929C175.891 14.9056 175.445 16.4592 174.552 17.5536C173.671 18.648 172.426 19.1952 170.815 19.1952ZM167.476 12.8929C167.476 14.4654 167.759 15.6541 168.325 16.4592C168.903 17.2643 169.734 17.6668 170.815 17.6668C171.91 17.6668 172.74 17.2643 173.306 16.4592C173.885 15.6541 174.174 14.4654 174.174 12.8929C174.174 11.3205 173.885 10.1317 173.306 9.32666C172.74 8.52158 171.91 8.11903 170.815 8.11903C169.734 8.11903 168.903 8.52158 168.325 9.32666C167.759 10.1317 167.476 11.3205 167.476 12.8929Z" fill="white"/>
<path d="M178.205 21.3463L176.714 21.3463L176.714 17.4027C177.381 17.3146 177.84 17.0693 178.092 16.6668C178.356 16.2516 178.532 15.3774 178.62 14.044C178.708 12.698 178.765 10.3016 178.79 6.8548L186.469 6.8548L186.469 17.4027L187.47 17.4027L187.47 21.3463L185.96 21.3463L186.092 18.9311L178.073 18.9311L178.205 21.3463ZM184.79 17.4027L184.79 8.32659L180.375 8.32659C180.375 10.3393 180.35 11.9054 180.299 13.025C180.262 14.1446 180.173 15.0566 180.035 15.761C179.897 16.4529 179.689 17.0001 179.412 17.4027L184.79 17.4027Z" fill="white"/>
<path d="M189.519 21.3463L188.028 21.3463L188.028 17.4027C188.695 17.3146 189.154 17.0693 189.406 16.6668C189.67 16.2516 189.846 15.3774 189.934 14.044C190.022 12.698 190.079 10.3016 190.104 6.8548L197.784 6.8548L197.784 17.4027L198.784 17.4027L198.784 21.3463L197.274 21.3463L197.406 18.9311L189.387 18.9311L189.519 21.3463ZM196.104 17.4027L196.104 8.32659L191.689 8.32659C191.689 10.3393 191.664 11.9054 191.613 13.025C191.576 14.1446 191.488 15.0566 191.349 15.761C191.211 16.4529 191.003 17.0001 190.727 17.4027L196.104 17.4027Z" fill="white"/>
<path d="M201.041 9.04362L201.154 8.25112L199.305 8.45868L199.305 6.8548L208.928 6.8548L209.022 8.36433L202.72 8.26999L202.72 12.0816L207.871 11.9683L207.871 13.4779L202.72 13.3835L202.72 17.5159L209.211 17.4027L209.117 18.9311L201.041 18.9311L201.041 9.04362Z" fill="white"/>
<path d="M212.317 9.04362L212.411 8.30772L211.128 8.45868C211.103 8.10645 211.09 7.57183 211.09 6.8548L213.562 6.8548L213.996 6.8548L216.412 6.8548C217.758 6.8548 218.808 7.19444 219.563 7.87373C220.33 8.54044 220.714 9.47761 220.714 10.6852C220.714 11.8677 220.324 12.8049 219.544 13.4967C218.777 14.1886 217.732 14.5849 216.412 14.6855L213.996 14.8553L213.996 18.9311L212.317 18.9311L212.317 9.04362ZM216.298 13.2514C217.166 13.1885 217.839 12.937 218.317 12.4967C218.795 12.0438 219.034 11.44 219.034 10.6852C219.034 9.91789 218.795 9.32666 218.317 8.91154C217.839 8.49642 217.173 8.28885 216.317 8.28885L213.996 8.28885L213.996 13.4213L216.298 13.2514Z" fill="white"/>
<path d="M226.518 13.3647L225.405 13.3647L223.574 18.9311L221.876 18.9311L224.027 12.7042C223.625 11.8237 223.273 10.8739 222.971 9.85499C222.669 8.82348 222.449 7.82341 222.31 6.8548L223.952 6.8548C224.241 8.75429 224.725 10.4462 225.405 11.9306L226.518 11.9306L226.518 6.8548L228.16 6.8548L228.16 11.9306L229.273 11.9306C229.965 10.4588 230.455 8.76687 230.745 6.8548L232.386 6.8548C232.072 8.91783 231.5 10.8676 230.669 12.7042L232.801 18.9311L231.122 18.9311L229.292 13.3647L228.16 13.3647L228.16 18.9311L226.518 18.9311L226.518 13.3647Z" fill="white"/>
<path d="M234.323 6.8548L236.002 6.8548L236.002 11.9306L238.719 11.9306C239.26 11.2262 239.782 10.4022 240.285 9.45874C240.788 8.5027 241.153 7.63472 241.38 6.8548L243.04 6.8548C242.788 7.83599 242.399 8.83606 241.87 9.85499C241.342 10.8613 240.751 11.8174 240.096 12.7231L243.908 18.9311L242.002 18.9311L238.625 13.3647L236.002 13.3647L236.002 18.9311L234.323 18.9311L234.323 6.8548Z" fill="white"/>
<path d="M245.108 18.9311C245.247 16.5913 245.624 14.3081 246.24 12.0816C246.857 9.85499 247.618 8.11274 248.524 6.8548L251.524 6.8548C252.43 8.11274 253.191 9.85499 253.807 12.0816C254.423 14.3081 254.801 16.5913 254.939 18.9311L253.26 18.9311C253.197 17.8492 253.096 16.8429 252.958 15.912L247.071 15.912C246.932 16.8429 246.832 17.8492 246.769 18.9311L245.108 18.9311ZM252.713 14.4779C252.461 13.2452 252.147 12.1004 251.769 11.0438C251.404 9.9745 250.995 9.06878 250.543 8.32659L249.486 8.32659C249.033 9.06878 248.618 9.9745 248.241 11.0438C247.876 12.1004 247.574 13.2452 247.335 14.4779L252.713 14.4779Z" fill="white"/>
<path d="M15.0146 19C14.5182 17.3459 14.1241 15.797 13.8321 14.3534L13 14.5038V11.9774H15.5985C15.9197 13.9323 16.2798 15.6767 16.6788 17.2105C17.6131 13.9624 18.2555 10.5589 18.6058 7H21C20.854 8.56391 20.5134 10.5388 19.9781 12.9248C19.4526 15.3108 18.9221 17.3358 18.3869 19H15.0146Z" fill="white"/>
</svg>
